<svg width="393" height="853" viewBox="0 0 393 853" fill="none" xmlns="http://www.w3.org/2000/svg">
<g clip-path="url(#clip0_4030_5589)">
<rect width="393" height="853" fill="#E8E2D6"/>
<rect x="206" y="760" width="166" height="49" rx="10" fill="#526754"/>
<path d="M244 790.512C242.796 790.902 241.493 791.098 240.094 791.098C235.211 791.098 232.77 788.673 232.77 783.822C232.77 779.232 235.211 776.938 240.094 776.938C241.493 776.938 242.796 777.133 244 777.523V779.086C242.796 778.63 241.559 778.402 240.289 778.402C236.48 778.402 234.576 780.209 234.576 783.822C234.576 787.696 236.48 789.633 240.289 789.633C241.559 789.633 242.796 789.405 244 788.949V790.512ZM246.793 791V780.746H248.014L248.336 782.055C249.234 781.182 250.315 780.746 251.578 780.746V782.25C250.354 782.25 249.361 782.683 248.6 783.549V791H246.793ZM257.623 780.746C260.54 780.746 261.998 782.188 261.998 785.072C261.998 785.482 261.969 785.922 261.91 786.391H254.713C254.713 788.487 255.937 789.535 258.385 789.535C259.55 789.535 260.585 789.405 261.49 789.145V790.609C260.585 790.87 259.485 791 258.189 791C254.667 791 252.906 789.252 252.906 785.756C252.906 782.416 254.479 780.746 257.623 780.746ZM254.713 784.887H260.26C260.221 783.09 259.342 782.191 257.623 782.191C255.8 782.191 254.83 783.09 254.713 784.887ZM263.941 787.904C263.941 785.801 265.328 784.75 268.102 784.75C268.993 784.75 269.885 784.815 270.777 784.945V783.979C270.777 782.8 269.856 782.211 268.014 782.211C266.959 782.211 265.878 782.374 264.771 782.699V781.234C265.878 780.909 266.959 780.746 268.014 780.746C271.061 780.746 272.584 781.807 272.584 783.93V791H271.568L270.943 789.984C269.921 790.661 268.808 791 267.604 791C265.162 791 263.941 789.968 263.941 787.904ZM268.102 786.215C266.533 786.215 265.748 786.768 265.748 787.875C265.748 788.982 266.367 789.535 267.604 789.535C268.854 789.535 269.911 789.203 270.777 788.539V786.41C269.885 786.28 268.993 786.215 268.102 786.215ZM275.523 779.086H276.656L277.047 780.746H279.82V782.211H277.33V788.1C277.33 789.057 277.743 789.535 278.57 789.535H279.82V791H278.102C276.383 791 275.523 790.079 275.523 788.236V779.086ZM286.354 780.746C289.27 780.746 290.729 782.188 290.729 785.072C290.729 785.482 290.699 785.922 290.641 786.391H283.443C283.443 788.487 284.667 789.535 287.115 789.535C288.281 789.535 289.316 789.405 290.221 789.145V790.609C289.316 790.87 288.215 791 286.92 791C283.398 791 281.637 789.252 281.637 785.756C281.637 782.416 283.209 780.746 286.354 780.746ZM283.443 784.887H288.99C288.951 783.09 288.072 782.191 286.354 782.191C284.531 782.191 283.561 783.09 283.443 784.887ZM298.238 791V777.035H300.045V783.188H308.297V777.035H310.104V791H308.297V784.652H300.045V791H298.238ZM312.75 787.904C312.75 785.801 314.137 784.75 316.91 784.75C317.802 784.75 318.694 784.815 319.586 784.945V783.979C319.586 782.8 318.665 782.211 316.822 782.211C315.768 782.211 314.687 782.374 313.58 782.699V781.234C314.687 780.909 315.768 780.746 316.822 780.746C319.869 780.746 321.393 781.807 321.393 783.93V791H320.377L319.752 789.984C318.73 790.661 317.617 791 316.412 791C313.971 791 312.75 789.968 312.75 787.904ZM316.91 786.215C315.341 786.215 314.557 786.768 314.557 787.875C314.557 788.982 315.175 789.535 316.412 789.535C317.662 789.535 318.72 789.203 319.586 788.539V786.41C318.694 786.28 317.802 786.215 316.91 786.215ZM326.139 789.213C326.731 789.402 327.451 789.496 328.297 789.496C330.576 789.496 331.715 788.197 331.715 785.6C331.715 783.406 330.683 782.309 328.619 782.309C327.682 782.309 326.855 782.484 326.139 782.836V789.213ZM324.332 777.035H326.139V781.234C326.913 780.909 327.743 780.746 328.629 780.746C331.871 780.746 333.492 782.387 333.492 785.668C333.492 789.223 331.79 791 328.385 791C326.913 791 325.562 790.86 324.332 790.58V777.035ZM337.936 780.746V791H336.129V780.746H337.936ZM337.936 777.035V778.744H336.129V777.035H337.936ZM341.07 779.086H342.203L342.594 780.746H345.367V782.211H342.877V788.1C342.877 789.057 343.29 789.535 344.117 789.535H345.367V791H343.648C341.93 791 341.07 790.079 341.07 788.236V779.086Z" fill="white"/>
<rect x="22" y="760" width="151.422" height="49" rx="10" fill="#B16448"/>
<path d="M78.717 790.512C77.5126 790.902 76.2105 791.098 74.8108 791.098C69.9279 791.098 67.4865 788.673 67.4865 783.822C67.4865 779.232 69.9279 776.938 74.8108 776.938C76.2105 776.938 77.5126 777.133 78.717 777.523V779.086C77.5126 778.63 76.2756 778.402 75.0061 778.402C71.1975 778.402 69.2932 780.209 69.2932 783.822C69.2932 787.696 71.1975 789.633 75.0061 789.633C76.2756 789.633 77.5126 789.405 78.717 788.949V790.512ZM81.0217 787.904C81.0217 785.801 82.4084 784.75 85.1818 784.75C86.0738 784.75 86.9657 784.815 87.8576 784.945V783.979C87.8576 782.8 86.9364 782.211 85.094 782.211C84.0393 782.211 82.9585 782.374 81.8518 782.699V781.234C82.9585 780.909 84.0393 780.746 85.094 780.746C88.1408 780.746 89.6643 781.807 89.6643 783.93V791H88.6486L88.0236 789.984C87.0015 790.661 85.8882 791 84.6838 791C82.2424 791 81.0217 789.968 81.0217 787.904ZM85.1818 786.215C83.6128 786.215 82.8283 786.768 82.8283 787.875C82.8283 788.982 83.4468 789.535 84.6838 789.535C85.9338 789.535 86.9917 789.203 87.8576 788.539V786.41C86.9657 786.28 86.0738 786.215 85.1818 786.215ZM92.6037 791V780.746H93.8244L94.1467 782.055C95.1949 781.182 96.3472 780.746 97.6037 780.746C100.162 780.746 101.442 782.019 101.442 784.564V791H99.635V784.535C99.635 783.012 98.8765 782.25 97.3596 782.25C96.3244 782.25 95.3414 782.683 94.4104 783.549V791H92.6037ZM112.096 790.707C111.25 790.902 110.338 791 109.362 791C105.716 791 103.893 789.226 103.893 785.678C103.893 782.39 105.716 780.746 109.362 780.746C110.338 780.746 111.25 780.844 112.096 781.039V782.504C111.25 782.309 110.306 782.211 109.264 782.211C106.888 782.211 105.699 783.367 105.699 785.678C105.699 788.249 106.888 789.535 109.264 789.535C110.306 789.535 111.25 789.438 112.096 789.242V790.707ZM118.629 780.746C121.546 780.746 123.004 782.188 123.004 785.072C123.004 785.482 122.975 785.922 122.916 786.391H115.719C115.719 788.487 116.943 789.535 119.391 789.535C120.556 789.535 121.591 789.405 122.496 789.145V790.609C121.591 790.87 120.491 791 119.196 791C115.673 791 113.912 789.252 113.912 785.756C113.912 782.416 115.485 780.746 118.629 780.746ZM115.719 784.887H121.266C121.227 783.09 120.348 782.191 118.629 782.191C116.806 782.191 115.836 783.09 115.719 784.887ZM127.34 777.035V791H125.533V777.035H127.34Z" fill="white"/>
<rect x="22" y="237" width="350" height="498" rx="10" fill="#FFFEFD"/>
<path d="M51.7363 657H49.9297V653.68H42.5859V652.215L48.2012 643.035H50.0957L44.4707 652.215H49.9297V647.254H51.7363V652.215L53.1816 652.957V653.68H51.7363V657ZM56.6973 655.193V657H54.8906V655.193H56.6973ZM64.2266 657V643.035H66.0332V649.188H74.2852V643.035H76.0918V657H74.2852V650.652H66.0332V657H64.2266ZM78.7383 653.904C78.7383 651.801 80.125 650.75 82.8984 650.75C83.7904 650.75 84.6823 650.815 85.5742 650.945V649.979C85.5742 648.8 84.653 648.211 82.8105 648.211C81.7559 648.211 80.6751 648.374 79.5684 648.699V647.234C80.6751 646.909 81.7559 646.746 82.8105 646.746C85.8574 646.746 87.3809 647.807 87.3809 649.93V657H86.3652L85.7402 655.984C84.7181 656.661 83.6048 657 82.4004 657C79.959 657 78.7383 655.968 78.7383 653.904ZM82.8984 652.215C81.3294 652.215 80.5449 652.768 80.5449 653.875C80.5449 654.982 81.1634 655.535 82.4004 655.535C83.6504 655.535 84.7083 655.203 85.5742 654.539V652.41C84.6823 652.28 83.7904 652.215 82.8984 652.215ZM92.127 655.213C92.7194 655.402 93.4388 655.496 94.2852 655.496C96.5638 655.496 97.7031 654.197 97.7031 651.6C97.7031 649.406 96.6712 648.309 94.6074 648.309C93.6699 648.309 92.8431 648.484 92.127 648.836V655.213ZM90.3203 643.035H92.127V647.234C92.9017 646.909 93.7318 646.746 94.6172 646.746C97.8594 646.746 99.4805 648.387 99.4805 651.668C99.4805 655.223 97.778 657 94.373 657C92.9017 657 91.5508 656.86 90.3203 656.58V643.035ZM103.924 646.746V657H102.117V646.746H103.924ZM103.924 643.035V644.744H102.117V643.035H103.924ZM107.059 645.086H108.191L108.582 646.746H111.355V648.211H108.865V654.1C108.865 655.057 109.279 655.535 110.105 655.535H111.355V657H109.637C107.918 657 107.059 656.079 107.059 654.236V645.086ZM129.285 656.512C128.081 656.902 126.779 657.098 125.379 657.098C120.496 657.098 118.055 654.673 118.055 649.822C118.055 645.232 120.496 642.938 125.379 642.938C126.779 642.938 128.081 643.133 129.285 643.523V645.086C128.081 644.63 126.844 644.402 125.574 644.402C121.766 644.402 119.861 646.209 119.861 649.822C119.861 653.696 121.766 655.633 125.574 655.633C126.844 655.633 128.081 655.405 129.285 654.949V656.512ZM131.59 653.904C131.59 651.801 132.977 650.75 135.75 650.75C136.642 650.75 137.534 650.815 138.426 650.945V649.979C138.426 648.8 137.505 648.211 135.662 648.211C134.607 648.211 133.527 648.374 132.42 648.699V647.234C133.527 646.909 134.607 646.746 135.662 646.746C138.709 646.746 140.232 647.807 140.232 649.93V657H139.217L138.592 655.984C137.57 656.661 136.456 657 135.252 657C132.811 657 131.59 655.968 131.59 653.904ZM135.75 652.215C134.181 652.215 133.396 652.768 133.396 653.875C133.396 654.982 134.015 655.535 135.252 655.535C136.502 655.535 137.56 655.203 138.426 654.539V652.41C137.534 652.28 136.642 652.215 135.75 652.215ZM143.172 645.086H144.305L144.695 646.746H147.469V648.211H144.979V654.1C144.979 655.057 145.392 655.535 146.219 655.535H147.469V657H145.75C144.031 657 143.172 656.079 143.172 654.236V645.086ZM154.002 646.746C156.919 646.746 158.377 648.188 158.377 651.072C158.377 651.482 158.348 651.922 158.289 652.391H151.092C151.092 654.487 152.316 655.535 154.764 655.535C155.929 655.535 156.964 655.405 157.869 655.145V656.609C156.964 656.87 155.864 657 154.568 657C151.046 657 149.285 655.252 149.285 651.756C149.285 648.416 150.857 646.746 154.002 646.746ZM151.092 650.887H156.639C156.6 649.09 155.721 648.191 154.002 648.191C152.179 648.191 151.209 649.09 151.092 650.887ZM167.664 648.484C167.046 648.328 166.281 648.25 165.369 648.25C163.188 648.25 162.098 649.432 162.098 651.795C162.098 654.223 163.13 655.438 165.193 655.438C166.131 655.438 166.954 655.262 167.664 654.91V648.484ZM169.471 657C169.471 659.474 167.898 660.711 164.754 660.711C163.491 660.711 162.371 660.548 161.395 660.223V658.758C162.391 659.083 163.517 659.246 164.773 659.246C166.701 659.246 167.664 658.497 167.664 657V656.512C166.896 656.837 166.069 657 165.184 657C161.941 657 160.32 655.271 160.32 651.814C160.32 648.436 162.029 646.746 165.447 646.746C166.834 646.746 168.175 646.886 169.471 647.166V657ZM173.729 651.834C173.729 654.301 174.754 655.535 176.805 655.535C178.855 655.535 179.881 654.301 179.881 651.834C179.881 649.419 178.855 648.211 176.805 648.211C174.754 648.211 173.729 649.419 173.729 651.834ZM171.922 651.873C171.922 648.455 173.549 646.746 176.805 646.746C180.06 646.746 181.688 648.455 181.688 651.873C181.688 655.285 180.06 656.99 176.805 656.99C173.562 656.99 171.935 655.285 171.922 651.873ZM184.129 657V646.746H185.35L185.672 648.055C186.57 647.182 187.651 646.746 188.914 646.746V648.25C187.69 648.25 186.697 648.683 185.936 649.549V657H184.129ZM189.51 646.746H191.473L194.373 654.754L197.371 646.746H199.285L195.027 657.303C194.272 659.165 193.139 660.327 191.629 660.789L190.936 659.51C192.081 659.008 192.915 658.191 193.436 657.059L189.51 646.746Z" fill="#655F56"/>
<rect x="42" y="667" width="310" height="40" rx="5" fill="#E8E2D6"/>
<path d="M59.7139 691.634C58.8105 691.927 57.834 692.073 56.7842 692.073C53.1221 692.073 51.291 690.254 51.291 686.617C51.291 683.174 53.1221 681.453 56.7842 681.453C57.834 681.453 58.8105 681.6 59.7139 681.893V683.064C58.8105 682.723 57.8828 682.552 56.9307 682.552C54.0742 682.552 52.646 683.907 52.646 686.617C52.646 689.522 54.0742 690.975 56.9307 690.975C57.8828 690.975 58.8105 690.804 59.7139 690.462V691.634ZM61.4424 689.678C61.4424 688.101 62.4824 687.312 64.5625 687.312C65.2314 687.312 65.9004 687.361 66.5693 687.459V686.734C66.5693 685.85 65.8784 685.408 64.4966 685.408C63.7056 685.408 62.895 685.53 62.0649 685.774V684.676C62.895 684.432 63.7056 684.31 64.4966 684.31C66.7817 684.31 67.9243 685.105 67.9243 686.697V692H67.1626L66.6938 691.238C65.9272 691.746 65.0923 692 64.189 692C62.3579 692 61.4424 691.226 61.4424 689.678ZM64.5625 688.411C63.3857 688.411 62.7974 688.826 62.7974 689.656C62.7974 690.486 63.2612 690.901 64.189 690.901C65.1265 690.901 65.9199 690.652 66.5693 690.154V688.558C65.9004 688.46 65.2314 688.411 64.5625 688.411ZM70.1289 683.064H70.9785L71.2715 684.31H73.3516V685.408H71.4839V689.825C71.4839 690.542 71.7939 690.901 72.4141 690.901H73.3516V692H72.0625C70.7734 692 70.1289 691.309 70.1289 689.927V683.064ZM78.2515 684.31C80.439 684.31 81.5327 685.391 81.5327 687.554C81.5327 687.862 81.5107 688.191 81.4668 688.543H76.0688C76.0688 690.115 76.9868 690.901 78.8228 690.901C79.6968 690.901 80.4731 690.804 81.1519 690.608V691.707C80.4731 691.902 79.6479 692 78.6763 692C76.0347 692 74.7139 690.689 74.7139 688.067C74.7139 685.562 75.8931 684.31 78.2515 684.31ZM76.0688 687.415H80.229C80.1997 686.067 79.5405 685.394 78.2515 685.394C76.8843 685.394 76.1567 686.067 76.0688 687.415ZM88.498 685.613C88.0342 685.496 87.4604 685.438 86.7769 685.438C85.1411 685.438 84.3232 686.324 84.3232 688.096C84.3232 689.917 85.0972 690.828 86.645 690.828C87.3481 690.828 87.9658 690.696 88.498 690.433V685.613ZM89.853 692C89.853 693.855 88.6738 694.783 86.3154 694.783C85.3682 694.783 84.5283 694.661 83.7959 694.417V693.318C84.543 693.562 85.3877 693.685 86.3301 693.685C87.7754 693.685 88.498 693.123 88.498 692V691.634C87.9219 691.878 87.3018 692 86.6377 692C84.2061 692 82.9902 690.704 82.9902 688.111C82.9902 685.577 84.272 684.31 86.8354 684.31C87.8755 684.31 88.8813 684.415 89.853 684.625V692ZM93.0464 688.125C93.0464 689.976 93.8154 690.901 95.3535 690.901C96.8916 690.901 97.6606 689.976 97.6606 688.125C97.6606 686.314 96.8916 685.408 95.3535 685.408C93.8154 685.408 93.0464 686.314 93.0464 688.125ZM91.6914 688.155C91.6914 685.591 92.9121 684.31 95.3535 684.31C97.7949 684.31 99.0156 685.591 99.0156 688.155C99.0156 690.713 97.7949 691.993 95.3535 691.993C92.9219 691.993 91.7012 690.713 91.6914 688.155ZM100.847 692V684.31H101.762L102.004 685.291C102.678 684.637 103.488 684.31 104.436 684.31V685.438C103.518 685.438 102.773 685.762 102.202 686.412V692H100.847ZM107.299 684.31V692H105.944V684.31H107.299ZM107.299 681.526V682.808H105.944V681.526H107.299ZM112.822 684.31C115.009 684.31 116.103 685.391 116.103 687.554C116.103 687.862 116.081 688.191 116.037 688.543H110.639C110.639 690.115 111.557 690.901 113.393 690.901C114.267 690.901 115.043 690.804 115.722 690.608V691.707C115.043 691.902 114.218 692 113.247 692C110.605 692 109.284 690.689 109.284 688.067C109.284 685.562 110.463 684.31 112.822 684.31ZM110.639 687.415H114.799C114.77 686.067 114.111 685.394 112.822 685.394C111.455 685.394 110.727 686.067 110.639 687.415ZM117.854 691.634V690.462C118.757 690.755 119.67 690.901 120.593 690.901C121.818 690.901 122.431 690.535 122.431 689.803C122.431 689.119 122.004 688.777 121.149 688.777H120.051C118.391 688.777 117.561 688.021 117.561 686.507C117.561 685.042 118.627 684.31 120.761 684.31C121.679 684.31 122.59 684.432 123.493 684.676V685.848C122.59 685.555 121.679 685.408 120.761 685.408C119.482 685.408 118.842 685.774 118.842 686.507C118.842 687.19 119.245 687.532 120.051 687.532H121.149C122.907 687.532 123.786 688.289 123.786 689.803C123.786 691.268 122.722 692 120.593 692C119.67 692 118.757 691.878 117.854 691.634Z" fill="#3D3B38"/>
<path d="M328.402 683.671L336.906 692.004L345.41 683.671H328.402Z" fill="#3D3B38"/>
<g filter="url(#filter0_d_4030_5589)">
<rect x="42" y="573.673" width="150" height="50.0587" rx="5" fill="#E8E2D6"/>
</g>
<path d="M83.1987 599.278V597.081H84.2974V599.278H86.4946V600.377H84.2974V602.574H83.1987V600.377H81.0015V599.278H83.1987ZM92.4785 603.673H91.0723L95.5181 593.199H97.0195L101.487 603.673H99.9858L98.6309 600.377H95.1665L95.54 599.278H98.1768L96.2212 594.532L92.4785 603.673ZM107.933 597.55C107.386 597.286 106.761 597.154 106.058 597.154C104.51 597.154 103.736 597.977 103.736 599.622C103.736 601.571 104.51 602.545 106.058 602.545C106.761 602.545 107.386 602.449 107.933 602.259V597.55ZM109.288 603.211C108.355 603.519 107.205 603.673 105.838 603.673C103.548 603.673 102.403 602.34 102.403 599.674C102.403 597.213 103.619 595.982 106.05 595.982C106.714 595.982 107.342 596.104 107.933 596.348V593.199H109.288V603.211ZM116.648 597.55C116.102 597.286 115.477 597.154 114.773 597.154C113.226 597.154 112.452 597.977 112.452 599.622C112.452 601.571 113.226 602.545 114.773 602.545C115.477 602.545 116.102 602.449 116.648 602.259V597.55ZM118.003 603.211C117.071 603.519 115.921 603.673 114.554 603.673C112.264 603.673 111.119 602.34 111.119 599.674C111.119 597.213 112.334 595.982 114.766 595.982C115.43 595.982 116.058 596.104 116.648 596.348V593.199H118.003V603.211ZM131.919 603.262C131.075 603.585 130.164 603.746 129.188 603.746C125.394 603.746 123.497 601.927 123.497 598.289C123.497 594.847 125.328 593.126 128.99 593.126C130.04 593.126 131.016 593.272 131.919 593.565V594.737C131.016 594.395 130.088 594.224 129.136 594.224C126.28 594.224 124.852 595.579 124.852 598.289C124.852 601.195 126.258 602.647 129.07 602.647C129.52 602.647 130.018 602.589 130.564 602.471V598.912H131.919V603.262ZM135.003 599.798C135.003 601.649 135.772 602.574 137.31 602.574C138.848 602.574 139.617 601.649 139.617 599.798C139.617 597.987 138.848 597.081 137.31 597.081C135.772 597.081 135.003 597.987 135.003 599.798ZM133.648 599.827C133.648 597.264 134.869 595.982 137.31 595.982C139.751 595.982 140.972 597.264 140.972 599.827C140.972 602.386 139.751 603.665 137.31 603.665C134.878 603.665 133.658 602.386 133.648 599.827ZM142.437 601.351C142.437 599.774 143.477 598.985 145.557 598.985C146.226 598.985 146.895 599.034 147.564 599.132V598.406C147.564 597.523 146.873 597.081 145.491 597.081C144.7 597.081 143.89 597.203 143.06 597.447V596.348C143.89 596.104 144.7 595.982 145.491 595.982C147.776 595.982 148.919 596.778 148.919 598.37V603.673H148.157L147.688 602.911C146.922 603.419 146.087 603.673 145.184 603.673C143.353 603.673 142.437 602.899 142.437 601.351ZM145.557 600.084C144.38 600.084 143.792 600.499 143.792 601.329C143.792 602.159 144.256 602.574 145.184 602.574C146.121 602.574 146.915 602.325 147.564 601.827V600.23C146.895 600.133 146.226 600.084 145.557 600.084ZM152.552 593.199V603.673H151.197V593.199H152.552Z" fill="#655F56"/>
<path d="M42.9766 489.523C44.2786 489.133 45.5807 488.938 46.8828 488.938C50.2357 488.938 51.9121 490.207 51.9121 492.746C51.9121 494.283 51.3001 495.34 50.0762 495.92C51.3001 496.473 51.9121 497.531 51.9121 499.094C51.9121 501.763 50.2357 503.098 46.8828 503.098C45.5807 503.098 44.2786 502.902 42.9766 502.512V500.949C44.2786 501.405 45.5807 501.633 46.8828 501.633C49.0312 501.633 50.1055 500.786 50.1055 499.094C50.1055 497.466 49.2852 496.652 47.6445 496.652H44.4414V495.188H47.6152C49.2754 495.188 50.1055 494.374 50.1055 492.746C50.1055 491.184 49.0312 490.402 46.8828 490.402C45.5807 490.402 44.2786 490.63 42.9766 491.086V489.523ZM56.0137 501.193V503H54.207V501.193H56.0137ZM74.0898 502.453C72.9635 502.883 71.7493 503.098 70.4473 503.098C65.3887 503.098 62.8594 500.673 62.8594 495.822C62.8594 491.232 65.3008 488.938 70.1836 488.938C71.5833 488.938 72.8854 489.133 74.0898 489.523V491.086C72.8854 490.63 71.6484 490.402 70.3789 490.402C66.5703 490.402 64.666 492.209 64.666 495.822C64.666 499.696 66.541 501.633 70.291 501.633C70.89 501.633 71.554 501.555 72.2832 501.398V496.652H74.0898V502.453ZM78.2012 497.834C78.2012 500.301 79.2266 501.535 81.2773 501.535C83.3281 501.535 84.3535 500.301 84.3535 497.834C84.3535 495.419 83.3281 494.211 81.2773 494.211C79.2266 494.211 78.2012 495.419 78.2012 497.834ZM76.3945 497.873C76.3945 494.455 78.0221 492.746 81.2773 492.746C84.5326 492.746 86.1602 494.455 86.1602 497.873C86.1602 501.285 84.5326 502.99 81.2773 502.99C78.0352 502.99 76.4076 501.285 76.3945 497.873ZM88.1133 499.904C88.1133 497.801 89.5 496.75 92.2734 496.75C93.1654 496.75 94.0573 496.815 94.9492 496.945V495.979C94.9492 494.8 94.028 494.211 92.1855 494.211C91.1309 494.211 90.0501 494.374 88.9434 494.699V493.234C90.0501 492.909 91.1309 492.746 92.1855 492.746C95.2324 492.746 96.7559 493.807 96.7559 495.93V503H95.7402L95.1152 501.984C94.0931 502.661 92.9798 503 91.7754 503C89.334 503 88.1133 501.968 88.1133 499.904ZM92.2734 498.215C90.7044 498.215 89.9199 498.768 89.9199 499.875C89.9199 500.982 90.5384 501.535 91.7754 501.535C93.0254 501.535 94.0833 501.203 94.9492 500.539V498.41C94.0573 498.28 93.1654 498.215 92.2734 498.215ZM101.6 489.035V503H99.793V489.035H101.6ZM104.539 502.512V500.949C105.743 501.34 106.961 501.535 108.191 501.535C109.826 501.535 110.643 501.047 110.643 500.07C110.643 499.159 110.073 498.703 108.934 498.703H107.469C105.255 498.703 104.148 497.694 104.148 495.676C104.148 493.723 105.571 492.746 108.416 492.746C109.64 492.746 110.854 492.909 112.059 493.234V494.797C110.854 494.406 109.64 494.211 108.416 494.211C106.71 494.211 105.857 494.699 105.857 495.676C105.857 496.587 106.395 497.043 107.469 497.043H108.934C111.277 497.043 112.449 498.052 112.449 500.07C112.449 502.023 111.03 503 108.191 503C106.961 503 105.743 502.837 104.539 502.512ZM119.773 491.086H120.906L121.297 492.746H124.07V494.211H121.58V500.1C121.58 501.057 121.993 501.535 122.82 501.535H124.07V503H122.352C120.633 503 119.773 502.079 119.773 500.236V491.086ZM127.693 497.834C127.693 500.301 128.719 501.535 130.77 501.535C132.82 501.535 133.846 500.301 133.846 497.834C133.846 495.419 132.82 494.211 130.77 494.211C128.719 494.211 127.693 495.419 127.693 497.834ZM125.887 497.873C125.887 494.455 127.514 492.746 130.77 492.746C134.025 492.746 135.652 494.455 135.652 497.873C135.652 501.285 134.025 502.99 130.77 502.99C127.527 502.99 125.9 501.285 125.887 497.873ZM143.172 503V489.035H149.129C151.785 489.035 153.113 490.152 153.113 492.385C153.113 494.201 151.814 495.546 149.217 496.418L154.012 503H151.629L147.186 496.721V495.539C149.855 495.116 151.189 494.09 151.189 492.463C151.189 491.174 150.447 490.529 148.963 490.529H144.979V503H143.172ZM159.959 492.746C162.876 492.746 164.334 494.188 164.334 497.072C164.334 497.482 164.305 497.922 164.246 498.391H157.049C157.049 500.487 158.273 501.535 160.721 501.535C161.886 501.535 162.921 501.405 163.826 501.145V502.609C162.921 502.87 161.821 503 160.525 503C157.003 503 155.242 501.252 155.242 497.756C155.242 494.416 156.814 492.746 159.959 492.746ZM157.049 496.887H162.596C162.557 495.09 161.678 494.191 159.959 494.191C158.136 494.191 157.166 495.09 157.049 496.887ZM166.277 499.904C166.277 497.801 167.664 496.75 170.438 496.75C171.329 496.75 172.221 496.815 173.113 496.945V495.979C173.113 494.8 172.192 494.211 170.35 494.211C169.295 494.211 168.214 494.374 167.107 494.699V493.234C168.214 492.909 169.295 492.746 170.35 492.746C173.396 492.746 174.92 493.807 174.92 495.93V503H173.904L173.279 501.984C172.257 502.661 171.144 503 169.939 503C167.498 503 166.277 501.968 166.277 499.904ZM170.438 498.215C168.868 498.215 168.084 498.768 168.084 499.875C168.084 500.982 168.702 501.535 169.939 501.535C171.189 501.535 172.247 501.203 173.113 500.539V498.41C172.221 498.28 171.329 498.215 170.438 498.215ZM185.574 502.707C184.728 502.902 183.816 503 182.84 503C179.194 503 177.371 501.226 177.371 497.678C177.371 494.39 179.194 492.746 182.84 492.746C183.816 492.746 184.728 492.844 185.574 493.039V494.504C184.728 494.309 183.784 494.211 182.742 494.211C180.366 494.211 179.178 495.367 179.178 497.678C179.178 500.249 180.366 501.535 182.742 501.535C183.784 501.535 184.728 501.438 185.574 501.242V502.707ZM187.879 503V489.035H189.686V493.859C190.558 493.117 191.622 492.746 192.879 492.746C195.438 492.746 196.717 494.019 196.717 496.564V503H194.91V496.535C194.91 495.012 194.152 494.25 192.635 494.25C191.6 494.25 190.617 494.683 189.686 495.549V503H187.879ZM204.734 503V489.035H206.541V495.188H214.793V489.035H216.6V503H214.793V496.652H206.541V503H204.734ZM219.246 499.904C219.246 497.801 220.633 496.75 223.406 496.75C224.298 496.75 225.19 496.815 226.082 496.945V495.979C226.082 494.8 225.161 494.211 223.318 494.211C222.264 494.211 221.183 494.374 220.076 494.699V493.234C221.183 492.909 222.264 492.746 223.318 492.746C226.365 492.746 227.889 493.807 227.889 495.93V503H226.873L226.248 501.984C225.226 502.661 224.113 503 222.908 503C220.467 503 219.246 501.968 219.246 499.904ZM223.406 498.215C221.837 498.215 221.053 498.768 221.053 499.875C221.053 500.982 221.671 501.535 222.908 501.535C224.158 501.535 225.216 501.203 226.082 500.539V498.41C225.19 498.28 224.298 498.215 223.406 498.215ZM232.635 501.213C233.227 501.402 233.947 501.496 234.793 501.496C237.072 501.496 238.211 500.197 238.211 497.6C238.211 495.406 237.179 494.309 235.115 494.309C234.178 494.309 233.351 494.484 232.635 494.836V501.213ZM230.828 489.035H232.635V493.234C233.41 492.909 234.24 492.746 235.125 492.746C238.367 492.746 239.988 494.387 239.988 497.668C239.988 501.223 238.286 503 234.881 503C233.41 503 232.059 502.86 230.828 502.58V489.035ZM244.432 492.746V503H242.625V492.746H244.432ZM244.432 489.035V490.744H242.625V489.035H244.432ZM247.566 491.086H248.699L249.09 492.746H251.863V494.211H249.373V500.1C249.373 501.057 249.786 501.535 250.613 501.535H251.863V503H250.145C248.426 503 247.566 502.079 247.566 500.236V491.086Z" fill="#655F56"/>
<g filter="url(#filter1_d_4030_5589)">
<rect x="202" y="512" width="150" height="50" rx="5" fill="#E8E2D6"/>
</g>
<path d="M207.071 532V521.818H213.176V522.912H208.304V526.352H212.719V527.446H208.304V532H207.071ZM215.129 532V524.364H216.302V532H215.129ZM215.725 523.091C215.496 523.091 215.299 523.013 215.134 522.857C214.971 522.701 214.89 522.514 214.89 522.295C214.89 522.077 214.971 521.889 215.134 521.734C215.299 521.578 215.496 521.5 215.725 521.5C215.954 521.5 216.149 521.578 216.312 521.734C216.478 521.889 216.56 522.077 216.56 522.295C216.56 522.514 216.478 522.701 216.312 522.857C216.149 523.013 215.954 523.091 215.725 523.091ZM219.624 527.406V532H218.451V524.364H219.584V525.557H219.684C219.863 525.169 220.135 524.857 220.499 524.622C220.864 524.384 221.334 524.264 221.911 524.264C222.428 524.264 222.881 524.37 223.268 524.582C223.656 524.791 223.958 525.109 224.173 525.537C224.389 525.961 224.496 526.498 224.496 527.148V532H223.323V527.227C223.323 526.627 223.167 526.16 222.856 525.825C222.544 525.487 222.117 525.318 221.573 525.318C221.198 525.318 220.864 525.399 220.569 525.562C220.277 525.724 220.047 525.961 219.878 526.273C219.709 526.584 219.624 526.962 219.624 527.406ZM226.64 532V524.364H227.814V532H226.64ZM227.237 523.091C227.008 523.091 226.811 523.013 226.645 522.857C226.483 522.701 226.402 522.514 226.402 522.295C226.402 522.077 226.483 521.889 226.645 521.734C226.811 521.578 227.008 521.5 227.237 521.5C227.466 521.5 227.661 521.578 227.824 521.734C227.989 521.889 228.072 522.077 228.072 522.295C228.072 522.514 227.989 522.701 227.824 522.857C227.661 523.013 227.466 523.091 227.237 523.091ZM235.372 526.074L234.318 526.372C234.251 526.196 234.154 526.026 234.024 525.86C233.898 525.691 233.726 525.552 233.507 525.442C233.289 525.333 233.008 525.278 232.667 525.278C232.2 525.278 231.81 525.386 231.499 525.602C231.191 525.814 231.036 526.084 231.036 526.412C231.036 526.704 231.142 526.934 231.355 527.103C231.567 527.272 231.898 527.413 232.349 527.526L233.482 527.804C234.165 527.97 234.674 528.223 235.009 528.565C235.343 528.903 235.511 529.339 235.511 529.872C235.511 530.31 235.385 530.701 235.133 531.045C234.884 531.39 234.536 531.662 234.089 531.861C233.642 532.06 233.121 532.159 232.528 532.159C231.749 532.159 231.104 531.99 230.594 531.652C230.084 531.314 229.76 530.82 229.624 530.17L230.738 529.892C230.844 530.303 231.045 530.611 231.34 530.817C231.638 531.022 232.027 531.125 232.508 531.125C233.055 531.125 233.489 531.009 233.811 530.777C234.135 530.542 234.298 530.26 234.298 529.932C234.298 529.667 234.205 529.445 234.019 529.266C233.834 529.083 233.549 528.947 233.164 528.858L231.892 528.56C231.192 528.394 230.678 528.137 230.35 527.789C230.026 527.438 229.863 526.999 229.863 526.472C229.863 526.041 229.984 525.66 230.226 525.328C230.471 524.997 230.804 524.737 231.225 524.548C231.65 524.359 232.13 524.264 232.667 524.264C233.423 524.264 234.016 524.43 234.447 524.761C234.881 525.093 235.189 525.53 235.372 526.074ZM238.45 527.406V532H237.277V521.818H238.45V525.557H238.55C238.729 525.162 238.997 524.849 239.355 524.617C239.716 524.382 240.197 524.264 240.797 524.264C241.317 524.264 241.773 524.369 242.164 524.577C242.555 524.783 242.858 525.099 243.074 525.527C243.293 525.951 243.402 526.491 243.402 527.148V532H242.229V527.227C242.229 526.621 242.071 526.152 241.756 525.82C241.445 525.486 241.012 525.318 240.459 525.318C240.074 525.318 239.73 525.399 239.425 525.562C239.123 525.724 238.884 525.961 238.709 526.273C238.536 526.584 238.45 526.962 238.45 527.406ZM253.046 521.818V532H251.813V523.111H251.753L249.267 524.761V523.509L251.813 521.818H253.046ZM268.284 525H267.051C266.978 524.645 266.85 524.334 266.668 524.065C266.489 523.797 266.27 523.571 266.012 523.389C265.756 523.204 265.473 523.064 265.161 522.972C264.85 522.879 264.525 522.832 264.187 522.832C263.57 522.832 263.012 522.988 262.512 523.3C262.014 523.611 261.618 524.07 261.323 524.677C261.032 525.283 260.886 526.027 260.886 526.909C260.886 527.791 261.032 528.535 261.323 529.141C261.618 529.748 262.014 530.207 262.512 530.518C263.012 530.83 263.57 530.986 264.187 530.986C264.525 530.986 264.85 530.939 265.161 530.847C265.473 530.754 265.756 530.616 266.012 530.434C266.27 530.248 266.489 530.021 266.668 529.753C266.85 529.481 266.978 529.17 267.051 528.818H268.284C268.191 529.339 268.022 529.804 267.776 530.215C267.531 530.626 267.226 530.976 266.862 531.264C266.497 531.549 266.088 531.766 265.634 531.915C265.183 532.065 264.701 532.139 264.187 532.139C263.319 532.139 262.546 531.927 261.87 531.503C261.194 531.079 260.662 530.475 260.274 529.693C259.887 528.911 259.693 527.983 259.693 526.909C259.693 525.835 259.887 524.907 260.274 524.125C260.662 523.343 261.194 522.74 261.87 522.315C262.546 521.891 263.319 521.679 264.187 521.679C264.701 521.679 265.183 521.754 265.634 521.903C266.088 522.052 266.497 522.271 266.862 522.559C267.226 522.844 267.531 523.192 267.776 523.603C268.022 524.011 268.191 524.476 268.284 525ZM271.29 527.406V532H270.117V521.818H271.29V525.557H271.39C271.569 525.162 271.837 524.849 272.195 524.617C272.556 524.382 273.037 524.264 273.637 524.264C274.157 524.264 274.613 524.369 275.004 524.577C275.395 524.783 275.698 525.099 275.914 525.527C276.132 525.951 276.242 526.491 276.242 527.148V532H275.069V527.227C275.069 526.621 274.911 526.152 274.596 525.82C274.285 525.486 273.852 525.318 273.299 525.318C272.914 525.318 272.569 525.399 272.265 525.562C271.963 525.724 271.724 525.961 271.549 526.273C271.376 526.584 271.29 526.962 271.29 527.406ZM280.635 532.179C280.152 532.179 279.712 532.088 279.318 531.906C278.924 531.72 278.61 531.453 278.378 531.105C278.146 530.754 278.03 530.33 278.03 529.832C278.03 529.395 278.117 529.04 278.289 528.768C278.461 528.493 278.692 528.278 278.98 528.122C279.268 527.966 279.586 527.85 279.934 527.774C280.286 527.695 280.639 527.632 280.993 527.585C281.457 527.526 281.834 527.481 282.122 527.451C282.414 527.418 282.626 527.363 282.758 527.287C282.894 527.211 282.962 527.078 282.962 526.889V526.849C282.962 526.359 282.828 525.978 282.559 525.706C282.294 525.434 281.892 525.298 281.351 525.298C280.791 525.298 280.352 525.421 280.034 525.666C279.716 525.911 279.492 526.173 279.363 526.452L278.249 526.054C278.448 525.59 278.713 525.229 279.045 524.97C279.379 524.708 279.744 524.526 280.138 524.423C280.536 524.317 280.927 524.264 281.312 524.264C281.557 524.264 281.839 524.294 282.157 524.354C282.478 524.41 282.788 524.528 283.086 524.707C283.388 524.886 283.638 525.156 283.837 525.517C284.036 525.878 284.135 526.362 284.135 526.969V532H282.962V530.966H282.903C282.823 531.132 282.69 531.309 282.505 531.498C282.319 531.687 282.072 531.848 281.764 531.98C281.456 532.113 281.08 532.179 280.635 532.179ZM280.814 531.125C281.278 531.125 281.67 531.034 281.988 530.852C282.309 530.669 282.551 530.434 282.714 530.146C282.879 529.857 282.962 529.554 282.962 529.236V528.162C282.912 528.222 282.803 528.276 282.634 528.326C282.468 528.372 282.276 528.414 282.057 528.45C281.842 528.483 281.631 528.513 281.426 528.54C281.224 528.563 281.06 528.583 280.934 528.599C280.629 528.639 280.344 528.704 280.079 528.793C279.817 528.879 279.605 529.01 279.442 529.186C279.283 529.358 279.204 529.594 279.204 529.892C279.204 530.3 279.354 530.608 279.656 530.817C279.961 531.022 280.347 531.125 280.814 531.125ZM286.277 534.864V524.364H287.411V525.577H287.55C287.636 525.444 287.755 525.275 287.908 525.07C288.063 524.861 288.286 524.675 288.574 524.513C288.866 524.347 289.26 524.264 289.757 524.264C290.4 524.264 290.967 524.425 291.457 524.746C291.948 525.068 292.331 525.524 292.606 526.114C292.881 526.704 293.018 527.4 293.018 528.202C293.018 529.01 292.881 529.711 292.606 530.305C292.331 530.895 291.95 531.352 291.462 531.677C290.975 531.998 290.413 532.159 289.777 532.159C289.286 532.159 288.894 532.078 288.599 531.915C288.304 531.75 288.077 531.562 287.918 531.354C287.759 531.142 287.636 530.966 287.55 530.827H287.45V534.864H286.277ZM287.43 528.182C287.43 528.759 287.515 529.267 287.684 529.708C287.853 530.146 288.1 530.489 288.425 530.737C288.75 530.982 289.147 531.105 289.618 531.105C290.108 531.105 290.518 530.976 290.846 530.717C291.177 530.455 291.426 530.104 291.592 529.663C291.761 529.219 291.845 528.725 291.845 528.182C291.845 527.645 291.762 527.161 291.597 526.73C291.434 526.296 291.187 525.953 290.856 525.701C290.528 525.446 290.115 525.318 289.618 525.318C289.141 525.318 288.74 525.439 288.415 525.681C288.09 525.92 287.845 526.254 287.679 526.685C287.513 527.113 287.43 527.612 287.43 528.182ZM298.129 524.364V525.358H294.172V524.364H298.129ZM295.325 522.534H296.499V529.812C296.499 530.144 296.547 530.393 296.643 530.558C296.742 530.721 296.868 530.83 297.021 530.886C297.176 530.939 297.34 530.966 297.513 530.966C297.642 530.966 297.748 530.959 297.831 530.946C297.914 530.929 297.98 530.916 298.03 530.906L298.268 531.96C298.189 531.99 298.078 532.02 297.935 532.05C297.793 532.083 297.612 532.099 297.393 532.099C297.062 532.099 296.737 532.028 296.419 531.886C296.104 531.743 295.842 531.526 295.634 531.234C295.428 530.943 295.325 530.575 295.325 530.131V522.534ZM303.014 532.159C302.278 532.159 301.643 531.997 301.11 531.672C300.579 531.344 300.17 530.886 299.882 530.3C299.597 529.71 299.454 529.024 299.454 528.241C299.454 527.459 299.597 526.77 299.882 526.173C300.17 525.573 300.571 525.106 301.085 524.771C301.602 524.433 302.205 524.264 302.895 524.264C303.292 524.264 303.685 524.33 304.073 524.463C304.461 524.596 304.814 524.811 305.132 525.109C305.45 525.404 305.703 525.795 305.892 526.283C306.081 526.77 306.176 527.37 306.176 528.082V528.58H300.289V527.565H304.983C304.983 527.134 304.896 526.75 304.724 526.412C304.555 526.074 304.313 525.807 303.998 525.612C303.687 525.416 303.319 525.318 302.895 525.318C302.427 525.318 302.023 525.434 301.681 525.666C301.343 525.895 301.083 526.193 300.901 526.561C300.719 526.929 300.627 527.323 300.627 527.744V528.42C300.627 528.997 300.727 529.486 300.926 529.887C301.128 530.285 301.408 530.588 301.766 530.797C302.124 531.002 302.54 531.105 303.014 531.105C303.322 531.105 303.6 531.062 303.849 530.976C304.101 530.886 304.318 530.754 304.5 530.578C304.683 530.399 304.824 530.177 304.923 529.912L306.056 530.23C305.937 530.615 305.737 530.953 305.455 531.244C305.173 531.533 304.825 531.758 304.411 531.92C303.997 532.08 303.531 532.159 303.014 532.159ZM307.961 532V524.364H309.094V525.517H309.174C309.313 525.139 309.565 524.833 309.929 524.597C310.294 524.362 310.705 524.244 311.162 524.244C311.248 524.244 311.356 524.246 311.485 524.249C311.615 524.253 311.712 524.258 311.779 524.264V525.457C311.739 525.447 311.648 525.433 311.505 525.413C311.366 525.389 311.219 525.378 311.063 525.378C310.692 525.378 310.36 525.456 310.069 525.612C309.78 525.764 309.551 525.976 309.382 526.248C309.217 526.516 309.134 526.823 309.134 527.168V532H307.961ZM320.309 532.159C319.573 532.159 318.938 531.997 318.405 531.672C317.874 531.344 317.465 530.886 317.177 530.3C316.892 529.71 316.749 529.024 316.749 528.241C316.749 527.459 316.892 526.77 317.177 526.173C317.465 525.573 317.866 525.106 318.38 524.771C318.897 524.433 319.5 524.264 320.189 524.264C320.587 524.264 320.98 524.33 321.368 524.463C321.756 524.596 322.108 524.811 322.427 525.109C322.745 525.404 322.998 525.795 323.187 526.283C323.376 526.77 323.471 527.37 323.471 528.082V528.58H317.584V527.565H322.278C322.278 527.134 322.191 526.75 322.019 526.412C321.85 526.074 321.608 525.807 321.293 525.612C320.982 525.416 320.614 525.318 320.189 525.318C319.722 525.318 319.318 525.434 318.976 525.666C318.638 525.895 318.378 526.193 318.196 526.561C318.014 526.929 317.922 527.323 317.922 527.744V528.42C317.922 528.997 318.022 529.486 318.221 529.887C318.423 530.285 318.703 530.588 319.061 530.797C319.419 531.002 319.835 531.105 320.309 531.105C320.617 531.105 320.895 531.062 321.144 530.976C321.396 530.886 321.613 530.754 321.795 530.578C321.978 530.399 322.118 530.177 322.218 529.912L323.351 530.23C323.232 530.615 323.032 530.953 322.75 531.244C322.468 531.533 322.12 531.758 321.706 531.92C321.291 532.08 320.826 532.159 320.309 532.159ZM327.503 532.179C327.019 532.179 326.58 532.088 326.185 531.906C325.791 531.72 325.478 531.453 325.246 531.105C325.014 530.754 324.898 530.33 324.898 529.832C324.898 529.395 324.984 529.04 325.156 528.768C325.328 528.493 325.559 528.278 325.847 528.122C326.135 527.966 326.454 527.85 326.802 527.774C327.153 527.695 327.506 527.632 327.861 527.585C328.325 527.526 328.701 527.481 328.989 527.451C329.281 527.418 329.493 527.363 329.626 527.287C329.761 527.211 329.829 527.078 329.829 526.889V526.849C329.829 526.359 329.695 525.978 329.427 525.706C329.162 525.434 328.759 525.298 328.219 525.298C327.658 525.298 327.219 525.421 326.901 525.666C326.583 525.911 326.359 526.173 326.23 526.452L325.116 526.054C325.315 525.59 325.58 525.229 325.912 524.97C326.247 524.708 326.611 524.526 327.006 524.423C327.403 524.317 327.794 524.264 328.179 524.264C328.424 524.264 328.706 524.294 329.024 524.354C329.345 524.41 329.655 524.528 329.954 524.707C330.255 524.886 330.506 525.156 330.704 525.517C330.903 525.878 331.003 526.362 331.003 526.969V532H329.829V530.966H329.77C329.69 531.132 329.558 531.309 329.372 531.498C329.186 531.687 328.939 531.848 328.631 531.98C328.323 532.113 327.947 532.179 327.503 532.179ZM327.682 531.125C328.146 531.125 328.537 531.034 328.855 530.852C329.176 530.669 329.418 530.434 329.581 530.146C329.747 529.857 329.829 529.554 329.829 529.236V528.162C329.78 528.222 329.67 528.276 329.501 528.326C329.336 528.372 329.143 528.414 328.925 528.45C328.709 528.483 328.499 528.513 328.293 528.54C328.091 528.563 327.927 528.583 327.801 528.599C327.496 528.639 327.211 528.704 326.946 528.793C326.684 528.879 326.472 529.01 326.309 529.186C326.15 529.358 326.071 529.594 326.071 529.892C326.071 530.3 326.222 530.608 326.523 530.817C326.828 531.022 327.214 531.125 327.682 531.125ZM336.246 532.159C335.531 532.159 334.914 531.99 334.397 531.652C333.88 531.314 333.482 530.848 333.204 530.255C332.925 529.662 332.786 528.984 332.786 528.222C332.786 527.446 332.929 526.762 333.214 526.168C333.502 525.572 333.903 525.106 334.417 524.771C334.934 524.433 335.537 524.264 336.227 524.264C336.763 524.264 337.247 524.364 337.678 524.562C338.109 524.761 338.462 525.04 338.737 525.398C339.012 525.756 339.183 526.173 339.249 526.651H338.076C337.987 526.303 337.788 525.994 337.479 525.726C337.174 525.454 336.763 525.318 336.246 525.318C335.789 525.318 335.388 525.437 335.043 525.676C334.702 525.911 334.435 526.245 334.243 526.675C334.054 527.103 333.96 527.605 333.96 528.182C333.96 528.772 334.052 529.286 334.238 529.723C334.427 530.161 334.692 530.5 335.033 530.742C335.378 530.984 335.782 531.105 336.246 531.105C336.551 531.105 336.828 531.052 337.077 530.946C337.325 530.84 337.536 530.688 337.708 530.489C337.88 530.29 338.003 530.051 338.076 529.773H339.249C339.183 530.223 339.019 530.629 338.757 530.991C338.499 531.349 338.156 531.634 337.728 531.846C337.304 532.055 336.81 532.159 336.246 532.159ZM342.138 527.406V532H340.964V521.818H342.138V525.557H342.237C342.416 525.162 342.685 524.849 343.043 524.617C343.404 524.382 343.884 524.264 344.484 524.264C345.005 524.264 345.46 524.369 345.852 524.577C346.243 524.783 346.546 525.099 346.761 525.527C346.98 525.951 347.089 526.491 347.089 527.148V532H345.916V527.227C345.916 526.621 345.759 526.152 345.444 525.82C345.132 525.486 344.7 525.318 344.146 525.318C343.762 525.318 343.417 525.399 343.112 525.562C342.811 525.724 342.572 525.961 342.396 526.273C342.224 526.584 342.138 526.962 342.138 527.406ZM262.29 552L259.964 544.364H261.197L262.847 550.21H262.927L264.557 544.364H265.81L267.421 550.19H267.501L269.151 544.364H270.384L268.057 552H266.904L265.233 546.134H265.114L263.444 552H262.29ZM274.877 552.159C274.141 552.159 273.507 551.997 272.973 551.672C272.443 551.344 272.033 550.886 271.745 550.3C271.46 549.71 271.317 549.024 271.317 548.241C271.317 547.459 271.46 546.77 271.745 546.173C272.033 545.573 272.434 545.106 272.948 544.771C273.465 544.433 274.068 544.264 274.758 544.264C275.156 544.264 275.548 544.33 275.936 544.463C276.324 544.596 276.677 544.811 276.995 545.109C277.313 545.404 277.567 545.795 277.756 546.283C277.945 546.77 278.039 547.37 278.039 548.082V548.58H272.153V547.565H276.846C276.846 547.134 276.76 546.75 276.587 546.412C276.418 546.074 276.176 545.807 275.862 545.612C275.55 545.416 275.182 545.318 274.758 545.318C274.29 545.318 273.886 545.434 273.545 545.666C273.207 545.895 272.946 546.193 272.764 546.561C272.582 546.929 272.491 547.323 272.491 547.744V548.42C272.491 548.997 272.59 549.486 272.789 549.887C272.991 550.285 273.271 550.588 273.629 550.797C273.987 551.002 274.403 551.105 274.877 551.105C275.185 551.105 275.464 551.062 275.712 550.976C275.964 550.886 276.181 550.754 276.364 550.578C276.546 550.399 276.687 550.177 276.786 549.912L277.92 550.23C277.8 550.615 277.6 550.953 277.318 551.244C277.036 551.533 276.688 551.758 276.274 551.92C275.86 552.08 275.394 552.159 274.877 552.159ZM283.026 552.159C282.29 552.159 281.655 551.997 281.121 551.672C280.591 551.344 280.182 550.886 279.893 550.3C279.608 549.71 279.466 549.024 279.466 548.241C279.466 547.459 279.608 546.77 279.893 546.173C280.182 545.573 280.583 545.106 281.097 544.771C281.614 544.433 282.217 544.264 282.906 544.264C283.304 544.264 283.697 544.33 284.085 544.463C284.472 544.596 284.825 544.811 285.143 545.109C285.462 545.404 285.715 545.795 285.904 546.283C286.093 546.77 286.188 547.37 286.188 548.082V548.58H280.301V547.565H284.994C284.994 547.134 284.908 546.75 284.736 546.412C284.567 546.074 284.325 545.807 284.01 545.612C283.698 545.416 283.33 545.318 282.906 545.318C282.439 545.318 282.035 545.434 281.693 545.666C281.355 545.895 281.095 546.193 280.913 546.561C280.73 546.929 280.639 547.323 280.639 547.744V548.42C280.639 548.997 280.739 549.486 280.938 549.887C281.14 550.285 281.42 550.588 281.778 550.797C282.136 551.002 282.552 551.105 283.026 551.105C283.334 551.105 283.612 551.062 283.861 550.976C284.113 550.886 284.33 550.754 284.512 550.578C284.694 550.399 284.835 550.177 284.935 549.912L286.068 550.23C285.949 550.615 285.748 550.953 285.467 551.244C285.185 551.533 284.837 551.758 284.423 551.92C284.008 552.08 283.543 552.159 283.026 552.159ZM289.066 549.216L289.046 547.764H289.285L292.626 544.364H294.077L290.518 547.963H290.418L289.066 549.216ZM287.972 552V541.818H289.146V552H287.972ZM292.825 552L289.842 548.222L290.677 547.406L294.316 552H292.825Z" fill="#655F56"/>
<g filter="url(#filter2_d_4030_5589)">
<rect x="42" y="512" width="150" height="50" rx="5" fill="#E8E2D6"/>
</g>
<path d="M51.3311 534V523.526H55.7988C57.791 523.526 58.7871 524.364 58.7871 526.039C58.7871 527.401 57.813 528.409 55.8647 529.063L59.4609 534H57.6738L54.3413 529.291V528.404C56.3433 528.087 57.3442 527.318 57.3442 526.097C57.3442 525.13 56.7876 524.647 55.6743 524.647H52.686V534H51.3311ZM63.9214 526.31C66.1089 526.31 67.2026 527.391 67.2026 529.554C67.2026 529.862 67.1807 530.191 67.1367 530.543H61.7388C61.7388 532.115 62.6567 532.901 64.4927 532.901C65.3667 532.901 66.1431 532.804 66.8218 532.608V533.707C66.1431 533.902 65.3179 534 64.3462 534C61.7046 534 60.3838 532.689 60.3838 530.067C60.3838 527.562 61.563 526.31 63.9214 526.31ZM61.7388 529.415H65.8989C65.8696 528.067 65.2104 527.394 63.9214 527.394C62.5542 527.394 61.8267 528.067 61.7388 529.415ZM68.6602 531.678C68.6602 530.101 69.7002 529.312 71.7803 529.312C72.4492 529.312 73.1182 529.361 73.7871 529.459V528.734C73.7871 527.85 73.0962 527.408 71.7144 527.408C70.9233 527.408 70.1128 527.53 69.2827 527.774V526.676C70.1128 526.432 70.9233 526.31 71.7144 526.31C73.9995 526.31 75.1421 527.105 75.1421 528.697V534H74.3804L73.9116 533.238C73.145 533.746 72.3101 534 71.4067 534C69.5757 534 68.6602 533.226 68.6602 531.678ZM71.7803 530.411C70.6035 530.411 70.0151 530.826 70.0151 531.656C70.0151 532.486 70.479 532.901 71.4067 532.901C72.3442 532.901 73.1377 532.652 73.7871 532.154V530.558C73.1182 530.46 72.4492 530.411 71.7803 530.411ZM82.5103 527.877C81.9634 527.613 81.3384 527.481 80.6353 527.481C79.0874 527.481 78.3135 528.304 78.3135 529.95C78.3135 531.898 79.0874 532.872 80.6353 532.872C81.3384 532.872 81.9634 532.777 82.5103 532.586V527.877ZM83.8652 533.539C82.9326 533.846 81.7827 534 80.4155 534C78.1255 534 76.9805 532.667 76.9805 530.001C76.9805 527.54 78.1963 526.31 80.6279 526.31C81.292 526.31 81.9194 526.432 82.5103 526.676V523.526H83.8652V533.539ZM89.7246 534V525.936C89.7246 524.076 90.7793 523.146 92.8887 523.146C93.4697 523.146 94.0166 523.243 94.5293 523.438V524.537C94.0459 524.342 93.4966 524.244 92.8813 524.244C91.6802 524.244 91.0796 524.789 91.0796 525.877V526.31H93.46V527.408H91.0796V534H89.7246ZM95.9282 530.125C95.9282 531.976 96.6973 532.901 98.2354 532.901C99.7734 532.901 100.542 531.976 100.542 530.125C100.542 528.314 99.7734 527.408 98.2354 527.408C96.6973 527.408 95.9282 528.314 95.9282 530.125ZM94.5732 530.155C94.5732 527.591 95.7939 526.31 98.2354 526.31C100.677 526.31 101.897 527.591 101.897 530.155C101.897 532.713 100.677 533.993 98.2354 533.993C95.8037 533.993 94.583 532.713 94.5732 530.155ZM103.729 534V526.31H104.644L104.886 527.291C105.56 526.637 106.37 526.31 107.317 526.31V527.438C106.399 527.438 105.655 527.762 105.083 528.412V534H103.729ZM113.074 534V524.837H111.976V524.186L114.429 523.453V534H113.074ZM117.11 523.526H123.438V524.625H118.267L118.091 527.862C118.663 527.755 119.263 527.701 119.893 527.701C122.53 527.701 123.848 528.702 123.848 530.704C123.848 532.95 122.481 534.073 119.747 534.073C118.819 534.073 117.867 533.927 116.89 533.634V532.462C117.867 532.804 118.843 532.975 119.82 532.975C121.602 532.975 122.493 532.218 122.493 530.704C122.493 529.435 121.626 528.8 119.893 528.8C118.794 528.8 117.793 528.897 116.89 529.093L117.11 523.526ZM129.349 534V526.31H130.264L130.491 527.276C131.229 526.632 132.032 526.31 132.901 526.31C134.014 526.31 134.773 526.661 135.179 527.364C136.014 526.661 136.861 526.31 137.72 526.31C139.488 526.31 140.372 527.284 140.372 529.232V534H139.017V529.159C139.017 528.011 138.533 527.438 137.566 527.438C136.844 527.438 136.167 527.77 135.538 528.434V534H134.183V529.181C134.183 528.019 133.704 527.438 132.747 527.438C131.985 527.438 131.304 527.77 130.704 528.434V534H129.349ZM144.078 526.31V534H142.723V526.31H144.078ZM144.078 523.526V524.808H142.723V523.526H144.078ZM146.429 534V526.31H147.344L147.586 527.291C148.372 526.637 149.236 526.31 150.179 526.31C152.098 526.31 153.057 527.264 153.057 529.173V534H151.702V529.151C151.702 528.009 151.133 527.438 149.996 527.438C149.219 527.438 148.482 527.762 147.784 528.412V534H146.429ZM161.89 526.31V534H160.96L160.726 533.019C159.793 533.673 158.855 534 157.913 534C156.146 534 155.262 533.045 155.262 531.136V526.31H156.617V531.158C156.617 532.301 157.183 532.872 158.316 532.872C159.092 532.872 159.832 532.547 160.535 531.898V526.31H161.89ZM164.095 525.064H164.944L165.237 526.31H167.317V527.408H165.45V531.825C165.45 532.542 165.76 532.901 166.38 532.901H167.317V534H166.028C164.739 534 164.095 533.309 164.095 531.927V525.064ZM172.217 526.31C174.405 526.31 175.499 527.391 175.499 529.554C175.499 529.862 175.477 530.191 175.433 530.543H170.035C170.035 532.115 170.953 532.901 172.789 532.901C173.663 532.901 174.439 532.804 175.118 532.608V533.707C174.439 533.902 173.614 534 172.642 534C170 534 168.68 532.689 168.68 530.067C168.68 527.562 169.859 526.31 172.217 526.31ZM170.035 529.415H174.195C174.166 528.067 173.506 527.394 172.217 527.394C170.85 527.394 170.123 528.067 170.035 529.415ZM177.249 533.634V532.462C178.152 532.755 179.065 532.901 179.988 532.901C181.214 532.901 181.827 532.535 181.827 531.803C181.827 531.119 181.399 530.777 180.545 530.777H179.446C177.786 530.777 176.956 530.021 176.956 528.507C176.956 527.042 178.023 526.31 180.157 526.31C181.075 526.31 181.985 526.432 182.889 526.676V527.848C181.985 527.555 181.075 527.408 180.157 527.408C178.877 527.408 178.238 527.774 178.238 528.507C178.238 529.19 178.641 529.532 179.446 529.532H180.545C182.303 529.532 183.182 530.289 183.182 531.803C183.182 533.268 182.117 534 179.988 534C179.065 534 178.152 533.878 177.249 533.634ZM88.8164 543.31C91.0039 543.31 92.0977 544.391 92.0977 546.554C92.0977 546.862 92.0757 547.191 92.0317 547.543H86.6338C86.6338 549.115 87.5518 549.901 89.3877 549.901C90.2617 549.901 91.0381 549.804 91.7168 549.608V550.707C91.0381 550.902 90.2129 551 89.2412 551C86.5996 551 85.2788 549.689 85.2788 547.067C85.2788 544.562 86.458 543.31 88.8164 543.31ZM86.6338 546.415H90.7939C90.7646 545.067 90.1055 544.394 88.8164 544.394C87.4492 544.394 86.7217 545.067 86.6338 546.415ZM92.8228 543.31H94.2876L96.4922 549.337L98.6821 543.31H100.147L97.0195 551H95.7598L92.8228 543.31ZM104.417 543.31C106.604 543.31 107.698 544.391 107.698 546.554C107.698 546.862 107.676 547.191 107.632 547.543H102.234C102.234 549.115 103.152 549.901 104.988 549.901C105.862 549.901 106.639 549.804 107.317 549.608V550.707C106.639 550.902 105.813 551 104.842 551C102.2 551 100.879 549.689 100.879 547.067C100.879 544.562 102.059 543.31 104.417 543.31ZM102.234 546.415H106.395C106.365 545.067 105.706 544.394 104.417 544.394C103.05 544.394 102.322 545.067 102.234 546.415ZM109.522 551V543.31H110.438L110.679 544.291C111.353 543.637 112.164 543.31 113.111 543.31V544.438C112.193 544.438 111.448 544.762 110.877 545.412V551H109.522ZM113.558 543.31H115.03L117.205 549.315L119.454 543.31H120.889L117.696 551.227C117.129 552.624 116.28 553.495 115.147 553.842L114.627 552.882C115.486 552.506 116.111 551.894 116.502 551.044L113.558 543.31ZM130.989 544.877C130.442 544.613 129.817 544.481 129.114 544.481C127.566 544.481 126.792 545.304 126.792 546.95C126.792 548.898 127.566 549.872 129.114 549.872C129.817 549.872 130.442 549.777 130.989 549.586V544.877ZM132.344 550.539C131.412 550.846 130.262 551 128.895 551C126.604 551 125.459 549.667 125.459 547.001C125.459 544.54 126.675 543.31 129.107 543.31C129.771 543.31 130.398 543.432 130.989 543.676V540.526H132.344V550.539ZM134.175 548.678C134.175 547.101 135.215 546.312 137.295 546.312C137.964 546.312 138.633 546.361 139.302 546.459V545.734C139.302 544.85 138.611 544.408 137.229 544.408C136.438 544.408 135.628 544.53 134.798 544.774V543.676C135.628 543.432 136.438 543.31 137.229 543.31C139.515 543.31 140.657 544.105 140.657 545.697V551H139.896L139.427 550.238C138.66 550.746 137.825 551 136.922 551C135.091 551 134.175 550.226 134.175 548.678ZM137.295 547.411C136.119 547.411 135.53 547.826 135.53 548.656C135.53 549.486 135.994 549.901 136.922 549.901C137.859 549.901 138.653 549.652 139.302 549.154V547.558C138.633 547.46 137.964 547.411 137.295 547.411ZM141.946 543.31H143.418L145.594 549.315L147.842 543.31H149.278L146.084 551.227C145.518 552.624 144.668 553.495 143.536 553.842L143.016 552.882C143.875 552.506 144.5 551.894 144.891 551.044L141.946 543.31Z" fill="#655F56"/>
<path d="M42.5859 419V417.535C47.7617 413.974 50.3496 411.142 50.3496 409.039C50.3496 407.281 49.2428 406.402 47.0293 406.402C45.597 406.402 44.2461 406.76 42.9766 407.477V405.914C44.2461 405.263 45.597 404.938 47.0293 404.938C50.4473 404.938 52.1562 406.305 52.1562 409.039C52.1562 411.448 49.8288 414.28 45.1738 417.535H52.1562V419H42.5859ZM55.9746 417.193V419H54.168V417.193H55.9746ZM63.5039 419V405.035H65.3105V411.188H73.5625V405.035H75.3691V419H73.5625V412.652H65.3105V419H63.5039ZM78.0156 415.904C78.0156 413.801 79.4023 412.75 82.1758 412.75C83.0677 412.75 83.9596 412.815 84.8516 412.945V411.979C84.8516 410.8 83.9303 410.211 82.0879 410.211C81.0332 410.211 79.9525 410.374 78.8457 410.699V409.234C79.9525 408.909 81.0332 408.746 82.0879 408.746C85.1348 408.746 86.6582 409.807 86.6582 411.93V419H85.6426L85.0176 417.984C83.9954 418.661 82.8822 419 81.6777 419C79.2363 419 78.0156 417.968 78.0156 415.904ZM82.1758 414.215C80.6068 414.215 79.8223 414.768 79.8223 415.875C79.8223 416.982 80.4408 417.535 81.6777 417.535C82.9277 417.535 83.9857 417.203 84.8516 416.539V414.41C83.9596 414.28 83.0677 414.215 82.1758 414.215ZM91.4043 417.213C91.9967 417.402 92.7161 417.496 93.5625 417.496C95.8411 417.496 96.9805 416.197 96.9805 413.6C96.9805 411.406 95.9486 410.309 93.8848 410.309C92.9473 410.309 92.1204 410.484 91.4043 410.836V417.213ZM89.5977 405.035H91.4043V409.234C92.179 408.909 93.0091 408.746 93.8945 408.746C97.1367 408.746 98.7578 410.387 98.7578 413.668C98.7578 417.223 97.0553 419 93.6504 419C92.179 419 90.8281 418.86 89.5977 418.58V405.035ZM103.201 408.746V419H101.395V408.746H103.201ZM103.201 405.035V406.744H101.395V405.035H103.201ZM106.336 407.086H107.469L107.859 408.746H110.633V410.211H108.143V416.1C108.143 417.057 108.556 417.535 109.383 417.535H110.633V419H108.914C107.195 419 106.336 418.079 106.336 416.236V407.086ZM118.016 419V405.035H119.822L128.367 416.285V405.035H130.076V419H128.27L119.725 407.652V419H118.016ZM132.723 415.904C132.723 413.801 134.109 412.75 136.883 412.75C137.775 412.75 138.667 412.815 139.559 412.945V411.979C139.559 410.8 138.637 410.211 136.795 410.211C135.74 410.211 134.66 410.374 133.553 410.699V409.234C134.66 408.909 135.74 408.746 136.795 408.746C139.842 408.746 141.365 409.807 141.365 411.93V419H140.35L139.725 417.984C138.702 418.661 137.589 419 136.385 419C133.943 419 132.723 417.968 132.723 415.904ZM136.883 414.215C135.314 414.215 134.529 414.768 134.529 415.875C134.529 416.982 135.148 417.535 136.385 417.535C137.635 417.535 138.693 417.203 139.559 416.539V414.41C138.667 414.28 137.775 414.215 136.883 414.215ZM144.305 419V408.746H145.525L145.828 410.035C146.811 409.176 147.882 408.746 149.041 408.746C150.525 408.746 151.538 409.215 152.078 410.152C153.191 409.215 154.321 408.746 155.467 408.746C157.824 408.746 159.002 410.045 159.002 412.643V419H157.195V412.545C157.195 411.015 156.551 410.25 155.262 410.25C154.298 410.25 153.396 410.693 152.557 411.578V419H150.75V412.574C150.75 411.025 150.112 410.25 148.836 410.25C147.82 410.25 146.912 410.693 146.111 411.578V419H144.305ZM166.17 408.746C169.087 408.746 170.545 410.188 170.545 413.072C170.545 413.482 170.516 413.922 170.457 414.391H163.26C163.26 416.487 164.484 417.535 166.932 417.535C168.097 417.535 169.132 417.405 170.037 417.145V418.609C169.132 418.87 168.032 419 166.736 419C163.214 419 161.453 417.252 161.453 413.756C161.453 410.416 163.025 408.746 166.17 408.746ZM163.26 412.887H168.807C168.768 411.09 167.889 410.191 166.17 410.191C164.347 410.191 163.377 411.09 163.26 412.887Z" fill="#655F56"/>
<g filter="url(#filter3_d_4030_5589)">
<rect x="42" y="429.503" width="310" height="40.0469" rx="5" fill="#E8E2D6"/>
<path d="M53.8198 444.03V454.503H52.4648V444.03H53.8198ZM56.3906 454.503V446.813H57.3062L57.5479 447.794C58.334 447.14 59.1982 446.813 60.1406 446.813C62.0596 446.813 63.019 447.768 63.019 449.677V454.503H61.6641V449.655C61.6641 448.512 61.0952 447.941 59.9575 447.941C59.1812 447.941 58.4438 448.266 57.7456 448.915V454.503H56.3906ZM66.5786 452.936C67.1108 453.2 67.7041 453.332 68.3584 453.332C69.9551 453.332 70.7534 452.372 70.7534 450.453C70.7534 448.778 69.96 447.941 68.373 447.941C67.6895 447.941 67.0913 448 66.5786 448.117V452.936ZM65.2236 447.128C66.2441 446.918 67.2988 446.813 68.3877 446.813C70.8535 446.813 72.0864 448.031 72.0864 450.468C72.0864 453.158 70.8462 454.503 68.3657 454.503C67.7505 454.503 67.1548 454.381 66.5786 454.137V457.287H65.2236V447.128ZM80.5532 446.813V454.503H79.623L79.3887 453.522C78.4561 454.176 77.5186 454.503 76.5762 454.503C74.8086 454.503 73.9248 453.549 73.9248 451.64V446.813H75.2798V451.662C75.2798 452.804 75.8462 453.375 76.979 453.375C77.7554 453.375 78.4951 453.051 79.1982 452.401V446.813H80.5532ZM82.7578 445.568H83.6074L83.9004 446.813H85.9805V447.912H84.1128V452.328C84.1128 453.046 84.4229 453.405 85.043 453.405H85.9805V454.503H84.6914C83.4023 454.503 82.7578 453.812 82.7578 452.431V445.568ZM91.5176 454.503V444.03H92.8726V448.644H99.0615V444.03H100.417V454.503H99.0615V449.743H92.8726V454.503H91.5176ZM102.401 452.182C102.401 450.604 103.441 449.816 105.521 449.816C106.19 449.816 106.859 449.865 107.528 449.962V449.237C107.528 448.354 106.837 447.912 105.456 447.912C104.665 447.912 103.854 448.034 103.024 448.278V447.179C103.854 446.935 104.665 446.813 105.456 446.813C107.741 446.813 108.883 447.609 108.883 449.201V454.503H108.122L107.653 453.742C106.886 454.25 106.051 454.503 105.148 454.503C103.317 454.503 102.401 453.729 102.401 452.182ZM105.521 450.915C104.345 450.915 103.756 451.33 103.756 452.16C103.756 452.99 104.22 453.405 105.148 453.405C106.085 453.405 106.879 453.156 107.528 452.658V451.061C106.859 450.963 106.19 450.915 105.521 450.915ZM112.443 453.163C112.887 453.305 113.427 453.375 114.062 453.375C115.771 453.375 116.625 452.401 116.625 450.453C116.625 448.808 115.851 447.985 114.303 447.985C113.6 447.985 112.98 448.117 112.443 448.38V453.163ZM111.088 444.03H112.443V447.179C113.024 446.935 113.646 446.813 114.311 446.813C116.742 446.813 117.958 448.043 117.958 450.504C117.958 453.17 116.681 454.503 114.127 454.503C113.024 454.503 112.011 454.398 111.088 454.188V444.03ZM121.291 446.813V454.503H119.936V446.813H121.291ZM121.291 444.03V445.312H119.936V444.03H121.291ZM123.642 445.568H124.491L124.784 446.813H126.864V447.912H124.997V452.328C124.997 453.046 125.307 453.405 125.927 453.405H126.864V454.503H125.575C124.286 454.503 123.642 453.812 123.642 452.431V445.568ZM132.401 454.503V444.03H133.756L140.165 452.467V444.03H141.447V454.503H140.092L133.683 445.993V454.503H132.401ZM143.432 452.182C143.432 450.604 144.472 449.816 146.552 449.816C147.221 449.816 147.89 449.865 148.559 449.962V449.237C148.559 448.354 147.868 447.912 146.486 447.912C145.695 447.912 144.884 448.034 144.054 448.278V447.179C144.884 446.935 145.695 446.813 146.486 446.813C148.771 446.813 149.914 447.609 149.914 449.201V454.503H149.152L148.683 453.742C147.917 454.25 147.082 454.503 146.178 454.503C144.347 454.503 143.432 453.729 143.432 452.182ZM146.552 450.915C145.375 450.915 144.787 451.33 144.787 452.16C144.787 452.99 145.25 453.405 146.178 453.405C147.116 453.405 147.909 453.156 148.559 452.658V451.061C147.89 450.963 147.221 450.915 146.552 450.915ZM152.118 454.503V446.813H153.034L153.261 447.78C153.998 447.135 154.801 446.813 155.67 446.813C156.784 446.813 157.543 447.165 157.948 447.868C158.783 447.165 159.63 446.813 160.49 446.813C162.257 446.813 163.141 447.787 163.141 449.735V454.503H161.786V449.662C161.786 448.515 161.303 447.941 160.336 447.941C159.613 447.941 158.937 448.273 158.307 448.937V454.503H156.952V449.684C156.952 448.522 156.474 447.941 155.517 447.941C154.755 447.941 154.074 448.273 153.473 448.937V454.503H152.118ZM168.517 446.813C170.705 446.813 171.798 447.895 171.798 450.058C171.798 450.365 171.776 450.695 171.732 451.046H166.334C166.334 452.619 167.252 453.405 169.088 453.405C169.962 453.405 170.739 453.307 171.417 453.112V454.21C170.739 454.406 169.914 454.503 168.942 454.503C166.3 454.503 164.979 453.192 164.979 450.57C164.979 448.065 166.159 446.813 168.517 446.813ZM166.334 449.918H170.495C170.465 448.571 169.806 447.897 168.517 447.897C167.15 447.897 166.422 448.571 166.334 449.918Z" fill="#655F56"/>
</g>
<path d="M44.4414 282V269.783H42.9766V268.914L46.248 267.938V282H44.4414ZM51.0918 280.193V282H49.2852V280.193H51.0918ZM57.4492 268.035H59.1973L61.1602 280.184L65.1055 268.035H66.9121L71.1406 280.184L73.3574 268.035H75.0273L72.4004 282H69.9395L65.9941 270.301L62.1758 282H59.7441L57.4492 268.035ZM76.9805 282V268.035H78.7871V272.859C79.6595 272.117 80.724 271.746 81.9805 271.746C84.5391 271.746 85.8184 273.019 85.8184 275.564V282H84.0117V275.535C84.0117 274.012 83.2533 273.25 81.7363 273.25C80.7012 273.25 79.7181 273.683 78.7871 274.549V282H76.9805ZM88.2695 278.904C88.2695 276.801 89.6562 275.75 92.4297 275.75C93.3216 275.75 94.2135 275.815 95.1055 275.945V274.979C95.1055 273.8 94.1842 273.211 92.3418 273.211C91.2871 273.211 90.2064 273.374 89.0996 273.699V272.234C90.2064 271.909 91.2871 271.746 92.3418 271.746C95.3887 271.746 96.9121 272.807 96.9121 274.93V282H95.8965L95.2715 280.984C94.2493 281.661 93.1361 282 91.9316 282C89.4902 282 88.2695 280.968 88.2695 278.904ZM92.4297 277.215C90.8607 277.215 90.0762 277.768 90.0762 278.875C90.0762 279.982 90.6947 280.535 91.9316 280.535C93.1816 280.535 94.2396 280.203 95.1055 279.539V277.41C94.2135 277.28 93.3216 277.215 92.4297 277.215ZM99.8516 270.086H100.984L101.375 271.746H104.148V273.211H101.658V279.1C101.658 280.057 102.072 280.535 102.898 280.535H104.148V282H102.43C100.711 282 99.8516 281.079 99.8516 279.236V270.086ZM111.336 282V268.035H113.143V272.547C114.139 272.013 115.288 271.746 116.59 271.746C119.142 271.746 120.418 272.732 120.418 274.705C120.418 276.137 119.441 277.127 117.488 277.674L120.77 282H118.484L115.223 277.654V276.844C117.482 276.642 118.611 275.926 118.611 274.695C118.611 273.706 117.895 273.211 116.463 273.211C115.337 273.211 114.23 273.517 113.143 274.129V282H111.336ZM124.881 271.746V282H123.074V271.746H124.881ZM124.881 268.035V269.744H123.074V268.035H124.881ZM128.016 282V271.746H129.236L129.559 273.055C130.607 272.182 131.759 271.746 133.016 271.746C135.574 271.746 136.854 273.019 136.854 275.564V282H135.047V275.535C135.047 274.012 134.288 273.25 132.771 273.25C131.736 273.25 130.753 273.683 129.822 274.549V282H128.016ZM146.678 273.836C145.949 273.484 145.115 273.309 144.178 273.309C142.114 273.309 141.082 274.406 141.082 276.6C141.082 279.197 142.114 280.496 144.178 280.496C145.115 280.496 145.949 280.369 146.678 280.115V273.836ZM148.484 281.385C147.241 281.795 145.708 282 143.885 282C140.831 282 139.305 280.223 139.305 276.668C139.305 273.387 140.926 271.746 144.168 271.746C145.053 271.746 145.89 271.909 146.678 272.234V268.035H148.484V281.385ZM157.615 276.834C157.615 279.301 158.641 280.535 160.691 280.535C162.742 280.535 163.768 279.301 163.768 276.834C163.768 274.419 162.742 273.211 160.691 273.211C158.641 273.211 157.615 274.419 157.615 276.834ZM155.809 276.873C155.809 273.455 157.436 271.746 160.691 271.746C163.947 271.746 165.574 273.455 165.574 276.873C165.574 280.285 163.947 281.99 160.691 281.99C157.449 281.99 155.822 280.285 155.809 276.873ZM168.016 282V271.248C168.016 268.768 169.422 267.527 172.234 267.527C173.009 267.527 173.738 267.658 174.422 267.918V269.383C173.777 269.122 173.045 268.992 172.225 268.992C170.623 268.992 169.822 269.718 169.822 271.17V271.746H172.996V273.211H169.822V282H168.016ZM179.852 282V268.035H181.658V272.859C182.531 272.117 183.595 271.746 184.852 271.746C187.41 271.746 188.689 273.019 188.689 275.564V282H186.883V275.535C186.883 274.012 186.124 273.25 184.607 273.25C183.572 273.25 182.589 273.683 181.658 274.549V282H179.852ZM191.141 278.904C191.141 276.801 192.527 275.75 195.301 275.75C196.193 275.75 197.085 275.815 197.977 275.945V274.979C197.977 273.8 197.055 273.211 195.213 273.211C194.158 273.211 193.077 273.374 191.971 273.699V272.234C193.077 271.909 194.158 271.746 195.213 271.746C198.26 271.746 199.783 272.807 199.783 274.93V282H198.768L198.143 280.984C197.12 281.661 196.007 282 194.803 282C192.361 282 191.141 280.968 191.141 278.904ZM195.301 277.215C193.732 277.215 192.947 277.768 192.947 278.875C192.947 279.982 193.566 280.535 194.803 280.535C196.053 280.535 197.111 280.203 197.977 279.539V277.41C197.085 277.28 196.193 277.215 195.301 277.215ZM204.529 280.213C205.122 280.402 205.841 280.496 206.688 280.496C208.966 280.496 210.105 279.197 210.105 276.6C210.105 274.406 209.074 273.309 207.01 273.309C206.072 273.309 205.245 273.484 204.529 273.836V280.213ZM202.723 268.035H204.529V272.234C205.304 271.909 206.134 271.746 207.02 271.746C210.262 271.746 211.883 273.387 211.883 276.668C211.883 280.223 210.18 282 206.775 282C205.304 282 203.953 281.86 202.723 281.58V268.035ZM216.326 271.746V282H214.52V271.746H216.326ZM216.326 268.035V269.744H214.52V268.035H216.326ZM219.461 270.086H220.594L220.984 271.746H223.758V273.211H221.268V279.1C221.268 280.057 221.681 280.535 222.508 280.535H223.758V282H222.039C220.32 282 219.461 281.079 219.461 279.236V270.086ZM237.83 273.836C237.101 273.484 236.268 273.309 235.33 273.309C233.266 273.309 232.234 274.406 232.234 276.6C232.234 279.197 233.266 280.496 235.33 280.496C236.268 280.496 237.101 280.369 237.83 280.115V273.836ZM239.637 281.385C238.393 281.795 236.86 282 235.037 282C231.984 282 230.457 280.223 230.457 276.668C230.457 273.387 232.078 271.746 235.32 271.746C236.206 271.746 237.042 271.909 237.83 272.234V268.035H239.637V281.385ZM243.885 276.834C243.885 279.301 244.91 280.535 246.961 280.535C249.012 280.535 250.037 279.301 250.037 276.834C250.037 274.419 249.012 273.211 246.961 273.211C244.91 273.211 243.885 274.419 243.885 276.834ZM242.078 276.873C242.078 273.455 243.706 271.746 246.961 271.746C250.216 271.746 251.844 273.455 251.844 276.873C251.844 280.285 250.216 281.99 246.961 281.99C243.719 281.99 242.091 280.285 242.078 276.873ZM257.947 271.746H259.91L262.811 279.754L265.809 271.746H267.723L263.465 282.303C262.71 284.165 261.577 285.327 260.066 285.789L259.373 284.51C260.519 284.008 261.352 283.191 261.873 282.059L257.947 271.746ZM270.74 276.834C270.74 279.301 271.766 280.535 273.816 280.535C275.867 280.535 276.893 279.301 276.893 276.834C276.893 274.419 275.867 273.211 273.816 273.211C271.766 273.211 270.74 274.419 270.74 276.834ZM268.934 276.873C268.934 273.455 270.561 271.746 273.816 271.746C277.072 271.746 278.699 273.455 278.699 276.873C278.699 280.285 277.072 281.99 273.816 281.99C270.574 281.99 268.947 280.285 268.934 276.873ZM289.979 271.746V282H288.738L288.426 280.691C287.182 281.564 285.932 282 284.676 282C282.319 282 281.141 280.727 281.141 278.182V271.746H282.947V278.211C282.947 279.734 283.702 280.496 285.213 280.496C286.248 280.496 287.234 280.063 288.172 279.197V271.746H289.979ZM42.3418 293.746H44.168L45.9844 301.783L48.6504 293.746H50.2812L53.1328 301.783L54.7734 293.746H56.6875L54.0117 304H52.3613L49.4219 296.334L46.6289 304H44.9395L42.3418 293.746ZM58.0156 300.904C58.0156 298.801 59.4023 297.75 62.1758 297.75C63.0677 297.75 63.9596 297.815 64.8516 297.945V296.979C64.8516 295.8 63.9303 295.211 62.0879 295.211C61.0332 295.211 59.9525 295.374 58.8457 295.699V294.234C59.9525 293.909 61.0332 293.746 62.0879 293.746C65.1348 293.746 66.6582 294.807 66.6582 296.93V304H65.6426L65.0176 302.984C63.9954 303.661 62.8822 304 61.6777 304C59.2363 304 58.0156 302.968 58.0156 300.904ZM62.1758 299.215C60.6068 299.215 59.8223 299.768 59.8223 300.875C59.8223 301.982 60.4408 302.535 61.6777 302.535C62.9277 302.535 63.9857 302.203 64.8516 301.539V299.41C63.9596 299.28 63.0677 299.215 62.1758 299.215ZM69.5977 304V293.746H70.8184L71.1406 295.055C72.1888 294.182 73.3411 293.746 74.5977 293.746C77.1562 293.746 78.4355 295.019 78.4355 297.564V304H76.6289V297.535C76.6289 296.012 75.8704 295.25 74.3535 295.25C73.3184 295.25 72.3353 295.683 71.4043 296.549V304H69.5977ZM81.375 292.086H82.5078L82.8984 293.746H85.6719V295.211H83.1816V301.1C83.1816 302.057 83.5951 302.535 84.4219 302.535H85.6719V304H83.9531C82.2344 304 81.375 303.079 81.375 301.236V292.086ZM92.8594 292.086H93.9922L94.3828 293.746H97.1562V295.211H94.666V301.1C94.666 302.057 95.0794 302.535 95.9062 302.535H97.1562V304H95.4375C93.7188 304 92.8594 303.079 92.8594 301.236V292.086ZM100.779 298.834C100.779 301.301 101.805 302.535 103.855 302.535C105.906 302.535 106.932 301.301 106.932 298.834C106.932 296.419 105.906 295.211 103.855 295.211C101.805 295.211 100.779 296.419 100.779 298.834ZM98.9727 298.873C98.9727 295.455 100.6 293.746 103.855 293.746C107.111 293.746 108.738 295.455 108.738 298.873C108.738 302.285 107.111 303.99 103.855 303.99C100.613 303.99 98.9857 302.285 98.9727 298.873ZM123.777 303.707C122.931 303.902 122.02 304 121.043 304C117.397 304 115.574 302.226 115.574 298.678C115.574 295.39 117.397 293.746 121.043 293.746C122.02 293.746 122.931 293.844 123.777 294.039V295.504C122.931 295.309 121.987 295.211 120.945 295.211C118.569 295.211 117.381 296.367 117.381 298.678C117.381 301.249 118.569 302.535 120.945 302.535C121.987 302.535 122.931 302.438 123.777 302.242V303.707ZM126.082 304V293.746H127.303L127.625 295.055C128.523 294.182 129.604 293.746 130.867 293.746V295.25C129.643 295.25 128.65 295.683 127.889 296.549V304H126.082ZM136.912 293.746C139.829 293.746 141.287 295.188 141.287 298.072C141.287 298.482 141.258 298.922 141.199 299.391H134.002C134.002 301.487 135.226 302.535 137.674 302.535C138.839 302.535 139.874 302.405 140.779 302.145V303.609C139.874 303.87 138.774 304 137.479 304C133.956 304 132.195 302.252 132.195 298.756C132.195 295.416 133.768 293.746 136.912 293.746ZM134.002 297.887H139.549C139.51 296.09 138.631 295.191 136.912 295.191C135.089 295.191 134.119 296.09 134.002 297.887ZM143.23 300.904C143.23 298.801 144.617 297.75 147.391 297.75C148.283 297.75 149.174 297.815 150.066 297.945V296.979C150.066 295.8 149.145 295.211 147.303 295.211C146.248 295.211 145.167 295.374 144.061 295.699V294.234C145.167 293.909 146.248 293.746 147.303 293.746C150.35 293.746 151.873 294.807 151.873 296.93V304H150.857L150.232 302.984C149.21 303.661 148.097 304 146.893 304C144.451 304 143.23 302.968 143.23 300.904ZM147.391 299.215C145.822 299.215 145.037 299.768 145.037 300.875C145.037 301.982 145.656 302.535 146.893 302.535C148.143 302.535 149.201 302.203 150.066 301.539V299.41C149.174 299.28 148.283 299.215 147.391 299.215ZM154.812 292.086H155.945L156.336 293.746H159.109V295.211H156.619V301.1C156.619 302.057 157.033 302.535 157.859 302.535H159.109V304H157.391C155.672 304 154.812 303.079 154.812 301.236V292.086ZM165.643 293.746C168.559 293.746 170.018 295.188 170.018 298.072C170.018 298.482 169.988 298.922 169.93 299.391H162.732C162.732 301.487 163.956 302.535 166.404 302.535C167.57 302.535 168.605 302.405 169.51 302.145V303.609C168.605 303.87 167.505 304 166.209 304C162.687 304 160.926 302.252 160.926 298.756C160.926 295.416 162.498 293.746 165.643 293.746ZM162.732 297.887H168.279C168.24 296.09 167.361 295.191 165.643 295.191C163.82 295.191 162.85 296.09 162.732 297.887ZM175.232 302.193V304H173.426V302.193H175.232ZM171.961 290.523C173.328 290.198 174.63 290.035 175.867 290.035C179.22 290.035 180.896 291.305 180.896 293.844C180.896 296.383 179.279 297.652 176.043 297.652H175.232V300.387H173.426V296.188H176.014C178.064 296.188 179.09 295.406 179.09 293.844C179.09 292.281 178.016 291.5 175.867 291.5C174.63 291.5 173.328 291.663 171.961 291.988V290.523Z" fill="#655F56"/>
<g filter="url(#filter4_d_4030_5589)">
<rect x="42" y="315" width="310" height="70" rx="5" fill="#E8E2D6"/>
<path d="M54.8198 344.929V355.403H53.4648V344.929H54.8198ZM57.3906 355.403V347.713H58.3062L58.5479 348.694C59.334 348.04 60.1982 347.713 61.1406 347.713C63.0596 347.713 64.019 348.667 64.019 350.576V355.403H62.6641V350.554C62.6641 349.412 62.0952 348.841 60.9575 348.841C60.1812 348.841 59.4438 349.165 58.7456 349.815V355.403H57.3906ZM67.5786 353.836C68.1108 354.099 68.7041 354.231 69.3584 354.231C70.9551 354.231 71.7534 353.272 71.7534 351.353C71.7534 349.678 70.96 348.841 69.373 348.841C68.6895 348.841 68.0913 348.899 67.5786 349.016V353.836ZM66.2236 348.028C67.2441 347.818 68.2988 347.713 69.3877 347.713C71.8535 347.713 73.0864 348.931 73.0864 351.367C73.0864 354.058 71.8462 355.403 69.3657 355.403C68.7505 355.403 68.1548 355.281 67.5786 355.037V358.186H66.2236V348.028ZM81.5532 347.713V355.403H80.623L80.3887 354.422C79.4561 355.076 78.5186 355.403 77.5762 355.403C75.8086 355.403 74.9248 354.448 74.9248 352.539V347.713H76.2798V352.561C76.2798 353.704 76.8462 354.275 77.979 354.275C78.7554 354.275 79.4951 353.95 80.1982 353.301V347.713H81.5532ZM83.7578 346.468H84.6074L84.9004 347.713H86.9805V348.811H85.1128V353.228C85.1128 353.946 85.4229 354.304 86.043 354.304H86.9805V355.403H85.6914C84.4023 355.403 83.7578 354.712 83.7578 353.33V346.468ZM92.5176 355.403V344.929H93.8726V349.544H100.062V344.929H101.417V355.403H100.062V350.642H93.8726V355.403H92.5176ZM103.401 353.081C103.401 351.504 104.441 350.716 106.521 350.716C107.19 350.716 107.859 350.764 108.528 350.862V350.137C108.528 349.253 107.837 348.811 106.456 348.811C105.665 348.811 104.854 348.933 104.024 349.177V348.079C104.854 347.835 105.665 347.713 106.456 347.713C108.741 347.713 109.883 348.509 109.883 350.1V355.403H109.122L108.653 354.641C107.886 355.149 107.051 355.403 106.148 355.403C104.317 355.403 103.401 354.629 103.401 353.081ZM106.521 351.814C105.345 351.814 104.756 352.229 104.756 353.059C104.756 353.889 105.22 354.304 106.148 354.304C107.085 354.304 107.879 354.055 108.528 353.557V351.961C107.859 351.863 107.19 351.814 106.521 351.814ZM113.443 354.063C113.887 354.204 114.427 354.275 115.062 354.275C116.771 354.275 117.625 353.301 117.625 351.353C117.625 349.707 116.851 348.885 115.303 348.885C114.6 348.885 113.98 349.016 113.443 349.28V354.063ZM112.088 344.929H113.443V348.079C114.024 347.835 114.646 347.713 115.311 347.713C117.742 347.713 118.958 348.943 118.958 351.404C118.958 354.07 117.681 355.403 115.127 355.403C114.024 355.403 113.011 355.298 112.088 355.088V344.929ZM122.291 347.713V355.403H120.936V347.713H122.291ZM122.291 344.929V346.211H120.936V344.929H122.291ZM124.642 346.468H125.491L125.784 347.713H127.864V348.811H125.997V353.228C125.997 353.946 126.307 354.304 126.927 354.304H127.864V355.403H126.575C125.286 355.403 124.642 354.712 124.642 353.33V346.468ZM133.401 355.403V344.929H134.756V349.544H140.945V344.929H142.3V355.403H140.945V350.642H134.756V355.403H133.401ZM147.823 347.713C150.01 347.713 151.104 348.794 151.104 350.957C151.104 351.265 151.082 351.594 151.038 351.946H145.64C145.64 353.518 146.558 354.304 148.394 354.304C149.268 354.304 150.044 354.207 150.723 354.011V355.11C150.044 355.305 149.219 355.403 148.248 355.403C145.606 355.403 144.285 354.092 144.285 351.47C144.285 348.965 145.464 347.713 147.823 347.713ZM145.64 350.818H149.8C149.771 349.47 149.112 348.797 147.823 348.797C146.456 348.797 145.728 349.47 145.64 350.818ZM152.928 355.403V347.713H153.843L154.085 348.694C154.759 348.04 155.569 347.713 156.517 347.713V348.841C155.599 348.841 154.854 349.165 154.283 349.815V355.403H152.928ZM161.05 347.713C163.238 347.713 164.332 348.794 164.332 350.957C164.332 351.265 164.31 351.594 164.266 351.946H158.868C158.868 353.518 159.786 354.304 161.622 354.304C162.496 354.304 163.272 354.207 163.951 354.011V355.11C163.272 355.305 162.447 355.403 161.475 355.403C158.833 355.403 157.513 354.092 157.513 351.47C157.513 348.965 158.692 347.713 161.05 347.713ZM158.868 350.818H163.028C162.999 349.47 162.339 348.797 161.05 348.797C159.683 348.797 158.956 349.47 158.868 350.818Z" fill="#655F56"/>
</g>
<circle cx="47.5" cy="190.5" r="21.5" fill="#FFFEFD"/>
<path d="M39.2329 203V200.437C48.2905 194.204 52.8193 189.248 52.8193 185.568C52.8193 182.492 50.8825 180.954 47.0088 180.954C44.5023 180.954 42.1382 181.581 39.9165 182.834V180.1C42.1382 178.96 44.5023 178.391 47.0088 178.391C52.9902 178.391 55.981 180.783 55.981 185.568C55.981 189.784 51.9079 194.74 43.7617 200.437H55.981V203H39.2329Z" fill="#3D3B38"/>
<path d="M78.9053 203V178.562H89.3301C93.9785 178.562 96.3027 180.458 96.3027 184.252C96.3027 187.032 94.7874 189.021 91.7568 190.217C94.9925 190.821 96.6104 192.672 96.6104 195.771C96.6104 200.59 94.064 203 88.9712 203H78.9053ZM88.7832 200.437C91.6999 200.437 93.1582 198.955 93.1582 195.993C93.1582 193.111 91.2043 191.669 87.2964 191.669H85.9292V189.602C90.6004 188.975 92.936 187.289 92.936 184.543C92.936 182.264 91.6372 181.125 89.0396 181.125H82.0669V200.437H88.7832ZM116.759 185.056V203H114.589L114.042 200.71C111.866 202.237 109.678 203 107.479 203C103.355 203 101.293 200.773 101.293 196.318V185.056H104.455V196.369C104.455 199.035 105.776 200.368 108.419 200.368C110.231 200.368 111.957 199.611 113.598 198.095V185.056H116.759ZM125.407 185.056V203H122.245V185.056H125.407ZM125.407 178.562V181.552H122.245V178.562H125.407ZM134.225 178.562V203H131.063V178.562H134.225ZM151.588 188.713C150.312 188.098 148.854 187.79 147.213 187.79C143.602 187.79 141.796 189.71 141.796 193.549C141.796 198.095 143.602 200.368 147.213 200.368C148.854 200.368 150.312 200.146 151.588 199.702V188.713ZM154.75 201.923C152.574 202.641 149.891 203 146.701 203C141.357 203 138.686 199.89 138.686 193.669C138.686 187.927 141.522 185.056 147.196 185.056C148.746 185.056 150.21 185.34 151.588 185.91V178.562H154.75V201.923ZM167.567 197.583C167.567 193.903 169.994 192.062 174.848 192.062C176.409 192.062 177.969 192.176 179.53 192.404V190.712C179.53 188.65 177.918 187.619 174.694 187.619C172.848 187.619 170.957 187.904 169.02 188.474V185.91C170.957 185.34 172.848 185.056 174.694 185.056C180.026 185.056 182.692 186.913 182.692 190.627V203H180.915L179.821 201.223C178.032 202.408 176.084 203 173.976 203C169.704 203 167.567 201.194 167.567 197.583ZM174.848 194.626C172.102 194.626 170.729 195.594 170.729 197.531C170.729 199.468 171.811 200.437 173.976 200.437C176.164 200.437 178.015 199.855 179.53 198.693V194.968C177.969 194.74 176.409 194.626 174.848 194.626ZM196.723 203V178.562H199.884L214.838 198.249V178.562H217.829V203H214.667L199.713 183.142V203H196.723ZM230.714 185.056C235.819 185.056 238.371 187.579 238.371 192.626C238.371 193.344 238.319 194.113 238.217 194.934H225.622C225.622 198.602 227.764 200.437 232.047 200.437C234.087 200.437 235.898 200.209 237.482 199.753V202.316C235.898 202.772 233.973 203 231.706 203C225.542 203 222.46 199.941 222.46 193.823C222.46 187.978 225.211 185.056 230.714 185.056ZM225.622 192.302H235.329C235.26 189.157 233.722 187.585 230.714 187.585C227.524 187.585 225.827 189.157 225.622 192.302ZM240.661 185.056H243.856L247.035 199.121L251.701 185.056H254.555L259.545 199.121L262.416 185.056H265.766L261.083 203H258.195L253.051 189.584L248.163 203H245.207L240.661 185.056ZM277.831 203V178.562H280.993V189.328H295.434V178.562H298.595V203H295.434V191.892H280.993V203H277.831ZM303.227 197.583C303.227 193.903 305.653 192.062 310.507 192.062C312.068 192.062 313.629 192.176 315.189 192.404V190.712C315.189 188.65 313.577 187.619 310.353 187.619C308.507 187.619 306.616 187.904 304.679 188.474V185.91C306.616 185.34 308.507 185.056 310.353 185.056C315.685 185.056 318.351 186.913 318.351 190.627V203H316.574L315.48 201.223C313.691 202.408 311.743 203 309.635 203C305.363 203 303.227 201.194 303.227 197.583ZM310.507 194.626C307.761 194.626 306.388 195.594 306.388 197.531C306.388 199.468 307.471 200.437 309.635 200.437C311.823 200.437 313.674 199.855 315.189 198.693V194.968C313.629 194.74 312.068 194.626 310.507 194.626ZM326.657 199.873C327.694 200.203 328.952 200.368 330.434 200.368C334.421 200.368 336.415 198.095 336.415 193.549C336.415 189.71 334.609 187.79 330.998 187.79C329.357 187.79 327.91 188.098 326.657 188.713V199.873ZM323.495 178.562H326.657V185.91C328.013 185.34 329.465 185.056 331.015 185.056C336.688 185.056 339.525 187.927 339.525 193.669C339.525 199.89 336.546 203 330.587 203C328.013 203 325.648 202.755 323.495 202.265V178.562ZM347.301 185.056V203H344.14V185.056H347.301ZM347.301 178.562V181.552H344.14V178.562H347.301ZM352.787 182.15H354.77L355.453 185.056H360.307V187.619H355.949V197.924C355.949 199.599 356.672 200.437 358.119 200.437H360.307V203H357.299C354.291 203 352.787 201.388 352.787 198.164V182.15Z" fill="#3D3B38"/>
<g filter="url(#filter5_d_4030_5589)">
<rect width="393" height="144" transform="translate(0 1)" fill="white"/>
<path d="M49.6654 96.9999H26.332M37.9987 85.3333L26.332 96.9999L37.9987 108.667" stroke="#3D3B38" stroke-width="2" stroke-linecap="round" stroke-linejoin="round"/>
<path d="M89.71 111V86.5615H101.16C105.809 86.5615 108.133 88.4585 108.133 92.2524C108.133 95.0324 106.618 97.0205 103.587 98.2168C106.823 98.8206 108.44 100.672 108.44 103.771C108.44 108.59 105.894 111 100.801 111H89.71ZM100.613 107.069C102.618 107.069 103.621 106.044 103.621 103.993C103.621 101.452 102.123 100.182 99.1265 100.182H97.7593V97.2598C101.519 96.6331 103.399 95.0609 103.399 92.543C103.399 91.1758 102.556 90.4922 100.87 90.4922H94.2388V107.069H100.613ZM128.025 93.0557V111H124.488L123.941 108.71C121.879 110.237 119.691 111 117.378 111C113.71 111 111.875 108.83 111.875 104.489V93.0557H116.404V104.369C116.404 106.352 117.27 107.343 119.002 107.343C120.472 107.343 121.97 106.756 123.497 105.583V93.0557H128.025ZM136.844 86.5615V90.1504H132.315V86.5615H136.844ZM136.844 93.0557V111H132.315V93.0557H136.844ZM145.662 86.5615V111H141.133V86.5615H145.662ZM161.316 97.7383C160.382 97.123 159.209 96.8154 157.796 96.8154C154.982 96.8154 153.575 98.3934 153.575 101.549C153.575 105.298 155.039 107.172 157.967 107.172C159.152 107.172 160.268 107.007 161.316 106.676V97.7383ZM165.845 109.923C163.099 110.641 160.416 111 157.796 111C151.997 111 149.097 107.89 149.097 101.669C149.097 95.9268 151.934 93.0557 157.608 93.0557C158.816 93.0557 160.052 93.3405 161.316 93.9102V86.5615H165.845V109.923ZM174.646 86.5615V90.1504H170.118V86.5615H174.646ZM174.646 93.0557V111H170.118V93.0557H174.646ZM178.936 111V93.0557H182.439L183.003 95.6875C184.724 93.9329 186.683 93.0557 188.882 93.0557C193.132 93.0557 195.257 95.266 195.257 99.6865V111H190.728V99.6865C190.728 97.7041 189.743 96.7129 187.771 96.7129C186.302 96.7129 184.866 97.2996 183.465 98.4731V111H178.936ZM211.031 97.123C210.29 96.8496 209.236 96.7129 207.869 96.7129C204.736 96.7129 203.169 98.439 203.169 101.891C203.169 105.229 204.52 106.898 207.22 106.898C208.519 106.898 209.789 106.591 211.031 105.976V97.123ZM215.56 109.633C215.56 114.874 212.409 117.494 206.109 117.494C203.899 117.494 201.939 117.209 200.23 116.64V113.051C201.973 113.62 203.944 113.905 206.143 113.905C209.402 113.905 211.031 112.538 211.031 109.804C209.686 110.373 208.239 110.658 206.69 110.658C201.358 110.658 198.692 107.747 198.692 101.925C198.692 96.0122 201.797 93.0557 208.006 93.0557C210.091 93.0557 212.609 93.3006 215.56 93.7905V109.633ZM245.655 86.5615V90.4922L232.649 107.069H245.655V111H227.54V107.069L241.109 90.4922H227.881V86.5615H245.655ZM252.576 101.959C252.576 105.708 254.029 107.582 256.934 107.582C259.839 107.582 261.292 105.708 261.292 101.959C261.292 98.3022 259.839 96.4736 256.934 96.4736C254.029 96.4736 252.576 98.3022 252.576 101.959ZM248.047 102.028C248.047 96.0122 251.01 93.0044 256.934 93.0044C262.859 93.0044 265.821 96.0122 265.821 102.028C265.821 108.032 262.859 111.034 256.934 111.034C251.032 111.034 248.07 108.032 248.047 102.028ZM269.239 111V93.0557H272.742L273.306 95.6875C275.027 93.9329 276.986 93.0557 279.185 93.0557C283.435 93.0557 285.56 95.266 285.56 99.6865V111H281.031V99.6865C281.031 97.7041 280.045 96.7129 278.074 96.7129C276.604 96.7129 275.169 97.2996 273.768 98.4731V111H269.239ZM297.42 93.0557C302.866 93.0557 305.589 95.8356 305.589 101.396C305.589 102.136 305.538 102.877 305.435 103.617H293.523C293.523 106.146 295.381 107.411 299.095 107.411C300.906 107.411 302.718 107.24 304.529 106.898V110.487C302.946 110.829 301.02 111 298.753 111C292.247 111 288.995 107.941 288.995 101.823C288.995 95.978 291.803 93.0557 297.42 93.0557ZM293.523 100.473H301.18V100.336C301.18 97.8522 299.926 96.6104 297.42 96.6104C295.027 96.6104 293.729 97.8978 293.523 100.473Z" fill="#3D3B38"/>
</g>
</g>
<rect x="0.5" y="0.5" width="392" height="852" stroke="#3D3B38"/>
<defs>
<filter id="filter0_d_4030_5589" x="38" y="573.673" width="158" height="58.0586" filterUnits="userSpaceOnUse" color-interpolation-filters="sRGB">
<feFlood flood-opacity="0" result="BackgroundImageFix"/>
<feColorMatrix in="SourceAlpha" type="matrix" values="0 0 0 0 0 0 0 0 0 0 0 0 0 0 0 0 0 0 127 0" result="hardAlpha"/>
<feOffset dy="4"/>
<feGaussianBlur stdDeviation="2"/>
<feComposite in2="hardAlpha" operator="out"/>
<feColorMatrix type="matrix" values="0 0 0 0 0 0 0 0 0 0 0 0 0 0 0 0 0 0 0.25 0"/>
<feBlend mode="normal" in2="BackgroundImageFix" result="effect1_dropShadow_4030_5589"/>
<feBlend mode="normal" in="SourceGraphic" in2="effect1_dropShadow_4030_5589" result="shape"/>
</filter>
<filter id="filter1_d_4030_5589" x="198" y="512" width="158" height="58" filterUnits="userSpaceOnUse" color-interpolation-filters="sRGB">
<feFlood flood-opacity="0" result="BackgroundImageFix"/>
<feColorMatrix in="SourceAlpha" type="matrix" values="0 0 0 0 0 0 0 0 0 0 0 0 0 0 0 0 0 0 127 0" result="hardAlpha"/>
<feOffset dy="4"/>
<feGaussianBlur stdDeviation="2"/>
<feComposite in2="hardAlpha" operator="out"/>
<feColorMatrix type="matrix" values="0 0 0 0 0 0 0 0 0 0 0 0 0 0 0 0 0 0 0.25 0"/>
<feBlend mode="normal" in2="BackgroundImageFix" result="effect1_dropShadow_4030_5589"/>
<feBlend mode="normal" in="SourceGraphic" in2="effect1_dropShadow_4030_5589" result="shape"/>
</filter>
<filter id="filter2_d_4030_5589" x="38" y="512" width="158" height="58" filterUnits="userSpaceOnUse" color-interpolation-filters="sRGB">
<feFlood flood-opacity="0" result="BackgroundImageFix"/>
<feColorMatrix in="SourceAlpha" type="matrix" values="0 0 0 0 0 0 0 0 0 0 0 0 0 0 0 0 0 0 127 0" result="hardAlpha"/>
<feOffset dy="4"/>
<feGaussianBlur stdDeviation="2"/>
<feComposite in2="hardAlpha" operator="out"/>
<feColorMatrix type="matrix" values="0 0 0 0 0 0 0 0 0 0 0 0 0 0 0 0 0 0 0.25 0"/>
<feBlend mode="normal" in2="BackgroundImageFix" result="effect1_dropShadow_4030_5589"/>
<feBlend mode="normal" in="SourceGraphic" in2="effect1_dropShadow_4030_5589" result="shape"/>
</filter>
<filter id="filter3_d_4030_5589" x="38" y="429.503" width="318" height="48.0469" filterUnits="userSpaceOnUse" color-interpolation-filters="sRGB">
<feFlood flood-opacity="0" result="BackgroundImageFix"/>
<feColorMatrix in="SourceAlpha" type="matrix" values="0 0 0 0 0 0 0 0 0 0 0 0 0 0 0 0 0 0 127 0" result="hardAlpha"/>
<feOffset dy="4"/>
<feGaussianBlur stdDeviation="2"/>
<feComposite in2="hardAlpha" operator="out"/>
<feColorMatrix type="matrix" values="0 0 0 0 0 0 0 0 0 0 0 0 0 0 0 0 0 0 0.25 0"/>
<feBlend mode="normal" in2="BackgroundImageFix" result="effect1_dropShadow_4030_5589"/>
<feBlend mode="normal" in="SourceGraphic" in2="effect1_dropShadow_4030_5589" result="shape"/>
</filter>
<filter id="filter4_d_4030_5589" x="38" y="315" width="318" height="78" filterUnits="userSpaceOnUse" color-interpolation-filters="sRGB">
<feFlood flood-opacity="0" result="BackgroundImageFix"/>
<feColorMatrix in="SourceAlpha" type="matrix" values="0 0 0 0 0 0 0 0 0 0 0 0 0 0 0 0 0 0 127 0" result="hardAlpha"/>
<feOffset dy="4"/>
<feGaussianBlur stdDeviation="2"/>
<feComposite in2="hardAlpha" operator="out"/>
<feColorMatrix type="matrix" values="0 0 0 0 0 0 0 0 0 0 0 0 0 0 0 0 0 0 0.25 0"/>
<feBlend mode="normal" in2="BackgroundImageFix" result="effect1_dropShadow_4030_5589"/>
<feBlend mode="normal" in="SourceGraphic" in2="effect1_dropShadow_4030_5589" result="shape"/>
</filter>
<filter id="filter5_d_4030_5589" x="-4" y="1" width="401" height="152" filterUnits="userSpaceOnUse" color-interpolation-filters="sRGB">
<feFlood flood-opacity="0" result="BackgroundImageFix"/>
<feColorMatrix in="SourceAlpha" type="matrix" values="0 0 0 0 0 0 0 0 0 0 0 0 0 0 0 0 0 0 127 0" result="hardAlpha"/>
<feOffset dy="4"/>
<feGaussianBlur stdDeviation="2"/>
<feComposite in2="hardAlpha" operator="out"/>
<feColorMatrix type="matrix" values="0 0 0 0 0 0 0 0 0 0 0 0 0 0 0 0 0 0 0.25 0"/>
<feBlend mode="normal" in2="BackgroundImageFix" result="effect1_dropShadow_4030_5589"/>
<feBlend mode="normal" in="SourceGraphic" in2="effect1_dropShadow_4030_5589" result="shape"/>
</filter>
<clipPath id="clip0_4030_5589">
<rect width="393" height="853" fill="white"/>
</clipPath>
</defs>
</svg>
