<svg xmlns="http://www.w3.org/2000/svg" width="240" height="180" viewBox="0 0 240 180" shape-rendering="crispEdges"><style>@keyframes k{0%,49%{opacity:1}50%,100%{opacity:0}}.fa{animation:k .45s infinite}.fb{animation:k .45s infinite;animation-delay:-0.225s}@keyframes tw{0%,100%{opacity:1}50%{opacity:.2}}.tw{animation:tw 3s infinite}.tw2{animation:tw 4.3s infinite 1.2s}@media (prefers-reduced-motion:reduce){.fa,.fb,.tw,.tw2{animation:none}.fb{opacity:0}}</style><defs><radialGradient id="g"><stop offset="0" stop-color="#ffb04a" stop-opacity=".45"/><stop offset="1" stop-color="#ffb04a" stop-opacity="0"/></radialGradient></defs><g shape-rendering="auto"><circle cx="128" cy="96" r="46" fill="url(#g)"/><circle cx="66" cy="80" r="16" fill="url(#g)"/></g><path fill="#6e4628" d="M60 70h10v1h-10zM60 71h10v1h-10zM64 72h2v1h-2zM64 73h2v1h-2zM64 74h2v1h-2zM64 75h2v1h-2zM64 83h2v1h-2zM64 84h2v1h-2zM64 85h2v1h-2zM64 86h2v1h-2zM128 86h1v1h-1zM64 87h2v1h-2zM127 87h3v1h-3zM64 88h2v1h-2zM126 88h2v1h-2zM129 88h2v1h-2zM64 89h2v1h-2zM125 89h2v1h-2zM130 89h2v1h-2zM64 90h2v1h-2zM124 90h2v1h-2zM131 90h2v1h-2zM64 91h2v1h-2zM123 91h2v1h-2zM132 91h2v1h-2zM8 92h1v1h-1zM25 92h1v1h-1zM64 92h2v1h-2zM123 92h2v1h-2zM132 92h2v1h-2zM8 93h1v1h-1zM25 93h1v1h-1zM64 93h2v1h-2zM122 93h2v1h-2zM133 93h2v1h-2zM8 94h1v1h-1zM25 94h1v1h-1zM64 94h2v1h-2zM121 94h2v1h-2zM134 94h2v1h-2zM8 95h1v1h-1zM25 95h1v1h-1zM64 95h2v1h-2zM120 95h2v1h-2zM135 95h2v1h-2zM8 96h1v1h-1zM25 96h1v1h-1zM64 96h2v1h-2zM119 96h2v1h-2zM136 96h2v1h-2zM8 97h1v1h-1zM25 97h1v1h-1zM64 97h2v1h-2zM118 97h2v1h-2zM137 97h2v1h-2zM8 98h1v1h-1zM25 98h1v1h-1zM64 98h2v1h-2zM117 98h2v1h-2zM138 98h2v1h-2zM8 99h1v1h-1zM25 99h1v1h-1zM64 99h2v1h-2zM116 99h2v1h-2zM139 99h2v1h-2zM8 100h1v1h-1zM25 100h1v1h-1zM64 100h2v1h-2zM115 100h2v1h-2zM140 100h2v1h-2zM8 101h1v1h-1zM25 101h1v1h-1zM64 101h2v1h-2zM114 101h2v1h-2zM141 101h2v1h-2zM8 102h1v1h-1zM25 102h1v1h-1zM64 102h2v1h-2zM114 102h2v1h-2zM141 102h2v1h-2zM8 103h1v1h-1zM25 103h1v1h-1zM64 103h2v1h-2zM113 103h2v1h-2zM142 103h2v1h-2zM8 104h1v1h-1zM25 104h1v1h-1zM64 104h2v1h-2zM112 104h2v1h-2zM8 105h1v1h-1zM25 105h1v1h-1zM64 105h2v1h-2zM111 105h2v1h-2zM8 106h1v1h-1zM25 106h1v1h-1zM64 106h2v1h-2zM110 106h2v1h-2zM145 106h2v1h-2zM8 107h1v1h-1zM25 107h1v1h-1zM64 107h2v1h-2zM109 107h2v1h-2zM146 107h2v1h-2z"/><path fill="#bfb59c" d="M128 70h1v1h-1zM126 71h5v1h-5zM126 72h5v1h-5zM126 73h5v1h-5zM20 74h1v1h-1zM126 74h5v1h-5zM19 75h3v1h-3zM126 75h5v1h-5zM18 76h5v1h-5zM126 76h5v1h-5zM18 77h5v1h-5zM126 77h5v1h-5zM18 78h5v1h-5zM126 78h5v1h-5zM18 79h5v1h-5zM126 79h5v1h-5zM18 80h5v1h-5zM126 80h5v1h-5zM18 81h5v1h-5zM126 81h5v1h-5zM18 82h5v1h-5zM126 82h5v1h-5zM18 83h5v1h-5zM126 83h5v1h-5zM18 84h5v1h-5zM126 84h5v1h-5zM18 85h5v1h-5zM126 85h5v1h-5zM18 86h5v1h-5zM126 86h2v1h-2zM129 86h2v1h-2zM18 87h5v1h-5zM126 87h1v1h-1zM130 87h1v1h-1zM18 88h5v1h-5zM18 89h5v1h-5zM18 90h5v1h-5zM18 91h5v1h-5z"/><path fill="#2b2b2b" d="M66 72h1v1h-1zM66 73h1v1h-1zM66 74h1v1h-1zM66 75h1v1h-1zM64 76h1v1h-1zM68 76h1v1h-1zM64 77h1v1h-1zM68 77h1v1h-1zM64 78h1v1h-1zM68 78h1v1h-1zM64 79h1v1h-1zM68 79h1v1h-1zM64 80h1v1h-1zM68 80h1v1h-1zM64 81h1v1h-1zM68 81h1v1h-1zM64 82h1v1h-1zM68 82h1v1h-1z"/><path fill="#d4cab2" d="M125 72h1v1h-1zM123 73h3v1h-3zM122 74h4v1h-4zM120 75h6v1h-6zM119 76h7v1h-7zM17 77h1v1h-1zM117 77h9v1h-9zM16 78h2v1h-2zM115 78h11v1h-11zM15 79h3v1h-3zM114 79h12v1h-12zM14 80h4v1h-4zM112 80h14v1h-14zM13 81h5v1h-5zM111 81h15v1h-15zM12 82h6v1h-6zM109 82h17v1h-17zM10 83h8v1h-8zM107 83h19v1h-19zM9 84h9v1h-9zM106 84h20v1h-20zM8 85h10v1h-10zM104 85h22v1h-22zM7 86h11v1h-11zM103 86h23v1h-23zM6 87h12v1h-12zM101 87h25v1h-25zM5 88h13v1h-13zM100 88h26v1h-26zM4 89h14v1h-14zM98 89h27v1h-27zM3 90h15v1h-15zM96 90h28v1h-28zM2 91h16v1h-16zM95 91h28v1h-28zM1 92h7v1h-7zM93 92h30v1h-30zM0 93h8v1h-8zM92 93h30v1h-30zM0 94h8v1h-8zM90 94h31v1h-31zM0 95h8v1h-8zM89 95h31v1h-31zM0 96h8v1h-8zM87 96h32v1h-32zM0 97h8v1h-8zM85 97h33v1h-33zM0 98h8v1h-8zM84 98h33v1h-33zM0 99h8v1h-8zM82 99h34v1h-34zM0 100h8v1h-8zM81 100h34v1h-34zM0 101h8v1h-8zM79 101h35v1h-35zM0 102h8v1h-8zM78 102h36v1h-36zM0 103h8v1h-8zM78 103h35v1h-35zM0 104h8v1h-8zM78 104h34v1h-34zM0 105h8v1h-8zM78 105h33v1h-33zM0 106h8v1h-8zM78 106h32v1h-32zM0 107h8v1h-8zM78 107h31v1h-31z"/><path fill="#a49a82" d="M131 72h1v1h-1zM131 73h3v1h-3zM131 74h4v1h-4zM131 75h6v1h-6zM23 76h1v1h-1zM131 76h7v1h-7zM23 77h2v1h-2zM131 77h9v1h-9zM23 78h3v1h-3zM131 78h11v1h-11zM23 79h5v1h-5zM131 79h12v1h-12zM23 80h6v1h-6zM131 80h14v1h-14zM23 81h7v1h-7zM131 81h15v1h-15zM23 82h9v1h-9zM131 82h17v1h-17zM23 83h10v1h-10zM131 83h19v1h-19zM23 84h11v1h-11zM131 84h20v1h-20zM23 85h13v1h-13zM131 85h22v1h-22zM23 86h14v1h-14zM131 86h23v1h-23zM23 87h15v1h-15zM131 87h25v1h-25zM23 88h17v1h-17zM131 88h26v1h-26zM23 89h18v1h-18zM132 89h27v1h-27zM23 90h19v1h-19zM133 90h28v1h-28zM23 91h21v1h-21zM134 91h28v1h-28zM26 92h19v1h-19zM134 92h30v1h-30zM26 93h20v1h-20zM135 93h30v1h-30zM26 94h20v1h-20zM136 94h31v1h-31zM26 95h20v1h-20zM137 95h31v1h-31zM26 96h10v1h-10zM138 96h12v1h-12zM26 97h20v1h-20zM139 97h11v1h-11zM170 97h2v1h-2zM26 98h20v1h-20zM140 98h10v1h-10zM170 98h3v1h-3zM26 99h20v1h-20zM141 99h9v1h-9zM170 99h5v1h-5zM26 100h20v1h-20zM142 100h8v1h-8zM170 100h6v1h-6zM26 101h20v1h-20zM56 101h1v1h-1zM143 101h7v1h-7zM170 101h8v1h-8zM26 102h21v1h-21zM50 102h2v1h-2zM55 102h4v1h-4zM143 102h7v1h-7zM170 102h8v1h-8zM26 103h21v1h-21zM50 103h2v1h-2zM55 103h4v1h-4zM144 103h6v1h-6zM170 103h8v1h-8zM26 104h21v1h-21zM50 104h2v1h-2zM55 104h4v1h-4zM146 104h4v1h-4zM170 104h8v1h-8zM26 105h21v1h-21zM50 105h2v1h-2zM55 105h4v1h-4zM146 105h4v1h-4zM170 105h8v1h-8zM26 106h21v1h-21zM50 106h2v1h-2zM55 106h4v1h-4zM147 106h3v1h-3zM170 106h8v1h-8zM26 107h21v1h-21zM50 107h2v1h-2zM55 107h4v1h-4zM148 107h2v1h-2zM170 107h8v1h-8z"/><path fill="#ffd27a" d="M65 76h3v1h-3zM65 77h3v1h-3zM65 78h3v1h-3zM65 79h3v1h-3zM65 80h3v1h-3zM65 81h3v1h-3zM65 82h3v1h-3z"/><path fill="#c8ccd0" d="M178 78h1v1h-1zM182 78h1v1h-1zM186 78h1v1h-1zM178 79h1v1h-1zM182 79h1v1h-1zM186 79h1v1h-1zM36 96h12v1h-12z"/><path fill="#7a5030" d="M178 80h1v1h-1zM182 80h1v1h-1zM186 80h1v1h-1zM178 81h1v1h-1zM182 81h1v1h-1zM186 81h1v1h-1zM178 82h1v1h-1zM182 82h1v1h-1zM186 82h1v1h-1zM178 83h1v1h-1zM182 83h1v1h-1zM186 83h1v1h-1zM178 84h1v1h-1zM182 84h1v1h-1zM186 84h1v1h-1zM178 85h1v1h-1zM182 85h1v1h-1zM186 85h1v1h-1zM178 86h1v1h-1zM182 86h1v1h-1zM186 86h1v1h-1zM178 87h1v1h-1zM182 87h1v1h-1zM186 87h1v1h-1zM178 88h1v1h-1zM182 88h1v1h-1zM186 88h1v1h-1zM178 89h1v1h-1zM182 89h1v1h-1zM186 89h1v1h-1zM178 90h1v1h-1zM182 90h1v1h-1zM186 90h1v1h-1zM178 91h1v1h-1zM182 91h1v1h-1zM186 91h1v1h-1zM178 93h1v1h-1zM182 93h1v1h-1zM186 93h1v1h-1zM178 94h1v1h-1zM182 94h1v1h-1zM186 94h1v1h-1zM178 95h1v1h-1zM182 95h1v1h-1zM186 95h1v1h-1zM178 96h1v1h-1zM182 96h1v1h-1zM186 96h1v1h-1zM178 97h1v1h-1zM182 97h1v1h-1zM186 97h1v1h-1zM178 98h1v1h-1zM182 98h1v1h-1zM186 98h1v1h-1zM178 99h1v1h-1zM182 99h1v1h-1zM186 99h1v1h-1zM178 100h1v1h-1zM182 100h1v1h-1zM186 100h1v1h-1zM178 101h1v1h-1zM182 101h1v1h-1zM186 101h1v1h-1zM178 102h1v1h-1zM182 102h1v1h-1zM186 102h1v1h-1zM178 103h1v1h-1zM182 103h1v1h-1zM186 103h1v1h-1zM178 104h1v1h-1zM182 104h1v1h-1zM186 104h1v1h-1zM178 105h1v1h-1zM182 105h1v1h-1zM186 105h1v1h-1zM178 106h1v1h-1zM182 106h1v1h-1zM186 106h1v1h-1zM178 107h1v1h-1zM182 107h1v1h-1zM186 107h1v1h-1z"/><path fill="#3a2a20" d="M47 82h8v1h-8zM47 83h8v1h-8zM47 84h8v1h-8zM48 88h6v1h-6zM48 89h6v1h-6z"/><path fill="#e0b48a" d="M48 85h6v1h-6zM48 86h6v1h-6zM48 87h6v1h-6z"/><path fill="#3a2218" d="M128 88h1v1h-1zM127 89h3v1h-3zM126 90h5v1h-5zM125 91h7v1h-7zM125 92h7v1h-7zM124 93h9v1h-9zM123 94h11v1h-11zM122 95h13v1h-13zM121 96h15v1h-15zM120 97h17v1h-17zM119 98h19v1h-19zM118 99h21v1h-21zM117 100h23v1h-23z"/><path fill="#4a4a52" d="M46 90h10v1h-10zM46 91h10v1h-10zM46 92h10v1h-10zM46 93h9v1h-9zM46 94h8v1h-8zM46 95h8v1h-8zM48 96h6v1h-6zM46 97h8v1h-8zM46 98h8v1h-8zM46 99h9v1h-9zM46 100h10v1h-10zM46 101h10v1h-10z"/><path fill="#2a1e16" d="M9 92h16v1h-16zM9 93h16v1h-16zM9 94h16v1h-16zM9 95h16v1h-16zM9 96h16v1h-16zM9 97h16v1h-16zM9 98h16v1h-16zM9 99h16v1h-16zM9 100h16v1h-16zM9 101h16v1h-16zM9 102h16v1h-16zM9 103h16v1h-16zM9 104h16v1h-16zM9 105h16v1h-16zM9 106h16v1h-16zM9 107h16v1h-16z"/><path fill="#7a3a20" d="M56 92h2v1h-2zM59 92h2v1h-2zM55 93h3v1h-3zM59 93h3v1h-3zM54 94h4v1h-4zM59 94h4v1h-4zM54 95h4v1h-4zM59 95h4v1h-4zM54 96h4v1h-4zM59 96h4v1h-4zM54 97h4v1h-4zM59 97h4v1h-4zM54 98h4v1h-4zM59 98h4v1h-4zM55 99h3v1h-3zM59 99h3v1h-3zM56 100h2v1h-2zM59 100h2v1h-2z"/><path fill="#c8a050" d="M58 92h1v1h-1zM58 93h1v1h-1zM58 94h1v1h-1zM58 95h1v1h-1zM58 96h1v1h-1zM58 97h1v1h-1zM159 97h2v1h-2zM58 98h1v1h-1zM159 98h2v1h-2zM58 99h1v1h-1zM159 99h2v1h-2zM58 100h1v1h-1zM159 100h2v1h-2zM159 102h2v1h-2zM159 103h2v1h-2zM159 104h2v1h-2zM159 105h2v1h-2zM159 106h2v1h-2zM159 107h2v1h-2z"/><path fill="#5a3820" d="M176 92h14v1h-14zM196 94h1v1h-1zM196 95h1v1h-1zM196 96h1v1h-1zM196 97h1v1h-1zM196 98h1v1h-1zM196 99h1v1h-1zM190 100h13v1h-13zM196 101h1v1h-1zM196 102h1v1h-1zM196 103h1v1h-1zM196 104h1v1h-1zM196 105h1v1h-1zM196 106h1v1h-1z"/><path fill="#3a2414" d="M196 93h1v1h-1zM193 94h3v1h-3zM197 94h3v1h-3zM192 95h1v1h-1zM200 95h1v1h-1zM191 96h1v1h-1zM201 96h1v1h-1zM190 97h1v1h-1zM202 97h1v1h-1zM190 98h1v1h-1zM202 98h1v1h-1zM190 99h1v1h-1zM202 99h1v1h-1zM189 100h1v1h-1zM203 100h1v1h-1zM190 101h1v1h-1zM202 101h1v1h-1zM190 102h1v1h-1zM202 102h1v1h-1zM190 103h1v1h-1zM202 103h1v1h-1zM191 104h1v1h-1zM201 104h1v1h-1zM192 105h1v1h-1zM200 105h1v1h-1zM193 106h3v1h-3zM197 106h3v1h-3zM196 107h1v1h-1z"/><path fill="#8a5a30" d="M193 95h3v1h-3zM197 95h3v1h-3zM192 96h4v1h-4zM197 96h4v1h-4zM191 97h5v1h-5zM197 97h5v1h-5zM191 98h5v1h-5zM197 98h5v1h-5zM191 99h5v1h-5zM197 99h5v1h-5zM191 101h5v1h-5zM197 101h5v1h-5zM191 102h5v1h-5zM197 102h5v1h-5zM191 103h5v1h-5zM197 103h5v1h-5zM192 104h4v1h-4zM197 104h4v1h-4zM193 105h3v1h-3zM197 105h3v1h-3z"/><path fill="#3a3632" d="M150 96h20v1h-20zM150 101h20v1h-20z"/><path fill="#6a4428" d="M150 97h9v1h-9zM161 97h9v1h-9zM150 98h9v1h-9zM161 98h9v1h-9zM150 99h9v1h-9zM161 99h9v1h-9zM150 100h9v1h-9zM161 100h9v1h-9zM150 102h9v1h-9zM161 102h9v1h-9zM150 103h9v1h-9zM161 103h9v1h-9zM150 104h9v1h-9zM161 104h9v1h-9zM150 105h9v1h-9zM161 105h9v1h-9zM150 106h9v1h-9zM161 106h9v1h-9zM150 107h9v1h-9zM161 107h9v1h-9z"/><path fill="#4a2a16" d="M116 101h25v1h-25zM116 102h6v1h-6zM134 102h7v1h-7zM115 103h7v1h-7zM134 103h8v1h-8zM114 104h4v1h-4zM138 104h1v1h-1zM142 104h1v1h-1zM113 105h5v1h-5zM138 105h1v1h-1zM142 105h1v1h-1zM112 106h2v1h-2zM117 106h1v1h-1zM141 106h3v1h-3zM111 107h3v1h-3zM117 107h1v1h-1zM121 107h1v1h-1zM125 107h1v1h-1zM129 107h1v1h-1zM133 107h1v1h-1zM137 107h1v1h-1zM141 107h3v1h-3zM145 107h1v1h-1z"/><path fill="#2a2a30" d="M47 102h3v1h-3zM52 102h3v1h-3zM47 103h3v1h-3zM52 103h3v1h-3zM47 104h3v1h-3zM52 104h3v1h-3zM47 105h3v1h-3zM52 105h3v1h-3zM47 106h3v1h-3zM52 106h3v1h-3zM47 107h3v1h-3zM52 107h3v1h-3z"/><path fill="#7a4628" d="M122 102h12v1h-12zM122 103h12v1h-12z"/><path fill="#d83a2a" d="M73 104h3v1h-3zM143 104h3v1h-3zM73 105h3v1h-3zM143 105h3v1h-3z"/><path fill="#6a3a20" d="M118 104h2v1h-2zM121 104h3v1h-3zM125 104h3v1h-3zM129 104h3v1h-3zM133 104h3v1h-3zM137 104h1v1h-1zM118 105h2v1h-2zM121 105h3v1h-3zM125 105h3v1h-3zM129 105h3v1h-3zM133 105h3v1h-3zM137 105h1v1h-1zM121 106h1v1h-1zM125 106h1v1h-1zM129 106h1v1h-1zM133 106h1v1h-1zM137 106h1v1h-1z"/><path fill="#4a2614" d="M120 104h1v1h-1zM124 104h1v1h-1zM128 104h1v1h-1zM132 104h1v1h-1zM136 104h1v1h-1zM120 105h1v1h-1zM124 105h1v1h-1zM128 105h1v1h-1zM132 105h1v1h-1zM136 105h1v1h-1z"/><path fill="#d8c0a0" d="M139 104h3v1h-3zM139 105h3v1h-3z"/><path fill="#9a6ab8" d="M209 104h3v1h-3zM209 105h3v1h-3z"/><path fill="#f0e6d0" d="M74 106h1v1h-1zM144 106h1v1h-1zM210 106h1v1h-1zM74 107h1v1h-1zM144 107h1v1h-1zM210 107h1v1h-1z"/><path fill="#8a8a8a" d="M114 106h3v1h-3zM118 106h3v1h-3zM122 106h3v1h-3zM126 106h3v1h-3zM130 106h3v1h-3zM134 106h3v1h-3zM138 106h3v1h-3zM114 107h3v1h-3zM118 107h3v1h-3zM122 107h3v1h-3zM126 107h3v1h-3zM130 107h3v1h-3zM134 107h3v1h-3zM138 107h3v1h-3z"/><path fill="#7aa03a" d="M0 108h240v1h-240z"/><path fill="#4f7a2a" d="M0 109h240v1h-240zM0 110h240v1h-240zM0 111h240v1h-240z"/><path fill="#4a3020" d="M0 112h1v1h-1zM2 112h8v1h-8zM11 112h8v1h-8zM20 112h8v1h-8zM29 112h8v1h-8zM38 112h8v1h-8zM47 112h8v1h-8zM56 112h8v1h-8zM65 112h8v1h-8zM74 112h8v1h-8zM83 112h8v1h-8zM92 112h8v1h-8zM101 112h8v1h-8zM110 112h8v1h-8zM119 112h8v1h-8zM128 112h8v1h-8zM137 112h8v1h-8zM146 112h8v1h-8zM155 112h8v1h-8zM164 112h8v1h-8zM173 112h8v1h-8zM182 112h8v1h-8zM191 112h8v1h-8zM200 112h8v1h-8zM209 112h8v1h-8zM218 112h8v1h-8zM227 112h8v1h-8zM236 112h4v1h-4zM0 113h8v1h-8zM9 113h8v1h-8zM18 113h8v1h-8zM27 113h8v1h-8zM36 113h8v1h-8zM45 113h8v1h-8zM54 113h8v1h-8zM63 113h8v1h-8zM72 113h8v1h-8zM81 113h8v1h-8zM90 113h8v1h-8zM99 113h8v1h-8zM108 113h8v1h-8zM117 113h8v1h-8zM126 113h8v1h-8zM135 113h8v1h-8zM144 113h8v1h-8zM153 113h8v1h-8zM162 113h8v1h-8zM171 113h8v1h-8zM180 113h8v1h-8zM189 113h8v1h-8zM198 113h8v1h-8zM207 113h8v1h-8zM216 113h8v1h-8zM225 113h8v1h-8zM234 113h6v1h-6zM0 114h6v1h-6zM7 114h8v1h-8zM16 114h8v1h-8zM25 114h8v1h-8zM34 114h8v1h-8zM43 114h8v1h-8zM52 114h8v1h-8zM61 114h8v1h-8zM70 114h8v1h-8zM79 114h8v1h-8zM88 114h8v1h-8zM97 114h8v1h-8zM106 114h8v1h-8zM115 114h8v1h-8zM124 114h8v1h-8zM133 114h8v1h-8zM142 114h8v1h-8zM151 114h8v1h-8zM160 114h8v1h-8zM169 114h8v1h-8zM178 114h8v1h-8zM187 114h8v1h-8zM196 114h8v1h-8zM205 114h8v1h-8zM214 114h8v1h-8zM223 114h8v1h-8zM232 114h8v1h-8zM0 115h4v1h-4zM5 115h8v1h-8zM14 115h8v1h-8zM23 115h8v1h-8zM32 115h8v1h-8zM41 115h8v1h-8zM50 115h8v1h-8zM59 115h8v1h-8zM68 115h8v1h-8zM77 115h8v1h-8zM86 115h8v1h-8zM95 115h8v1h-8zM104 115h8v1h-8zM113 115h8v1h-8zM122 115h8v1h-8zM131 115h8v1h-8zM140 115h8v1h-8zM149 115h8v1h-8zM158 115h8v1h-8zM167 115h8v1h-8zM176 115h8v1h-8zM185 115h8v1h-8zM194 115h8v1h-8zM203 115h8v1h-8zM212 115h8v1h-8zM221 115h8v1h-8zM230 115h8v1h-8zM239 115h1v1h-1zM0 116h2v1h-2zM3 116h8v1h-8zM12 116h8v1h-8zM21 116h8v1h-8zM30 116h8v1h-8zM39 116h8v1h-8zM48 116h8v1h-8zM57 116h8v1h-8zM66 116h8v1h-8zM75 116h8v1h-8zM84 116h8v1h-8zM93 116h8v1h-8zM102 116h8v1h-8zM111 116h8v1h-8zM120 116h8v1h-8zM129 116h8v1h-8zM138 116h8v1h-8zM147 116h8v1h-8zM156 116h8v1h-8zM165 116h8v1h-8zM174 116h8v1h-8zM183 116h8v1h-8zM192 116h8v1h-8zM201 116h8v1h-8zM210 116h8v1h-8zM219 116h8v1h-8zM228 116h8v1h-8zM237 116h3v1h-3zM1 117h8v1h-8zM10 117h8v1h-8zM19 117h8v1h-8zM28 117h8v1h-8zM37 117h8v1h-8zM46 117h8v1h-8zM55 117h8v1h-8zM64 117h8v1h-8zM73 117h8v1h-8zM82 117h8v1h-8zM91 117h8v1h-8zM100 117h8v1h-8zM109 117h8v1h-8zM118 117h8v1h-8zM127 117h8v1h-8zM136 117h8v1h-8zM145 117h8v1h-8zM154 117h8v1h-8zM163 117h8v1h-8zM172 117h8v1h-8zM181 117h8v1h-8zM190 117h8v1h-8zM199 117h8v1h-8zM208 117h8v1h-8zM217 117h8v1h-8zM226 117h8v1h-8zM235 117h5v1h-5zM0 118h7v1h-7zM8 118h8v1h-8zM17 118h8v1h-8zM26 118h8v1h-8zM35 118h8v1h-8zM44 118h8v1h-8zM53 118h8v1h-8zM62 118h8v1h-8zM71 118h8v1h-8zM80 118h8v1h-8zM89 118h8v1h-8zM98 118h8v1h-8zM107 118h8v1h-8zM116 118h8v1h-8zM125 118h8v1h-8zM134 118h8v1h-8zM143 118h8v1h-8zM152 118h8v1h-8zM161 118h8v1h-8zM170 118h8v1h-8zM179 118h8v1h-8zM188 118h8v1h-8zM197 118h8v1h-8zM206 118h8v1h-8zM215 118h8v1h-8zM224 118h8v1h-8zM233 118h7v1h-7zM0 119h5v1h-5zM6 119h8v1h-8zM15 119h8v1h-8zM24 119h8v1h-8zM33 119h8v1h-8zM42 119h8v1h-8zM51 119h8v1h-8zM60 119h8v1h-8zM69 119h8v1h-8zM78 119h8v1h-8zM87 119h8v1h-8zM96 119h8v1h-8zM105 119h8v1h-8zM114 119h8v1h-8zM123 119h8v1h-8zM132 119h8v1h-8zM141 119h8v1h-8zM150 119h8v1h-8zM159 119h8v1h-8zM168 119h8v1h-8zM177 119h8v1h-8zM186 119h8v1h-8zM195 119h8v1h-8zM204 119h8v1h-8zM213 119h8v1h-8zM222 119h8v1h-8zM231 119h8v1h-8zM0 120h3v1h-3zM4 120h8v1h-8zM13 120h8v1h-8zM22 120h8v1h-8zM31 120h8v1h-8zM40 120h8v1h-8zM49 120h8v1h-8zM58 120h8v1h-8zM67 120h8v1h-8zM76 120h8v1h-8zM85 120h8v1h-8zM94 120h8v1h-8zM103 120h8v1h-8zM112 120h8v1h-8zM121 120h8v1h-8zM130 120h8v1h-8zM139 120h8v1h-8zM148 120h8v1h-8zM157 120h8v1h-8zM166 120h8v1h-8zM175 120h8v1h-8zM184 120h8v1h-8zM193 120h8v1h-8zM202 120h8v1h-8zM211 120h8v1h-8zM220 120h8v1h-8zM229 120h8v1h-8zM238 120h2v1h-2zM0 121h1v1h-1zM2 121h8v1h-8zM11 121h8v1h-8zM20 121h8v1h-8zM29 121h8v1h-8zM38 121h8v1h-8zM47 121h8v1h-8zM56 121h8v1h-8zM65 121h8v1h-8zM74 121h8v1h-8zM83 121h8v1h-8zM92 121h8v1h-8zM101 121h8v1h-8zM110 121h8v1h-8zM119 121h8v1h-8zM128 121h8v1h-8zM137 121h8v1h-8zM146 121h8v1h-8zM155 121h8v1h-8zM164 121h8v1h-8zM173 121h8v1h-8zM182 121h8v1h-8zM191 121h8v1h-8zM200 121h8v1h-8zM209 121h8v1h-8zM218 121h8v1h-8zM227 121h8v1h-8zM236 121h4v1h-4z"/><path fill="#3a2418" d="M1 112h1v1h-1zM10 112h1v1h-1zM19 112h1v1h-1zM28 112h1v1h-1zM37 112h1v1h-1zM46 112h1v1h-1zM55 112h1v1h-1zM64 112h1v1h-1zM73 112h1v1h-1zM82 112h1v1h-1zM91 112h1v1h-1zM100 112h1v1h-1zM109 112h1v1h-1zM118 112h1v1h-1zM127 112h1v1h-1zM136 112h1v1h-1zM145 112h1v1h-1zM154 112h1v1h-1zM163 112h1v1h-1zM172 112h1v1h-1zM181 112h1v1h-1zM190 112h1v1h-1zM199 112h1v1h-1zM208 112h1v1h-1zM217 112h1v1h-1zM226 112h1v1h-1zM235 112h1v1h-1zM8 113h1v1h-1zM17 113h1v1h-1zM26 113h1v1h-1zM35 113h1v1h-1zM44 113h1v1h-1zM53 113h1v1h-1zM62 113h1v1h-1zM71 113h1v1h-1zM80 113h1v1h-1zM89 113h1v1h-1zM98 113h1v1h-1zM107 113h1v1h-1zM116 113h1v1h-1zM125 113h1v1h-1zM134 113h1v1h-1zM143 113h1v1h-1zM152 113h1v1h-1zM161 113h1v1h-1zM170 113h1v1h-1zM179 113h1v1h-1zM188 113h1v1h-1zM197 113h1v1h-1zM206 113h1v1h-1zM215 113h1v1h-1zM224 113h1v1h-1zM233 113h1v1h-1zM6 114h1v1h-1zM15 114h1v1h-1zM24 114h1v1h-1zM33 114h1v1h-1zM42 114h1v1h-1zM51 114h1v1h-1zM60 114h1v1h-1zM69 114h1v1h-1zM78 114h1v1h-1zM87 114h1v1h-1zM96 114h1v1h-1zM105 114h1v1h-1zM114 114h1v1h-1zM123 114h1v1h-1zM132 114h1v1h-1zM141 114h1v1h-1zM150 114h1v1h-1zM159 114h1v1h-1zM168 114h1v1h-1zM177 114h1v1h-1zM186 114h1v1h-1zM195 114h1v1h-1zM204 114h1v1h-1zM213 114h1v1h-1zM222 114h1v1h-1zM231 114h1v1h-1zM4 115h1v1h-1zM13 115h1v1h-1zM22 115h1v1h-1zM31 115h1v1h-1zM40 115h1v1h-1zM49 115h1v1h-1zM58 115h1v1h-1zM67 115h1v1h-1zM76 115h1v1h-1zM85 115h1v1h-1zM94 115h1v1h-1zM103 115h1v1h-1zM112 115h1v1h-1zM121 115h1v1h-1zM130 115h1v1h-1zM139 115h1v1h-1zM148 115h1v1h-1zM157 115h1v1h-1zM166 115h1v1h-1zM175 115h1v1h-1zM184 115h1v1h-1zM193 115h1v1h-1zM202 115h1v1h-1zM211 115h1v1h-1zM220 115h1v1h-1zM229 115h1v1h-1zM238 115h1v1h-1zM2 116h1v1h-1zM11 116h1v1h-1zM20 116h1v1h-1zM29 116h1v1h-1zM38 116h1v1h-1zM47 116h1v1h-1zM56 116h1v1h-1zM65 116h1v1h-1zM74 116h1v1h-1zM83 116h1v1h-1zM92 116h1v1h-1zM101 116h1v1h-1zM110 116h1v1h-1zM119 116h1v1h-1zM128 116h1v1h-1zM137 116h1v1h-1zM146 116h1v1h-1zM155 116h1v1h-1zM164 116h1v1h-1zM173 116h1v1h-1zM182 116h1v1h-1zM191 116h1v1h-1zM200 116h1v1h-1zM209 116h1v1h-1zM218 116h1v1h-1zM227 116h1v1h-1zM236 116h1v1h-1zM0 117h1v1h-1zM9 117h1v1h-1zM18 117h1v1h-1zM27 117h1v1h-1zM36 117h1v1h-1zM45 117h1v1h-1zM54 117h1v1h-1zM63 117h1v1h-1zM72 117h1v1h-1zM81 117h1v1h-1zM90 117h1v1h-1zM99 117h1v1h-1zM108 117h1v1h-1zM117 117h1v1h-1zM126 117h1v1h-1zM135 117h1v1h-1zM144 117h1v1h-1zM153 117h1v1h-1zM162 117h1v1h-1zM171 117h1v1h-1zM180 117h1v1h-1zM189 117h1v1h-1zM198 117h1v1h-1zM207 117h1v1h-1zM216 117h1v1h-1zM225 117h1v1h-1zM234 117h1v1h-1zM7 118h1v1h-1zM16 118h1v1h-1zM25 118h1v1h-1zM34 118h1v1h-1zM43 118h1v1h-1zM52 118h1v1h-1zM61 118h1v1h-1zM70 118h1v1h-1zM79 118h1v1h-1zM88 118h1v1h-1zM97 118h1v1h-1zM106 118h1v1h-1zM115 118h1v1h-1zM124 118h1v1h-1zM133 118h1v1h-1zM142 118h1v1h-1zM151 118h1v1h-1zM160 118h1v1h-1zM169 118h1v1h-1zM178 118h1v1h-1zM187 118h1v1h-1zM196 118h1v1h-1zM205 118h1v1h-1zM214 118h1v1h-1zM223 118h1v1h-1zM232 118h1v1h-1zM5 119h1v1h-1zM14 119h1v1h-1zM23 119h1v1h-1zM32 119h1v1h-1zM41 119h1v1h-1zM50 119h1v1h-1zM59 119h1v1h-1zM68 119h1v1h-1zM77 119h1v1h-1zM86 119h1v1h-1zM95 119h1v1h-1zM104 119h1v1h-1zM113 119h1v1h-1zM122 119h1v1h-1zM131 119h1v1h-1zM140 119h1v1h-1zM149 119h1v1h-1zM158 119h1v1h-1zM167 119h1v1h-1zM176 119h1v1h-1zM185 119h1v1h-1zM194 119h1v1h-1zM203 119h1v1h-1zM212 119h1v1h-1zM221 119h1v1h-1zM230 119h1v1h-1zM239 119h1v1h-1zM3 120h1v1h-1zM12 120h1v1h-1zM21 120h1v1h-1zM30 120h1v1h-1zM39 120h1v1h-1zM48 120h1v1h-1zM57 120h1v1h-1zM66 120h1v1h-1zM75 120h1v1h-1zM84 120h1v1h-1zM93 120h1v1h-1zM102 120h1v1h-1zM111 120h1v1h-1zM120 120h1v1h-1zM129 120h1v1h-1zM138 120h1v1h-1zM147 120h1v1h-1zM156 120h1v1h-1zM165 120h1v1h-1zM174 120h1v1h-1zM183 120h1v1h-1zM192 120h1v1h-1zM201 120h1v1h-1zM210 120h1v1h-1zM219 120h1v1h-1zM228 120h1v1h-1zM237 120h1v1h-1zM1 121h1v1h-1zM10 121h1v1h-1zM19 121h1v1h-1zM28 121h1v1h-1zM37 121h1v1h-1zM46 121h1v1h-1zM55 121h1v1h-1zM64 121h1v1h-1zM73 121h1v1h-1zM82 121h1v1h-1zM91 121h1v1h-1zM100 121h1v1h-1zM109 121h1v1h-1zM118 121h1v1h-1zM127 121h1v1h-1zM136 121h1v1h-1zM145 121h1v1h-1zM154 121h1v1h-1zM163 121h1v1h-1zM172 121h1v1h-1zM181 121h1v1h-1zM190 121h1v1h-1zM199 121h1v1h-1zM208 121h1v1h-1zM217 121h1v1h-1zM226 121h1v1h-1zM235 121h1v1h-1z"/><path fill="#0e2a2e" d="M0 122h8v1h-8zM9 122h16v1h-16zM26 122h16v1h-16zM43 122h16v1h-16zM60 122h16v1h-16zM77 122h16v1h-16zM94 122h16v1h-16zM111 122h16v1h-16zM128 122h16v1h-16zM145 122h16v1h-16zM162 122h16v1h-16zM179 122h16v1h-16zM196 122h16v1h-16zM213 122h16v1h-16zM230 122h10v1h-10zM0 123h5v1h-5zM6 123h16v1h-16zM23 123h16v1h-16zM40 123h16v1h-16zM57 123h16v1h-16zM74 123h16v1h-16zM91 123h16v1h-16zM108 123h16v1h-16zM125 123h16v1h-16zM142 123h16v1h-16zM159 123h16v1h-16zM176 123h16v1h-16zM193 123h16v1h-16zM210 123h16v1h-16zM227 123h13v1h-13zM0 124h2v1h-2zM3 124h16v1h-16zM20 124h16v1h-16zM37 124h16v1h-16zM54 124h16v1h-16zM71 124h16v1h-16zM88 124h16v1h-16zM105 124h16v1h-16zM122 124h16v1h-16zM139 124h16v1h-16zM156 124h16v1h-16zM173 124h16v1h-16zM190 124h16v1h-16zM207 124h16v1h-16zM224 124h16v1h-16zM0 125h16v1h-16zM17 125h16v1h-16zM34 125h16v1h-16zM51 125h16v1h-16zM68 125h16v1h-16zM85 125h16v1h-16zM102 125h16v1h-16zM119 125h16v1h-16zM136 125h16v1h-16zM153 125h16v1h-16zM170 125h16v1h-16zM187 125h16v1h-16zM204 125h16v1h-16zM221 125h16v1h-16zM238 125h2v1h-2zM0 126h13v1h-13zM14 126h16v1h-16zM31 126h16v1h-16zM48 126h16v1h-16zM65 126h16v1h-16zM82 126h16v1h-16zM99 126h16v1h-16zM116 126h16v1h-16zM133 126h16v1h-16zM150 126h16v1h-16zM167 126h16v1h-16zM184 126h16v1h-16zM201 126h16v1h-16zM218 126h16v1h-16zM235 126h5v1h-5zM0 127h10v1h-10zM11 127h16v1h-16zM28 127h16v1h-16zM45 127h16v1h-16zM62 127h16v1h-16zM79 127h16v1h-16zM96 127h16v1h-16zM113 127h16v1h-16zM130 127h16v1h-16zM147 127h16v1h-16zM164 127h16v1h-16zM181 127h16v1h-16zM198 127h16v1h-16zM215 127h16v1h-16zM232 127h8v1h-8zM0 128h7v1h-7zM8 128h16v1h-16zM25 128h16v1h-16zM42 128h16v1h-16zM59 128h16v1h-16zM76 128h16v1h-16zM93 128h16v1h-16zM110 128h16v1h-16zM127 128h16v1h-16zM144 128h16v1h-16zM161 128h16v1h-16zM178 128h16v1h-16zM195 128h16v1h-16zM212 128h16v1h-16zM229 128h11v1h-11zM0 129h4v1h-4zM5 129h16v1h-16zM22 129h16v1h-16zM39 129h16v1h-16zM56 129h16v1h-16zM73 129h16v1h-16zM90 129h16v1h-16zM107 129h16v1h-16zM124 129h16v1h-16zM141 129h16v1h-16zM158 129h16v1h-16zM175 129h16v1h-16zM192 129h16v1h-16zM209 129h16v1h-16zM226 129h14v1h-14zM0 130h1v1h-1zM2 130h16v1h-16zM19 130h16v1h-16zM36 130h16v1h-16zM53 130h16v1h-16zM70 130h16v1h-16zM87 130h16v1h-16zM104 130h16v1h-16zM121 130h16v1h-16zM138 130h16v1h-16zM155 130h16v1h-16zM172 130h16v1h-16zM189 130h16v1h-16zM206 130h16v1h-16zM223 130h16v1h-16zM0 131h15v1h-15zM16 131h16v1h-16zM33 131h16v1h-16zM50 131h16v1h-16zM67 131h16v1h-16zM84 131h16v1h-16zM101 131h16v1h-16zM118 131h16v1h-16zM135 131h16v1h-16zM152 131h16v1h-16zM169 131h16v1h-16zM186 131h16v1h-16zM203 131h16v1h-16zM220 131h16v1h-16zM237 131h3v1h-3zM0 132h12v1h-12zM13 132h16v1h-16zM30 132h16v1h-16zM47 132h16v1h-16zM64 132h16v1h-16zM81 132h16v1h-16zM98 132h16v1h-16zM115 132h16v1h-16zM132 132h16v1h-16zM149 132h16v1h-16zM166 132h16v1h-16zM183 132h16v1h-16zM200 132h16v1h-16zM217 132h16v1h-16zM234 132h6v1h-6zM0 133h9v1h-9zM10 133h16v1h-16zM27 133h16v1h-16zM44 133h16v1h-16zM61 133h16v1h-16zM78 133h16v1h-16zM95 133h16v1h-16zM112 133h16v1h-16zM129 133h16v1h-16zM146 133h16v1h-16zM163 133h16v1h-16zM180 133h16v1h-16zM197 133h16v1h-16zM214 133h16v1h-16zM231 133h9v1h-9zM0 134h6v1h-6zM7 134h16v1h-16zM24 134h16v1h-16zM41 134h16v1h-16zM58 134h16v1h-16zM75 134h16v1h-16zM92 134h16v1h-16zM109 134h16v1h-16zM126 134h16v1h-16zM143 134h16v1h-16zM160 134h16v1h-16zM177 134h16v1h-16zM194 134h16v1h-16zM211 134h16v1h-16zM228 134h12v1h-12zM0 135h3v1h-3zM4 135h16v1h-16zM21 135h16v1h-16zM38 135h16v1h-16zM55 135h16v1h-16zM72 135h16v1h-16zM89 135h16v1h-16zM106 135h16v1h-16zM123 135h16v1h-16zM140 135h16v1h-16zM157 135h16v1h-16zM174 135h16v1h-16zM191 135h16v1h-16zM208 135h16v1h-16zM225 135h15v1h-15zM1 136h16v1h-16zM18 136h16v1h-16zM35 136h16v1h-16zM52 136h16v1h-16zM69 136h16v1h-16zM86 136h16v1h-16zM103 136h16v1h-16zM120 136h16v1h-16zM137 136h16v1h-16zM154 136h16v1h-16zM171 136h16v1h-16zM188 136h16v1h-16zM205 136h16v1h-16zM222 136h16v1h-16zM239 136h1v1h-1zM0 137h14v1h-14zM15 137h16v1h-16zM32 137h16v1h-16zM49 137h16v1h-16zM66 137h16v1h-16zM83 137h16v1h-16zM100 137h16v1h-16zM117 137h16v1h-16zM134 137h16v1h-16zM151 137h16v1h-16zM168 137h16v1h-16zM185 137h16v1h-16zM202 137h16v1h-16zM219 137h16v1h-16zM236 137h4v1h-4zM0 138h11v1h-11zM12 138h16v1h-16zM29 138h16v1h-16zM46 138h16v1h-16zM63 138h16v1h-16zM80 138h16v1h-16zM97 138h16v1h-16zM114 138h16v1h-16zM131 138h16v1h-16zM148 138h16v1h-16zM165 138h16v1h-16zM182 138h16v1h-16zM199 138h16v1h-16zM216 138h16v1h-16zM233 138h7v1h-7zM0 139h8v1h-8zM9 139h16v1h-16zM26 139h16v1h-16zM43 139h16v1h-16zM60 139h16v1h-16zM77 139h16v1h-16zM94 139h16v1h-16zM111 139h16v1h-16zM128 139h16v1h-16zM145 139h16v1h-16zM162 139h16v1h-16zM179 139h16v1h-16zM196 139h16v1h-16zM213 139h16v1h-16zM230 139h10v1h-10zM0 140h5v1h-5zM6 140h16v1h-16zM23 140h16v1h-16zM40 140h16v1h-16zM57 140h16v1h-16zM74 140h16v1h-16zM91 140h16v1h-16zM108 140h16v1h-16zM125 140h16v1h-16zM142 140h16v1h-16zM159 140h16v1h-16zM176 140h16v1h-16zM193 140h16v1h-16zM210 140h16v1h-16zM227 140h13v1h-13zM0 141h2v1h-2zM3 141h16v1h-16zM20 141h16v1h-16zM37 141h16v1h-16zM54 141h16v1h-16zM71 141h16v1h-16zM88 141h16v1h-16zM105 141h16v1h-16zM122 141h16v1h-16zM139 141h16v1h-16zM156 141h16v1h-16zM173 141h16v1h-16zM190 141h16v1h-16zM207 141h16v1h-16zM224 141h16v1h-16zM0 142h16v1h-16zM17 142h16v1h-16zM34 142h16v1h-16zM51 142h16v1h-16zM68 142h16v1h-16zM85 142h16v1h-16zM102 142h16v1h-16zM119 142h16v1h-16zM136 142h16v1h-16zM153 142h16v1h-16zM170 142h16v1h-16zM187 142h16v1h-16zM204 142h16v1h-16zM221 142h16v1h-16zM238 142h2v1h-2zM0 143h13v1h-13zM14 143h16v1h-16zM31 143h16v1h-16zM48 143h16v1h-16zM65 143h16v1h-16zM82 143h16v1h-16zM99 143h16v1h-16zM116 143h16v1h-16zM133 143h16v1h-16zM150 143h16v1h-16zM167 143h16v1h-16zM184 143h16v1h-16zM201 143h16v1h-16zM218 143h16v1h-16zM235 143h5v1h-5zM0 144h10v1h-10zM11 144h16v1h-16zM28 144h16v1h-16zM45 144h16v1h-16zM62 144h16v1h-16zM79 144h16v1h-16zM96 144h16v1h-16zM113 144h16v1h-16zM130 144h16v1h-16zM147 144h16v1h-16zM164 144h16v1h-16zM181 144h16v1h-16zM198 144h16v1h-16zM215 144h16v1h-16zM232 144h8v1h-8zM0 145h7v1h-7zM8 145h16v1h-16zM25 145h16v1h-16zM42 145h16v1h-16zM59 145h16v1h-16zM76 145h16v1h-16zM93 145h16v1h-16zM110 145h16v1h-16zM127 145h16v1h-16zM144 145h16v1h-16zM161 145h16v1h-16zM178 145h16v1h-16zM195 145h16v1h-16zM212 145h16v1h-16zM229 145h11v1h-11zM0 146h4v1h-4zM5 146h16v1h-16zM22 146h16v1h-16zM39 146h16v1h-16zM56 146h16v1h-16zM73 146h16v1h-16zM90 146h16v1h-16zM107 146h16v1h-16zM124 146h16v1h-16zM141 146h16v1h-16zM158 146h16v1h-16zM175 146h16v1h-16zM192 146h16v1h-16zM209 146h16v1h-16zM226 146h14v1h-14zM0 147h1v1h-1zM2 147h16v1h-16zM19 147h16v1h-16zM36 147h16v1h-16zM53 147h16v1h-16zM70 147h16v1h-16zM87 147h16v1h-16zM104 147h16v1h-16zM121 147h16v1h-16zM138 147h16v1h-16zM155 147h16v1h-16zM172 147h16v1h-16zM189 147h16v1h-16zM206 147h16v1h-16zM223 147h16v1h-16zM0 148h15v1h-15zM16 148h16v1h-16zM33 148h16v1h-16zM50 148h16v1h-16zM67 148h16v1h-16zM84 148h16v1h-16zM101 148h16v1h-16zM118 148h16v1h-16zM135 148h16v1h-16zM152 148h16v1h-16zM169 148h16v1h-16zM186 148h16v1h-16zM203 148h16v1h-16zM220 148h16v1h-16zM237 148h3v1h-3zM0 149h12v1h-12zM13 149h16v1h-16zM30 149h16v1h-16zM47 149h16v1h-16zM64 149h16v1h-16zM81 149h16v1h-16zM98 149h16v1h-16zM115 149h16v1h-16zM132 149h16v1h-16zM149 149h16v1h-16zM166 149h16v1h-16zM183 149h16v1h-16zM200 149h16v1h-16zM217 149h16v1h-16zM234 149h6v1h-6zM0 150h9v1h-9zM10 150h16v1h-16zM27 150h16v1h-16zM44 150h16v1h-16zM61 150h16v1h-16zM78 150h16v1h-16zM95 150h16v1h-16zM112 150h16v1h-16zM129 150h16v1h-16zM146 150h16v1h-16zM163 150h16v1h-16zM180 150h16v1h-16zM197 150h16v1h-16zM214 150h16v1h-16zM231 150h9v1h-9zM0 151h6v1h-6zM7 151h16v1h-16zM24 151h16v1h-16zM41 151h16v1h-16zM58 151h16v1h-16zM75 151h16v1h-16zM92 151h16v1h-16zM109 151h16v1h-16zM126 151h16v1h-16zM143 151h16v1h-16zM160 151h16v1h-16zM177 151h16v1h-16zM194 151h16v1h-16zM211 151h16v1h-16zM228 151h12v1h-12zM0 152h3v1h-3zM4 152h16v1h-16zM21 152h16v1h-16zM38 152h16v1h-16zM55 152h16v1h-16zM72 152h16v1h-16zM89 152h16v1h-16zM106 152h16v1h-16zM123 152h16v1h-16zM140 152h16v1h-16zM157 152h16v1h-16zM174 152h16v1h-16zM191 152h16v1h-16zM208 152h16v1h-16zM225 152h15v1h-15zM1 153h16v1h-16zM18 153h16v1h-16zM35 153h16v1h-16zM52 153h16v1h-16zM69 153h16v1h-16zM86 153h16v1h-16zM103 153h16v1h-16zM120 153h16v1h-16zM137 153h16v1h-16zM154 153h16v1h-16zM171 153h16v1h-16zM188 153h16v1h-16zM205 153h16v1h-16zM222 153h16v1h-16zM239 153h1v1h-1zM0 154h14v1h-14zM15 154h16v1h-16zM32 154h16v1h-16zM49 154h16v1h-16zM66 154h16v1h-16zM83 154h16v1h-16zM100 154h16v1h-16zM117 154h16v1h-16zM134 154h16v1h-16zM151 154h16v1h-16zM168 154h16v1h-16zM185 154h16v1h-16zM202 154h16v1h-16zM219 154h16v1h-16zM236 154h4v1h-4zM0 155h11v1h-11zM12 155h16v1h-16zM29 155h16v1h-16zM46 155h16v1h-16zM63 155h16v1h-16zM80 155h16v1h-16zM97 155h16v1h-16zM114 155h16v1h-16zM131 155h16v1h-16zM148 155h16v1h-16zM165 155h16v1h-16zM182 155h16v1h-16zM199 155h16v1h-16zM216 155h16v1h-16zM233 155h7v1h-7zM0 156h8v1h-8zM9 156h16v1h-16zM26 156h16v1h-16zM43 156h16v1h-16zM60 156h16v1h-16zM77 156h16v1h-16zM94 156h16v1h-16zM111 156h16v1h-16zM128 156h16v1h-16zM145 156h16v1h-16zM162 156h16v1h-16zM179 156h16v1h-16zM196 156h16v1h-16zM213 156h16v1h-16zM230 156h10v1h-10zM0 157h5v1h-5zM6 157h16v1h-16zM23 157h16v1h-16zM40 157h16v1h-16zM57 157h16v1h-16zM74 157h16v1h-16zM91 157h16v1h-16zM108 157h16v1h-16zM125 157h16v1h-16zM142 157h16v1h-16zM159 157h16v1h-16zM176 157h16v1h-16zM193 157h16v1h-16zM210 157h16v1h-16zM227 157h13v1h-13zM0 158h2v1h-2zM3 158h16v1h-16zM20 158h16v1h-16zM37 158h16v1h-16zM54 158h16v1h-16zM71 158h16v1h-16zM88 158h16v1h-16zM105 158h16v1h-16zM122 158h16v1h-16zM139 158h16v1h-16zM156 158h16v1h-16zM173 158h16v1h-16zM190 158h16v1h-16zM207 158h16v1h-16zM224 158h16v1h-16zM0 159h16v1h-16zM17 159h16v1h-16zM34 159h16v1h-16zM51 159h16v1h-16zM68 159h16v1h-16zM85 159h16v1h-16zM102 159h16v1h-16zM119 159h16v1h-16zM136 159h16v1h-16zM153 159h16v1h-16zM170 159h16v1h-16zM187 159h16v1h-16zM204 159h16v1h-16zM221 159h16v1h-16zM238 159h2v1h-2zM0 160h13v1h-13zM14 160h16v1h-16zM31 160h16v1h-16zM48 160h16v1h-16zM65 160h16v1h-16zM82 160h16v1h-16zM99 160h16v1h-16zM116 160h16v1h-16zM133 160h16v1h-16zM150 160h16v1h-16zM167 160h16v1h-16zM184 160h16v1h-16zM201 160h16v1h-16zM218 160h16v1h-16zM235 160h5v1h-5zM0 161h10v1h-10zM11 161h16v1h-16zM28 161h16v1h-16zM45 161h16v1h-16zM62 161h16v1h-16zM79 161h16v1h-16zM96 161h16v1h-16zM113 161h16v1h-16zM130 161h16v1h-16zM147 161h16v1h-16zM164 161h16v1h-16zM181 161h16v1h-16zM198 161h16v1h-16zM215 161h16v1h-16zM232 161h8v1h-8zM0 162h7v1h-7zM8 162h16v1h-16zM25 162h16v1h-16zM42 162h16v1h-16zM59 162h16v1h-16zM76 162h16v1h-16zM93 162h16v1h-16zM110 162h16v1h-16zM127 162h16v1h-16zM144 162h16v1h-16zM161 162h16v1h-16zM178 162h16v1h-16zM195 162h16v1h-16zM212 162h16v1h-16zM229 162h11v1h-11zM0 163h4v1h-4zM5 163h16v1h-16zM22 163h16v1h-16zM39 163h16v1h-16zM56 163h16v1h-16zM73 163h16v1h-16zM90 163h16v1h-16zM107 163h16v1h-16zM124 163h16v1h-16zM141 163h16v1h-16zM158 163h16v1h-16zM175 163h16v1h-16zM192 163h16v1h-16zM209 163h16v1h-16zM226 163h14v1h-14zM0 164h1v1h-1zM2 164h16v1h-16zM19 164h16v1h-16zM36 164h16v1h-16zM53 164h16v1h-16zM70 164h16v1h-16zM87 164h16v1h-16zM104 164h16v1h-16zM121 164h16v1h-16zM138 164h16v1h-16zM155 164h16v1h-16zM172 164h16v1h-16zM189 164h16v1h-16zM206 164h16v1h-16zM223 164h16v1h-16zM0 165h15v1h-15zM16 165h16v1h-16zM33 165h16v1h-16zM50 165h16v1h-16zM67 165h16v1h-16zM84 165h16v1h-16zM101 165h16v1h-16zM118 165h16v1h-16zM135 165h16v1h-16zM152 165h16v1h-16zM169 165h16v1h-16zM186 165h16v1h-16zM203 165h16v1h-16zM220 165h16v1h-16zM237 165h3v1h-3zM0 166h12v1h-12zM13 166h16v1h-16zM30 166h16v1h-16zM47 166h16v1h-16zM64 166h16v1h-16zM81 166h16v1h-16zM98 166h16v1h-16zM115 166h16v1h-16zM132 166h16v1h-16zM149 166h16v1h-16zM166 166h16v1h-16zM183 166h16v1h-16zM200 166h16v1h-16zM217 166h16v1h-16zM234 166h6v1h-6zM0 167h9v1h-9zM10 167h16v1h-16zM27 167h16v1h-16zM44 167h16v1h-16zM61 167h16v1h-16zM78 167h16v1h-16zM95 167h16v1h-16zM112 167h16v1h-16zM129 167h16v1h-16zM146 167h16v1h-16zM163 167h16v1h-16zM180 167h16v1h-16zM197 167h16v1h-16zM214 167h16v1h-16zM231 167h9v1h-9zM0 168h6v1h-6zM7 168h16v1h-16zM24 168h16v1h-16zM41 168h16v1h-16zM58 168h16v1h-16zM75 168h16v1h-16zM92 168h16v1h-16zM109 168h16v1h-16zM126 168h16v1h-16zM143 168h16v1h-16zM160 168h16v1h-16zM177 168h16v1h-16zM194 168h16v1h-16zM211 168h16v1h-16zM228 168h12v1h-12zM0 169h3v1h-3zM4 169h16v1h-16zM21 169h16v1h-16zM38 169h16v1h-16zM55 169h16v1h-16zM72 169h16v1h-16zM89 169h16v1h-16zM106 169h16v1h-16zM123 169h16v1h-16zM140 169h16v1h-16zM157 169h16v1h-16zM174 169h16v1h-16zM191 169h16v1h-16zM208 169h16v1h-16zM225 169h15v1h-15zM1 170h16v1h-16zM18 170h16v1h-16zM35 170h16v1h-16zM52 170h16v1h-16zM69 170h16v1h-16zM86 170h16v1h-16zM103 170h16v1h-16zM120 170h16v1h-16zM137 170h16v1h-16zM154 170h16v1h-16zM171 170h16v1h-16zM188 170h16v1h-16zM205 170h16v1h-16zM222 170h16v1h-16zM239 170h1v1h-1zM0 171h14v1h-14zM15 171h16v1h-16zM32 171h16v1h-16zM49 171h16v1h-16zM66 171h16v1h-16zM83 171h16v1h-16zM100 171h16v1h-16zM117 171h16v1h-16zM134 171h16v1h-16zM151 171h16v1h-16zM168 171h16v1h-16zM185 171h16v1h-16zM202 171h16v1h-16zM219 171h16v1h-16zM236 171h4v1h-4zM0 172h11v1h-11zM12 172h16v1h-16zM29 172h16v1h-16zM46 172h16v1h-16zM63 172h16v1h-16zM80 172h16v1h-16zM97 172h16v1h-16zM114 172h16v1h-16zM131 172h16v1h-16zM148 172h16v1h-16zM165 172h16v1h-16zM182 172h16v1h-16zM199 172h16v1h-16zM216 172h16v1h-16zM233 172h7v1h-7zM0 173h8v1h-8zM9 173h16v1h-16zM26 173h16v1h-16zM43 173h16v1h-16zM60 173h16v1h-16zM77 173h16v1h-16zM94 173h16v1h-16zM111 173h16v1h-16zM128 173h16v1h-16zM145 173h16v1h-16zM162 173h16v1h-16zM179 173h16v1h-16zM196 173h16v1h-16zM213 173h16v1h-16zM230 173h10v1h-10zM0 174h5v1h-5zM6 174h16v1h-16zM23 174h16v1h-16zM40 174h16v1h-16zM57 174h16v1h-16zM74 174h16v1h-16zM91 174h16v1h-16zM108 174h16v1h-16zM125 174h16v1h-16zM142 174h16v1h-16zM159 174h16v1h-16zM176 174h16v1h-16zM193 174h16v1h-16zM210 174h16v1h-16zM227 174h13v1h-13zM0 175h2v1h-2zM3 175h16v1h-16zM20 175h16v1h-16zM37 175h16v1h-16zM54 175h16v1h-16zM71 175h16v1h-16zM88 175h16v1h-16zM105 175h16v1h-16zM122 175h16v1h-16zM139 175h16v1h-16zM156 175h16v1h-16zM173 175h16v1h-16zM190 175h16v1h-16zM207 175h16v1h-16zM224 175h16v1h-16zM0 176h16v1h-16zM17 176h16v1h-16zM34 176h16v1h-16zM51 176h16v1h-16zM68 176h16v1h-16zM85 176h16v1h-16zM102 176h16v1h-16zM119 176h16v1h-16zM136 176h16v1h-16zM153 176h16v1h-16zM170 176h16v1h-16zM187 176h16v1h-16zM204 176h16v1h-16zM221 176h16v1h-16zM238 176h2v1h-2zM0 177h13v1h-13zM14 177h16v1h-16zM31 177h16v1h-16zM48 177h16v1h-16zM65 177h16v1h-16zM82 177h16v1h-16zM99 177h16v1h-16zM116 177h16v1h-16zM133 177h16v1h-16zM150 177h16v1h-16zM167 177h16v1h-16zM184 177h16v1h-16zM201 177h16v1h-16zM218 177h16v1h-16zM235 177h5v1h-5zM0 178h10v1h-10zM11 178h16v1h-16zM28 178h16v1h-16zM45 178h16v1h-16zM62 178h16v1h-16zM79 178h16v1h-16zM96 178h16v1h-16zM113 178h16v1h-16zM130 178h16v1h-16zM147 178h16v1h-16zM164 178h16v1h-16zM181 178h16v1h-16zM198 178h16v1h-16zM215 178h16v1h-16zM232 178h8v1h-8zM0 179h7v1h-7zM8 179h16v1h-16zM25 179h16v1h-16zM42 179h16v1h-16zM59 179h16v1h-16zM76 179h16v1h-16zM93 179h16v1h-16zM110 179h16v1h-16zM127 179h16v1h-16zM144 179h16v1h-16zM161 179h16v1h-16zM178 179h16v1h-16zM195 179h16v1h-16zM212 179h16v1h-16zM229 179h11v1h-11z"/><path fill="#2a5a5a" d="M8 122h1v1h-1zM25 122h1v1h-1zM42 122h1v1h-1zM59 122h1v1h-1zM76 122h1v1h-1zM93 122h1v1h-1zM110 122h1v1h-1zM127 122h1v1h-1zM144 122h1v1h-1zM161 122h1v1h-1zM178 122h1v1h-1zM195 122h1v1h-1zM212 122h1v1h-1zM229 122h1v1h-1zM5 123h1v1h-1zM22 123h1v1h-1zM39 123h1v1h-1zM56 123h1v1h-1zM73 123h1v1h-1zM90 123h1v1h-1zM107 123h1v1h-1zM124 123h1v1h-1zM141 123h1v1h-1zM158 123h1v1h-1zM175 123h1v1h-1zM192 123h1v1h-1zM209 123h1v1h-1zM226 123h1v1h-1zM2 124h1v1h-1zM19 124h1v1h-1zM36 124h1v1h-1zM53 124h1v1h-1zM70 124h1v1h-1zM87 124h1v1h-1zM104 124h1v1h-1zM121 124h1v1h-1zM138 124h1v1h-1zM155 124h1v1h-1zM172 124h1v1h-1zM189 124h1v1h-1zM206 124h1v1h-1zM223 124h1v1h-1zM16 125h1v1h-1zM33 125h1v1h-1zM50 125h1v1h-1zM67 125h1v1h-1zM84 125h1v1h-1zM101 125h1v1h-1zM118 125h1v1h-1zM135 125h1v1h-1zM152 125h1v1h-1zM169 125h1v1h-1zM186 125h1v1h-1zM203 125h1v1h-1zM220 125h1v1h-1zM237 125h1v1h-1zM13 126h1v1h-1zM30 126h1v1h-1zM47 126h1v1h-1zM64 126h1v1h-1zM81 126h1v1h-1zM98 126h1v1h-1zM115 126h1v1h-1zM132 126h1v1h-1zM149 126h1v1h-1zM166 126h1v1h-1zM183 126h1v1h-1zM200 126h1v1h-1zM217 126h1v1h-1zM234 126h1v1h-1zM10 127h1v1h-1zM27 127h1v1h-1zM44 127h1v1h-1zM61 127h1v1h-1zM78 127h1v1h-1zM95 127h1v1h-1zM112 127h1v1h-1zM129 127h1v1h-1zM146 127h1v1h-1zM163 127h1v1h-1zM180 127h1v1h-1zM197 127h1v1h-1zM214 127h1v1h-1zM231 127h1v1h-1zM7 128h1v1h-1zM24 128h1v1h-1zM41 128h1v1h-1zM58 128h1v1h-1zM75 128h1v1h-1zM92 128h1v1h-1zM109 128h1v1h-1zM126 128h1v1h-1zM143 128h1v1h-1zM160 128h1v1h-1zM177 128h1v1h-1zM194 128h1v1h-1zM211 128h1v1h-1zM228 128h1v1h-1zM4 129h1v1h-1zM21 129h1v1h-1zM38 129h1v1h-1zM55 129h1v1h-1zM72 129h1v1h-1zM89 129h1v1h-1zM106 129h1v1h-1zM123 129h1v1h-1zM140 129h1v1h-1zM157 129h1v1h-1zM174 129h1v1h-1zM191 129h1v1h-1zM208 129h1v1h-1zM225 129h1v1h-1zM1 130h1v1h-1zM18 130h1v1h-1zM35 130h1v1h-1zM52 130h1v1h-1zM69 130h1v1h-1zM86 130h1v1h-1zM103 130h1v1h-1zM120 130h1v1h-1zM137 130h1v1h-1zM154 130h1v1h-1zM171 130h1v1h-1zM188 130h1v1h-1zM205 130h1v1h-1zM222 130h1v1h-1zM239 130h1v1h-1zM15 131h1v1h-1zM32 131h1v1h-1zM49 131h1v1h-1zM66 131h1v1h-1zM83 131h1v1h-1zM100 131h1v1h-1zM117 131h1v1h-1zM134 131h1v1h-1zM151 131h1v1h-1zM168 131h1v1h-1zM185 131h1v1h-1zM202 131h1v1h-1zM219 131h1v1h-1zM236 131h1v1h-1zM12 132h1v1h-1zM29 132h1v1h-1zM46 132h1v1h-1zM63 132h1v1h-1zM80 132h1v1h-1zM97 132h1v1h-1zM114 132h1v1h-1zM131 132h1v1h-1zM148 132h1v1h-1zM165 132h1v1h-1zM182 132h1v1h-1zM199 132h1v1h-1zM216 132h1v1h-1zM233 132h1v1h-1zM9 133h1v1h-1zM26 133h1v1h-1zM43 133h1v1h-1zM60 133h1v1h-1zM77 133h1v1h-1zM94 133h1v1h-1zM111 133h1v1h-1zM128 133h1v1h-1zM145 133h1v1h-1zM162 133h1v1h-1zM179 133h1v1h-1zM196 133h1v1h-1zM213 133h1v1h-1zM230 133h1v1h-1zM6 134h1v1h-1zM23 134h1v1h-1zM40 134h1v1h-1zM57 134h1v1h-1zM74 134h1v1h-1zM91 134h1v1h-1zM108 134h1v1h-1zM125 134h1v1h-1zM142 134h1v1h-1zM159 134h1v1h-1zM176 134h1v1h-1zM193 134h1v1h-1zM210 134h1v1h-1zM227 134h1v1h-1zM3 135h1v1h-1zM20 135h1v1h-1zM37 135h1v1h-1zM54 135h1v1h-1zM71 135h1v1h-1zM88 135h1v1h-1zM105 135h1v1h-1zM122 135h1v1h-1zM139 135h1v1h-1zM156 135h1v1h-1zM173 135h1v1h-1zM190 135h1v1h-1zM207 135h1v1h-1zM224 135h1v1h-1zM0 136h1v1h-1zM17 136h1v1h-1zM34 136h1v1h-1zM51 136h1v1h-1zM68 136h1v1h-1zM85 136h1v1h-1zM102 136h1v1h-1zM119 136h1v1h-1zM136 136h1v1h-1zM153 136h1v1h-1zM170 136h1v1h-1zM187 136h1v1h-1zM204 136h1v1h-1zM221 136h1v1h-1zM238 136h1v1h-1zM14 137h1v1h-1zM31 137h1v1h-1zM48 137h1v1h-1zM65 137h1v1h-1zM82 137h1v1h-1zM99 137h1v1h-1zM116 137h1v1h-1zM133 137h1v1h-1zM150 137h1v1h-1zM167 137h1v1h-1zM184 137h1v1h-1zM201 137h1v1h-1zM218 137h1v1h-1zM235 137h1v1h-1zM11 138h1v1h-1zM28 138h1v1h-1zM45 138h1v1h-1zM62 138h1v1h-1zM79 138h1v1h-1zM96 138h1v1h-1zM113 138h1v1h-1zM130 138h1v1h-1zM147 138h1v1h-1zM164 138h1v1h-1zM181 138h1v1h-1zM198 138h1v1h-1zM215 138h1v1h-1zM232 138h1v1h-1zM8 139h1v1h-1zM25 139h1v1h-1zM42 139h1v1h-1zM59 139h1v1h-1zM76 139h1v1h-1zM93 139h1v1h-1zM110 139h1v1h-1zM127 139h1v1h-1zM144 139h1v1h-1zM161 139h1v1h-1zM178 139h1v1h-1zM195 139h1v1h-1zM212 139h1v1h-1zM229 139h1v1h-1zM5 140h1v1h-1zM22 140h1v1h-1zM39 140h1v1h-1zM56 140h1v1h-1zM73 140h1v1h-1zM90 140h1v1h-1zM107 140h1v1h-1zM124 140h1v1h-1zM141 140h1v1h-1zM158 140h1v1h-1zM175 140h1v1h-1zM192 140h1v1h-1zM209 140h1v1h-1zM226 140h1v1h-1zM2 141h1v1h-1zM19 141h1v1h-1zM36 141h1v1h-1zM53 141h1v1h-1zM70 141h1v1h-1zM87 141h1v1h-1zM104 141h1v1h-1zM121 141h1v1h-1zM138 141h1v1h-1zM155 141h1v1h-1zM172 141h1v1h-1zM189 141h1v1h-1zM206 141h1v1h-1zM223 141h1v1h-1zM16 142h1v1h-1zM33 142h1v1h-1zM50 142h1v1h-1zM67 142h1v1h-1zM84 142h1v1h-1zM101 142h1v1h-1zM118 142h1v1h-1zM135 142h1v1h-1zM152 142h1v1h-1zM169 142h1v1h-1zM186 142h1v1h-1zM203 142h1v1h-1zM220 142h1v1h-1zM237 142h1v1h-1zM13 143h1v1h-1zM30 143h1v1h-1zM47 143h1v1h-1zM64 143h1v1h-1zM81 143h1v1h-1zM98 143h1v1h-1zM115 143h1v1h-1zM132 143h1v1h-1zM149 143h1v1h-1zM166 143h1v1h-1zM183 143h1v1h-1zM200 143h1v1h-1zM217 143h1v1h-1zM234 143h1v1h-1zM10 144h1v1h-1zM27 144h1v1h-1zM44 144h1v1h-1zM61 144h1v1h-1zM78 144h1v1h-1zM95 144h1v1h-1zM112 144h1v1h-1zM129 144h1v1h-1zM146 144h1v1h-1zM163 144h1v1h-1zM180 144h1v1h-1zM197 144h1v1h-1zM214 144h1v1h-1zM231 144h1v1h-1zM7 145h1v1h-1zM24 145h1v1h-1zM41 145h1v1h-1zM58 145h1v1h-1zM75 145h1v1h-1zM92 145h1v1h-1zM109 145h1v1h-1zM126 145h1v1h-1zM143 145h1v1h-1zM160 145h1v1h-1zM177 145h1v1h-1zM194 145h1v1h-1zM211 145h1v1h-1zM228 145h1v1h-1zM4 146h1v1h-1zM21 146h1v1h-1zM38 146h1v1h-1zM55 146h1v1h-1zM72 146h1v1h-1zM89 146h1v1h-1zM106 146h1v1h-1zM123 146h1v1h-1zM140 146h1v1h-1zM157 146h1v1h-1zM174 146h1v1h-1zM191 146h1v1h-1zM208 146h1v1h-1zM225 146h1v1h-1zM1 147h1v1h-1zM18 147h1v1h-1zM35 147h1v1h-1zM52 147h1v1h-1zM69 147h1v1h-1zM86 147h1v1h-1zM103 147h1v1h-1zM120 147h1v1h-1zM137 147h1v1h-1zM154 147h1v1h-1zM171 147h1v1h-1zM188 147h1v1h-1zM205 147h1v1h-1zM222 147h1v1h-1zM239 147h1v1h-1zM15 148h1v1h-1zM32 148h1v1h-1zM49 148h1v1h-1zM66 148h1v1h-1zM83 148h1v1h-1zM100 148h1v1h-1zM117 148h1v1h-1zM134 148h1v1h-1zM151 148h1v1h-1zM168 148h1v1h-1zM185 148h1v1h-1zM202 148h1v1h-1zM219 148h1v1h-1zM236 148h1v1h-1zM12 149h1v1h-1zM29 149h1v1h-1zM46 149h1v1h-1zM63 149h1v1h-1zM80 149h1v1h-1zM97 149h1v1h-1zM114 149h1v1h-1zM131 149h1v1h-1zM148 149h1v1h-1zM165 149h1v1h-1zM182 149h1v1h-1zM199 149h1v1h-1zM216 149h1v1h-1zM233 149h1v1h-1zM9 150h1v1h-1zM26 150h1v1h-1zM43 150h1v1h-1zM60 150h1v1h-1zM77 150h1v1h-1zM94 150h1v1h-1zM111 150h1v1h-1zM128 150h1v1h-1zM145 150h1v1h-1zM162 150h1v1h-1zM179 150h1v1h-1zM196 150h1v1h-1zM213 150h1v1h-1zM230 150h1v1h-1zM6 151h1v1h-1zM23 151h1v1h-1zM40 151h1v1h-1zM57 151h1v1h-1zM74 151h1v1h-1zM91 151h1v1h-1zM108 151h1v1h-1zM125 151h1v1h-1zM142 151h1v1h-1zM159 151h1v1h-1zM176 151h1v1h-1zM193 151h1v1h-1zM210 151h1v1h-1zM227 151h1v1h-1zM3 152h1v1h-1zM20 152h1v1h-1zM37 152h1v1h-1zM54 152h1v1h-1zM71 152h1v1h-1zM88 152h1v1h-1zM105 152h1v1h-1zM122 152h1v1h-1zM139 152h1v1h-1zM156 152h1v1h-1zM173 152h1v1h-1zM190 152h1v1h-1zM207 152h1v1h-1zM224 152h1v1h-1zM0 153h1v1h-1zM17 153h1v1h-1zM34 153h1v1h-1zM51 153h1v1h-1zM68 153h1v1h-1zM85 153h1v1h-1zM102 153h1v1h-1zM119 153h1v1h-1zM136 153h1v1h-1zM153 153h1v1h-1zM170 153h1v1h-1zM187 153h1v1h-1zM204 153h1v1h-1zM221 153h1v1h-1zM238 153h1v1h-1zM14 154h1v1h-1zM31 154h1v1h-1zM48 154h1v1h-1zM65 154h1v1h-1zM82 154h1v1h-1zM99 154h1v1h-1zM116 154h1v1h-1zM133 154h1v1h-1zM150 154h1v1h-1zM167 154h1v1h-1zM184 154h1v1h-1zM201 154h1v1h-1zM218 154h1v1h-1zM235 154h1v1h-1zM11 155h1v1h-1zM28 155h1v1h-1zM45 155h1v1h-1zM62 155h1v1h-1zM79 155h1v1h-1zM96 155h1v1h-1zM113 155h1v1h-1zM130 155h1v1h-1zM147 155h1v1h-1zM164 155h1v1h-1zM181 155h1v1h-1zM198 155h1v1h-1zM215 155h1v1h-1zM232 155h1v1h-1zM8 156h1v1h-1zM25 156h1v1h-1zM42 156h1v1h-1zM59 156h1v1h-1zM76 156h1v1h-1zM93 156h1v1h-1zM110 156h1v1h-1zM127 156h1v1h-1zM144 156h1v1h-1zM161 156h1v1h-1zM178 156h1v1h-1zM195 156h1v1h-1zM212 156h1v1h-1zM229 156h1v1h-1zM5 157h1v1h-1zM22 157h1v1h-1zM39 157h1v1h-1zM56 157h1v1h-1zM73 157h1v1h-1zM90 157h1v1h-1zM107 157h1v1h-1zM124 157h1v1h-1zM141 157h1v1h-1zM158 157h1v1h-1zM175 157h1v1h-1zM192 157h1v1h-1zM209 157h1v1h-1zM226 157h1v1h-1zM2 158h1v1h-1zM19 158h1v1h-1zM36 158h1v1h-1zM53 158h1v1h-1zM70 158h1v1h-1zM87 158h1v1h-1zM104 158h1v1h-1zM121 158h1v1h-1zM138 158h1v1h-1zM155 158h1v1h-1zM172 158h1v1h-1zM189 158h1v1h-1zM206 158h1v1h-1zM223 158h1v1h-1zM16 159h1v1h-1zM33 159h1v1h-1zM50 159h1v1h-1zM67 159h1v1h-1zM84 159h1v1h-1zM101 159h1v1h-1zM118 159h1v1h-1zM135 159h1v1h-1zM152 159h1v1h-1zM169 159h1v1h-1zM186 159h1v1h-1zM203 159h1v1h-1zM220 159h1v1h-1zM237 159h1v1h-1zM13 160h1v1h-1zM30 160h1v1h-1zM47 160h1v1h-1zM64 160h1v1h-1zM81 160h1v1h-1zM98 160h1v1h-1zM115 160h1v1h-1zM132 160h1v1h-1zM149 160h1v1h-1zM166 160h1v1h-1zM183 160h1v1h-1zM200 160h1v1h-1zM217 160h1v1h-1zM234 160h1v1h-1zM10 161h1v1h-1zM27 161h1v1h-1zM44 161h1v1h-1zM61 161h1v1h-1zM78 161h1v1h-1zM95 161h1v1h-1zM112 161h1v1h-1zM129 161h1v1h-1zM146 161h1v1h-1zM163 161h1v1h-1zM180 161h1v1h-1zM197 161h1v1h-1zM214 161h1v1h-1zM231 161h1v1h-1zM7 162h1v1h-1zM24 162h1v1h-1zM41 162h1v1h-1zM58 162h1v1h-1zM75 162h1v1h-1zM92 162h1v1h-1zM109 162h1v1h-1zM126 162h1v1h-1zM143 162h1v1h-1zM160 162h1v1h-1zM177 162h1v1h-1zM194 162h1v1h-1zM211 162h1v1h-1zM228 162h1v1h-1zM4 163h1v1h-1zM21 163h1v1h-1zM38 163h1v1h-1zM55 163h1v1h-1zM72 163h1v1h-1zM89 163h1v1h-1zM106 163h1v1h-1zM123 163h1v1h-1zM140 163h1v1h-1zM157 163h1v1h-1zM174 163h1v1h-1zM191 163h1v1h-1zM208 163h1v1h-1zM225 163h1v1h-1zM1 164h1v1h-1zM18 164h1v1h-1zM35 164h1v1h-1zM52 164h1v1h-1zM69 164h1v1h-1zM86 164h1v1h-1zM103 164h1v1h-1zM120 164h1v1h-1zM137 164h1v1h-1zM154 164h1v1h-1zM171 164h1v1h-1zM188 164h1v1h-1zM205 164h1v1h-1zM222 164h1v1h-1zM239 164h1v1h-1zM15 165h1v1h-1zM32 165h1v1h-1zM49 165h1v1h-1zM66 165h1v1h-1zM83 165h1v1h-1zM100 165h1v1h-1zM117 165h1v1h-1zM134 165h1v1h-1zM151 165h1v1h-1zM168 165h1v1h-1zM185 165h1v1h-1zM202 165h1v1h-1zM219 165h1v1h-1zM236 165h1v1h-1zM12 166h1v1h-1zM29 166h1v1h-1zM46 166h1v1h-1zM63 166h1v1h-1zM80 166h1v1h-1zM97 166h1v1h-1zM114 166h1v1h-1zM131 166h1v1h-1zM148 166h1v1h-1zM165 166h1v1h-1zM182 166h1v1h-1zM199 166h1v1h-1zM216 166h1v1h-1zM233 166h1v1h-1zM9 167h1v1h-1zM26 167h1v1h-1zM43 167h1v1h-1zM60 167h1v1h-1zM77 167h1v1h-1zM94 167h1v1h-1zM111 167h1v1h-1zM128 167h1v1h-1zM145 167h1v1h-1zM162 167h1v1h-1zM179 167h1v1h-1zM196 167h1v1h-1zM213 167h1v1h-1zM230 167h1v1h-1zM6 168h1v1h-1zM23 168h1v1h-1zM40 168h1v1h-1zM57 168h1v1h-1zM74 168h1v1h-1zM91 168h1v1h-1zM108 168h1v1h-1zM125 168h1v1h-1zM142 168h1v1h-1zM159 168h1v1h-1zM176 168h1v1h-1zM193 168h1v1h-1zM210 168h1v1h-1zM227 168h1v1h-1zM3 169h1v1h-1zM20 169h1v1h-1zM37 169h1v1h-1zM54 169h1v1h-1zM71 169h1v1h-1zM88 169h1v1h-1zM105 169h1v1h-1zM122 169h1v1h-1zM139 169h1v1h-1zM156 169h1v1h-1zM173 169h1v1h-1zM190 169h1v1h-1zM207 169h1v1h-1zM224 169h1v1h-1zM0 170h1v1h-1zM17 170h1v1h-1zM34 170h1v1h-1zM51 170h1v1h-1zM68 170h1v1h-1zM85 170h1v1h-1zM102 170h1v1h-1zM119 170h1v1h-1zM136 170h1v1h-1zM153 170h1v1h-1zM170 170h1v1h-1zM187 170h1v1h-1zM204 170h1v1h-1zM221 170h1v1h-1zM238 170h1v1h-1zM14 171h1v1h-1zM31 171h1v1h-1zM48 171h1v1h-1zM65 171h1v1h-1zM82 171h1v1h-1zM99 171h1v1h-1zM116 171h1v1h-1zM133 171h1v1h-1zM150 171h1v1h-1zM167 171h1v1h-1zM184 171h1v1h-1zM201 171h1v1h-1zM218 171h1v1h-1zM235 171h1v1h-1zM11 172h1v1h-1zM28 172h1v1h-1zM45 172h1v1h-1zM62 172h1v1h-1zM79 172h1v1h-1zM96 172h1v1h-1zM113 172h1v1h-1zM130 172h1v1h-1zM147 172h1v1h-1zM164 172h1v1h-1zM181 172h1v1h-1zM198 172h1v1h-1zM215 172h1v1h-1zM232 172h1v1h-1zM8 173h1v1h-1zM25 173h1v1h-1zM42 173h1v1h-1zM59 173h1v1h-1zM76 173h1v1h-1zM93 173h1v1h-1zM110 173h1v1h-1zM127 173h1v1h-1zM144 173h1v1h-1zM161 173h1v1h-1zM178 173h1v1h-1zM195 173h1v1h-1zM212 173h1v1h-1zM229 173h1v1h-1zM5 174h1v1h-1zM22 174h1v1h-1zM39 174h1v1h-1zM56 174h1v1h-1zM73 174h1v1h-1zM90 174h1v1h-1zM107 174h1v1h-1zM124 174h1v1h-1zM141 174h1v1h-1zM158 174h1v1h-1zM175 174h1v1h-1zM192 174h1v1h-1zM209 174h1v1h-1zM226 174h1v1h-1zM2 175h1v1h-1zM19 175h1v1h-1zM36 175h1v1h-1zM53 175h1v1h-1zM70 175h1v1h-1zM87 175h1v1h-1zM104 175h1v1h-1zM121 175h1v1h-1zM138 175h1v1h-1zM155 175h1v1h-1zM172 175h1v1h-1zM189 175h1v1h-1zM206 175h1v1h-1zM223 175h1v1h-1zM16 176h1v1h-1zM33 176h1v1h-1zM50 176h1v1h-1zM67 176h1v1h-1zM84 176h1v1h-1zM101 176h1v1h-1zM118 176h1v1h-1zM135 176h1v1h-1zM152 176h1v1h-1zM169 176h1v1h-1zM186 176h1v1h-1zM203 176h1v1h-1zM220 176h1v1h-1zM237 176h1v1h-1zM13 177h1v1h-1zM30 177h1v1h-1zM47 177h1v1h-1zM64 177h1v1h-1zM81 177h1v1h-1zM98 177h1v1h-1zM115 177h1v1h-1zM132 177h1v1h-1zM149 177h1v1h-1zM166 177h1v1h-1zM183 177h1v1h-1zM200 177h1v1h-1zM217 177h1v1h-1zM234 177h1v1h-1zM10 178h1v1h-1zM27 178h1v1h-1zM44 178h1v1h-1zM61 178h1v1h-1zM78 178h1v1h-1zM95 178h1v1h-1zM112 178h1v1h-1zM129 178h1v1h-1zM146 178h1v1h-1zM163 178h1v1h-1zM180 178h1v1h-1zM197 178h1v1h-1zM214 178h1v1h-1zM231 178h1v1h-1zM7 179h1v1h-1zM24 179h1v1h-1zM41 179h1v1h-1zM58 179h1v1h-1zM75 179h1v1h-1zM92 179h1v1h-1zM109 179h1v1h-1zM126 179h1v1h-1zM143 179h1v1h-1zM160 179h1v1h-1zM177 179h1v1h-1zM194 179h1v1h-1zM211 179h1v1h-1zM228 179h1v1h-1z"/><g class="fa"><path fill="#ffa126" d="M128 91h1v1h-1zM128 92h1v1h-1zM127 93h3v1h-3zM127 94h1v1h-1zM129 94h1v1h-1zM127 95h1v1h-1zM129 95h1v1h-1zM132 95h1v1h-1zM124 96h1v1h-1zM126 96h1v1h-1zM131 96h3v1h-3zM124 97h1v1h-1zM127 97h1v1h-1zM129 97h1v1h-1zM126 98h1v1h-1zM131 98h1v1h-1zM133 98h1v1h-1zM123 99h1v1h-1zM125 99h1v1h-1zM131 99h1v1h-1zM133 99h1v1h-1zM123 100h1v1h-1zM125 100h1v1h-1zM131 100h1v1h-1zM133 100h1v1h-1zM123 101h1v1h-1zM125 101h1v1h-1zM131 101h1v1h-1zM133 101h1v1h-1zM122 102h1v1h-1zM126 102h1v1h-1zM129 102h2v1h-2zM134 102h2v1h-2z"/><path fill="#e2531f" d="M127 92h1v1h-1zM129 92h1v1h-1zM126 93h1v1h-1zM130 93h1v1h-1zM126 94h1v1h-1zM130 94h1v1h-1zM126 95h1v1h-1zM130 95h1v1h-1zM123 96h1v1h-1zM125 96h1v1h-1zM130 96h1v1h-1zM134 96h1v1h-1zM123 97h1v1h-1zM125 97h2v1h-2zM130 97h2v1h-2zM133 97h1v1h-1zM123 98h1v1h-1zM125 98h1v1h-1zM130 98h1v1h-1zM134 98h1v1h-1zM121 99h2v1h-2zM126 99h2v1h-2zM129 99h2v1h-2zM134 99h2v1h-2zM122 100h1v1h-1zM126 100h1v1h-1zM129 100h2v1h-2zM134 100h2v1h-2zM121 101h2v1h-2zM126 101h2v1h-2zM129 101h2v1h-2zM134 101h2v1h-2zM120 102h2v1h-2zM127 102h2v1h-2zM136 102h2v1h-2z"/><path fill="#fff0a6" d="M128 94h1v1h-1zM128 95h1v1h-1zM127 96h3v1h-3zM128 97h1v1h-1zM132 97h1v1h-1zM124 98h1v1h-1zM127 98h3v1h-3zM132 98h1v1h-1zM124 99h1v1h-1zM128 99h1v1h-1zM132 99h1v1h-1zM124 100h1v1h-1zM127 100h2v1h-2zM132 100h1v1h-1zM124 101h1v1h-1zM128 101h1v1h-1zM132 101h1v1h-1zM123 102h3v1h-3zM131 102h3v1h-3z"/></g><g class="fb"><path fill="#ffa126" d="M129 90h1v1h-1zM128 91h3v1h-3zM129 92h1v1h-1zM128 93h1v1h-1zM130 93h1v1h-1zM128 94h1v1h-1zM130 94h1v1h-1zM133 94h1v1h-1zM125 95h1v1h-1zM127 95h1v1h-1zM129 95h1v1h-1zM133 95h1v1h-1zM125 96h1v1h-1zM127 96h1v1h-1zM129 96h1v1h-1zM124 97h1v1h-1zM126 97h1v1h-1zM131 97h1v1h-1zM133 97h1v1h-1zM123 98h1v1h-1zM125 98h1v1h-1zM131 98h1v1h-1zM133 98h1v1h-1zM123 99h1v1h-1zM125 99h1v1h-1zM131 99h1v1h-1zM133 99h1v1h-1zM122 100h1v1h-1zM126 100h1v1h-1zM130 100h1v1h-1zM134 100h1v1h-1zM123 101h1v1h-1zM125 101h1v1h-1zM130 101h1v1h-1zM134 101h1v1h-1zM122 102h1v1h-1zM126 102h1v1h-1zM130 102h1v1h-1zM134 102h1v1h-1z"/><path fill="#e2531f" d="M127 91h1v1h-1zM131 91h1v1h-1zM128 92h1v1h-1zM130 92h1v1h-1zM127 93h1v1h-1zM131 93h1v1h-1zM126 94h2v1h-2zM131 94h2v1h-2zM134 94h1v1h-1zM126 95h1v1h-1zM130 95h3v1h-3zM134 95h1v1h-1zM124 96h1v1h-1zM126 96h1v1h-1zM130 96h3v1h-3zM134 96h1v1h-1zM123 97h1v1h-1zM127 97h1v1h-1zM129 97h2v1h-2zM134 97h2v1h-2zM122 98h1v1h-1zM126 98h1v1h-1zM130 98h1v1h-1zM134 98h1v1h-1zM122 99h1v1h-1zM126 99h1v1h-1zM129 99h2v1h-2zM134 99h2v1h-2zM120 100h2v1h-2zM127 100h3v1h-3zM135 100h2v1h-2zM121 101h2v1h-2zM126 101h4v1h-4zM135 101h2v1h-2zM120 102h2v1h-2zM127 102h3v1h-3zM135 102h2v1h-2z"/><path fill="#fff0a6" d="M129 93h1v1h-1zM129 94h1v1h-1zM128 95h1v1h-1zM128 96h1v1h-1zM133 96h1v1h-1zM125 97h1v1h-1zM128 97h1v1h-1zM132 97h1v1h-1zM124 98h1v1h-1zM127 98h3v1h-3zM132 98h1v1h-1zM124 99h1v1h-1zM127 99h2v1h-2zM132 99h1v1h-1zM123 100h3v1h-3zM131 100h3v1h-3zM124 101h1v1h-1zM131 101h3v1h-3zM123 102h3v1h-3zM131 102h3v1h-3z"/></g></svg>